<svg width="180" height="80" viewBox="0 0 180 80" fill="none" xmlns="http://www.w3.org/2000/svg">
<path fill-rule="evenodd" clip-rule="evenodd" d="M39.7568 26.351L48.1135 40.8444C48.1564 40.9323 48.178 40.9981 48.178 41.086C48.178 41.1739 48.1564 41.2616 48.1135 41.3275C48.0705 41.3935 48.0061 41.4593 47.9416 41.5033C47.8772 41.5472 47.7912 41.5691 47.7053 41.5691H42.7214C42.5496 41.5691 42.3992 41.5252 42.2488 41.4373C42.0984 41.3495 41.991 41.2177 41.905 41.086L36.4485 31.6213C36.3625 31.4896 36.3197 31.3138 36.3197 31.1601C36.3197 31.0065 36.3625 30.8307 36.4485 30.699L38.9405 26.351C38.9835 26.285 39.0479 26.2192 39.1124 26.1752C39.1768 26.1313 39.2627 26.1094 39.3486 26.1094C39.4346 26.1094 39.5205 26.1313 39.585 26.1752C39.6494 26.2192 39.7138 26.285 39.7568 26.351ZM74.0845 48.9328C74.2134 48.801 74.2779 48.6253 74.2779 48.4497V32.0238C74.2779 31.8261 74.2134 31.6723 74.0845 31.5405C73.9556 31.4088 73.7837 31.343 73.6119 31.343H72.6882C72.5163 31.343 72.3444 31.4088 72.2156 31.5405C72.0866 31.6723 72.0222 31.848 72.0222 32.0238V48.4497C72.0222 48.6474 72.0866 48.801 72.2156 48.9328C72.3444 49.0645 72.5163 49.1305 72.6882 49.1305H73.6119C73.7837 49.1305 73.9556 49.0645 74.0845 48.9328ZM66.1202 40.5551V40.8845L62.6615 41.4336C61.1148 41.6751 59.8688 42.1582 58.945 42.8829C58.0214 43.5856 57.5487 44.5519 57.5487 45.8035C57.5487 46.4624 57.7206 47.0772 58.0642 47.6042C58.4294 48.1313 58.945 48.5704 59.611 48.8779C60.277 49.1854 61.0289 49.3391 61.8667 49.3391C62.7259 49.3391 63.5853 49.1635 64.4446 48.8121C65.3039 48.4606 65.8839 47.9775 66.1417 47.3847V48.4168C66.1417 48.6144 66.2062 48.7681 66.335 48.8999C66.464 49.0316 66.6358 49.0975 66.8076 49.0975H67.7314C67.9032 49.0975 68.0752 49.0316 68.204 48.8999C68.333 48.7681 68.3974 48.5925 68.3974 48.4168V40.7747C68.3974 39.2156 67.9248 38.0078 66.958 37.1294C66.0128 36.273 64.7669 35.8338 63.2201 35.8338C62.3823 35.8338 61.6089 36.0094 60.8785 36.3169C60.1481 36.6463 59.568 37.0416 59.117 37.5466C58.6872 38.0297 58.4294 38.5128 58.3866 39.018C58.365 39.2156 58.4294 39.3694 58.5584 39.5011C58.7088 39.6329 58.8806 39.6987 59.0524 39.6987H59.8044C59.9978 39.6987 60.1696 39.6767 60.277 39.6329C60.3844 39.5669 60.4918 39.4792 60.5992 39.3473C60.943 38.8863 61.2867 38.5568 61.6519 38.3372C62.0385 38.0957 62.5541 37.9859 63.2201 37.9859C64.0795 37.9859 64.7669 38.2055 65.3039 38.6666C65.8409 39.1058 66.1202 39.7427 66.1202 40.5551ZM66.0987 42.9083L63.1771 43.388C62.103 43.5637 61.2652 43.8272 60.6637 44.2224C60.0622 44.5957 59.7614 45.0569 59.7614 45.6279C59.7614 46.0452 59.9548 46.4185 60.3414 46.7478C60.7281 47.0772 61.3081 47.253 62.0815 47.253C63.2845 47.253 64.2513 46.9016 64.9817 46.2208C65.7335 45.54 66.0987 44.6397 66.0987 43.5416V42.9083ZM83.2399 47.2346C84.8941 47.2346 86.0111 46.5759 86.5912 45.2802C86.6986 45.0386 86.8274 44.8629 86.9348 44.7532C87.0422 44.6434 87.2142 44.5994 87.4074 44.5994H88.1594C88.3312 44.5994 88.5032 44.6653 88.632 44.7971C88.761 44.9069 88.8254 45.0606 88.8254 45.2144C88.8254 45.7853 88.6106 46.4001 88.1594 47.037C87.7082 47.6958 87.0638 48.2448 86.226 48.6839C85.3881 49.1451 84.3785 49.3647 83.2399 49.3647C82.0583 49.3647 81.0487 49.1232 80.1894 48.6181C79.33 48.1131 78.6642 47.4323 78.1915 46.5759C77.7189 45.6975 77.4611 44.7092 77.4182 43.6113C77.3967 43.4137 77.3967 43.0184 77.3967 42.4696V42.4694V42.4691C77.3967 42.074 77.3967 41.7885 77.4182 41.6129C77.5685 39.9 78.1486 38.5165 79.1368 37.4624C80.125 36.3865 81.4998 35.8594 83.2399 35.8594C84.3785 35.8594 85.3667 36.079 86.2045 36.5402C87.0422 36.9794 87.6868 37.5064 88.1164 38.1653C88.5676 38.8021 88.8038 39.395 88.8468 39.966C88.8684 40.1416 88.8038 40.3172 88.6534 40.4491C88.5246 40.5808 88.3528 40.6467 88.1808 40.6467H87.429C87.2356 40.6467 87.0638 40.6028 86.9564 40.493C86.849 40.3832 86.72 40.2075 86.6126 39.966C86.0326 38.6703 84.9155 38.0115 83.2613 38.0115C82.3591 38.0115 81.5428 38.319 80.8768 38.9338C80.1894 39.5487 79.8028 40.493 79.7168 41.7446C79.6952 41.9204 79.6952 42.2277 79.6952 42.645C79.6952 43.0183 79.6952 43.3039 79.7168 43.5014C79.8242 44.7532 80.2324 45.6975 80.8768 46.3124C81.5428 46.9272 82.3376 47.2346 83.2399 47.2346ZM103.112 48.9328C103.241 48.801 103.306 48.6253 103.306 48.4497V41.4664C103.306 40.3026 103.091 39.3143 102.618 38.48C102.167 37.6234 101.544 36.9866 100.728 36.5255C99.9113 36.0643 98.9875 35.8447 97.9349 35.8447C97.0112 35.8447 96.2164 36.0204 95.5718 36.3497C94.9488 36.6793 94.4548 37.0745 94.0896 37.5576V32.0238C94.0896 31.8261 94.0252 31.6723 93.8962 31.5405C93.7674 31.4088 93.5955 31.343 93.4236 31.343H92.4999C92.3281 31.343 92.1562 31.4088 92.0273 31.5405C91.8985 31.6723 91.8339 31.848 91.8339 32.0238V48.4497C91.8339 48.6474 91.8985 48.801 92.0273 48.9328C92.1562 49.0645 92.3281 49.1305 92.4999 49.1305H93.4236C93.5955 49.1305 93.7674 49.0645 93.8962 48.9328C94.0252 48.801 94.0896 48.6253 94.0896 48.4497V41.8398C94.0896 40.588 94.3904 39.6437 95.0134 38.985C95.6364 38.3481 96.4956 38.0188 97.5697 38.0188C98.6653 38.0188 99.5031 38.3262 100.126 38.985C100.749 39.6437 101.05 40.588 101.05 41.8398V48.4497C101.05 48.6474 101.114 48.801 101.243 48.9328C101.372 49.0645 101.544 49.1305 101.716 49.1305H102.64C102.811 49.1305 102.983 49.0645 103.112 48.9328ZM112.026 35.8594C113.809 35.8594 115.206 36.4304 116.237 37.5722C117.268 38.7142 117.784 40.2514 117.784 42.2058V42.8866C117.784 43.0622 117.719 43.2379 117.59 43.3697C117.461 43.5014 117.29 43.5674 117.118 43.5674H108.568V43.7211C108.611 44.819 108.933 45.6975 109.556 46.3343C110.2 46.9492 111.038 47.2565 112.048 47.2565C112.886 47.2565 113.509 47.1468 113.96 46.9272C114.432 46.7076 114.84 46.4001 115.206 46.0049C115.31 45.8978 115.415 45.8198 115.497 45.7589L115.522 45.7402L115.549 45.7194C115.657 45.6756 115.807 45.6535 116.001 45.6535H116.752C116.946 45.6535 117.118 45.7194 117.247 45.8512C117.375 45.9829 117.44 46.1366 117.418 46.3343C117.354 46.7955 117.096 47.2565 116.667 47.7398C116.258 48.2008 115.657 48.6181 114.84 48.9475C114.067 49.2549 113.122 49.4306 112.026 49.4306C110.974 49.4306 110.028 49.1891 109.191 48.706C108.353 48.2008 107.708 47.5201 107.193 46.6637C106.72 45.7853 106.419 44.819 106.312 43.743C106.269 43.2379 106.269 42.8646 106.269 42.601C106.269 42.3914 106.283 42.0984 106.299 41.744L106.299 41.7382L106.312 41.4592C106.419 40.427 106.699 39.4829 107.193 38.6484C107.687 37.8139 108.353 37.1551 109.148 36.6719C109.986 36.101 110.952 35.8594 112.026 35.8594ZM115.528 41.4592V41.3934C115.528 40.3832 115.206 39.5706 114.561 38.9558C113.938 38.3409 113.079 38.0334 112.026 38.0334C111.06 38.0334 110.243 38.3409 109.556 38.9558C108.89 39.5706 108.546 40.3832 108.546 41.3934V41.4592H115.528ZM124.377 36.3425C123.862 36.65 123.432 37.0453 123.024 37.5722V36.7818C123.024 36.5841 122.959 36.4304 122.83 36.2986C122.702 36.1669 122.53 36.101 122.358 36.101H121.434C121.262 36.101 121.09 36.1669 120.962 36.2986C120.833 36.4304 120.768 36.606 120.768 36.7818V48.4425C120.768 48.64 120.833 48.7937 120.962 48.9256C121.09 49.0572 121.262 49.1232 121.434 49.1232H122.358C122.53 49.1232 122.702 49.0572 122.83 48.9256C122.959 48.7937 123.024 48.6181 123.024 48.4425V41.5909C123.024 40.4051 123.282 39.5048 123.819 38.9119C124.356 38.319 125.065 38.0115 125.967 38.0115C127.922 38.0115 128.91 39.2632 128.91 41.7667V48.4425C128.91 48.64 128.974 48.7937 129.103 48.9256C129.232 49.0572 129.404 49.1232 129.576 49.1232H130.5C130.672 49.1232 130.843 49.0572 130.972 48.9256C131.101 48.7937 131.166 48.6181 131.166 48.4425V41.5909C131.166 40.4051 131.423 39.5048 131.96 38.9119C132.497 38.319 133.207 38.0115 134.109 38.0115C136.063 38.0115 137.052 39.2632 137.052 41.7667V48.4425C137.052 48.64 137.117 48.7937 137.245 48.9256C137.374 49.0572 137.545 49.1232 137.718 49.1232H138.641C138.813 49.1232 138.985 49.0572 139.114 48.9256C139.243 48.7937 139.308 48.6181 139.308 48.4425V41.5032C139.308 39.7025 138.9 38.319 138.104 37.3308C137.331 36.3425 136.128 35.8594 134.495 35.8594C133.508 35.8594 132.712 36.0571 132.089 36.4304C131.488 36.8037 130.929 37.3308 130.457 38.0334C129.683 36.5841 128.309 35.8594 126.375 35.8594C125.537 35.8594 124.871 36.0351 124.377 36.3425ZM146.268 53.2966C146.117 53.692 145.881 53.8897 145.537 53.8897H144.528C144.356 53.8897 144.227 53.8237 144.098 53.7139C143.991 53.6041 143.926 53.4504 143.926 53.2966C143.926 53.2308 143.926 53.1649 143.947 53.121L146.333 47.8945L141.413 36.8928C141.391 36.8488 141.391 36.783 141.391 36.717C141.391 36.5413 141.455 36.4097 141.563 36.2997C141.67 36.1899 141.821 36.1241 141.992 36.1241H143.002C143.325 36.1241 143.582 36.3218 143.733 36.717L147.556 45.2374L151.444 36.717C151.596 36.3218 151.832 36.1241 152.175 36.1241H153.185C153.356 36.1241 153.485 36.1899 153.614 36.2997C153.722 36.4097 153.786 36.5632 153.786 36.717C153.786 36.783 153.786 36.8488 153.766 36.8928L146.268 53.2966ZM26.2266 48.426L34.5832 33.9325C34.6262 33.8666 34.6906 33.8008 34.755 33.7568C34.8196 33.7129 34.9054 33.6908 34.9914 33.6908C35.0774 33.6908 35.1632 33.7129 35.2276 33.7568C35.2922 33.8008 35.3566 33.8666 35.3996 33.9325L37.8915 38.2805C37.9775 38.4123 38.0204 38.588 38.0204 38.7417C38.0204 38.8954 37.9775 39.0711 37.8915 39.2029L32.435 48.6675C32.3491 48.7993 32.2417 48.931 32.0913 49.0189C31.9409 49.1068 31.7905 49.1506 31.6187 49.1506H26.6132C26.5272 49.1506 26.4414 49.1287 26.377 49.0847C26.3124 49.0408 26.248 48.9749 26.205 48.9091C26.1621 48.8433 26.1406 48.7554 26.1406 48.6675C26.1621 48.5797 26.1836 48.5137 26.2266 48.426ZM52.0882 49.1248H35.3749C35.3104 49.1248 35.2246 49.1029 35.16 49.059C35.0956 49.015 35.0312 48.9492 34.9882 48.8832C34.9452 48.7954 34.9238 48.7295 34.9238 48.6417C34.9238 48.5538 34.9452 48.4659 34.9882 48.4001L37.4801 44.0521C37.5661 43.8983 37.6735 43.7885 37.8239 43.7006C37.9743 43.6129 38.1247 43.569 38.2965 43.569H49.1881C49.36 43.569 49.5103 43.6129 49.6607 43.7006C49.8111 43.7885 49.9185 43.9204 50.0044 44.0521L52.4964 48.4001C52.5394 48.488 52.5608 48.5538 52.5608 48.6417C52.5608 48.7295 52.5394 48.8173 52.4964 48.8832C52.4534 48.9492 52.389 49.015 52.3246 49.059C52.2602 49.1029 52.1742 49.1248 52.0882 49.1248Z" fill="#363FF9"/>
</svg>
