<svg id="visual" viewBox="0 0 960 540" width="960" height="540" xmlns="http://www.w3.org/2000/svg" xmlns:xlink="http://www.w3.org/1999/xlink" version="1.1"><rect x="0" y="0" width="960" height="540" fill="#001220"></rect><defs><linearGradient id="grad1_0" x1="43.8%" y1="0%" x2="100%" y2="100%"><stop offset="14.444444444444446%" stop-color="#001220" stop-opacity="1"></stop><stop offset="85.55555555555554%" stop-color="#001220" stop-opacity="1"></stop></linearGradient></defs><defs><linearGradient id="grad2_0" x1="0%" y1="0%" x2="56.3%" y2="100%"><stop offset="14.444444444444446%" stop-color="#001220" stop-opacity="1"></stop><stop offset="85.55555555555554%" stop-color="#001220" stop-opacity="1"></stop></linearGradient></defs><g transform="translate(960, 0)"><path d="M0 486C-64 480.8 -127.9 475.6 -186 449C-244.1 422.4 -296.3 374.3 -319.6 319.6C-342.9 264.9 -337.4 203.6 -360.3 149.2C-383.2 94.9 -434.6 47.4 -486 0L0 0Z" fill="#FBAE3C"></path></g><g transform="translate(0, 540)"><path d="M0 -486C53.4 -455.2 106.8 -424.3 168 -405.6C229.2 -386.8 298 -380.1 343.7 -343.7C389.3 -307.2 411.6 -241 431.5 -178.7C451.3 -116.5 468.6 -58.2 486 0L0 0Z" fill="#FBAE3C"></path></g></svg>