<svg
  width="100"
  height="100"
  viewBox="0 0 100 100"
  fill="none"
  xmlns="http://www.w3.org/2000/svg"
>
  <g clip-path="url(#clip0_6847_227931)">
    <path
      d="M9.76747 26.1375c.27613.4783.96653.4783 1.24263 0l1.864-3.2286c.2762-.4783-.069-1.0761-.6213-1.0761h-3.728c-.5523 0-.89748.5978-.62133 1.0761l1.864 3.2286z"
      fill="#787A85"
    />
    <path
      d="M17.5634 21.8328c0-1.1887.9636-2.1524 2.1523-2.1524h4.3048c1.1887 0 2.1523.9637 2.1523 2.1524v4.3047c0 1.1887-.9636 2.1524-2.1523 2.1524h-4.3048c-1.1887 0-2.1523-.9637-2.1523-2.1524v-4.3047zM29.4595 24.9202c0 .7716.206 1.4092.6179 1.9127.4153.5003.9662.7504 1.6529.7504.3825 0 .7176-.0768 1.0054-.2305.2877-.1537.5019-.3384.6425-.5542h.0294l.0392.6866h.8632v-7.5333h-.9515v2.879c-.1602-.2191-.376-.394-.6473-.5248-.2714-.1308-.5984-.1962-.9809-.1962-.6867 0-1.2376.2501-1.6529.7504-.4119.5003-.6179 1.1346-.6179 1.9029v.157zm.976.0049v-.1619c0-.5231.121-.9645.3629-1.3242.242-.3596.6229-.5395 1.1428-.5395.3498 0 .6457.0916.8877.2747.2452.1831.4217.3907.5296.6229v2.0942c-.1079.2354-.2844.4446-.5296.6277-.242.1831-.5379.2747-.8877.2747-.5199 0-.9008-.1798-1.1428-.5395-.2419-.3597-.3629-.8027-.3629-1.3291zm5.2181-.0049c0 .7978.224 1.4501.672 1.9569.4512.5035 1.0986.7553 1.9421.7553.5166 0 .9548-.1047 1.3144-.3139.363-.2126.6294-.4431.7995-.6916l-.6131-.51c-.1537.1994-.3564.3711-.6081.5149-.2485.1439-.5461.2158-.8927.2158-.5623 0-.9776-.1863-1.2457-.5591-.2681-.3727-.4022-.8288-.4022-1.3683v-.157c0-.5395.1275-.9939.3826-1.3634.255-.3695.6294-.5542 1.1231-.5542.4708 0 .8125.1373 1.025.412.2126.2746.3188.6163.3188 1.025v.0294h-3.2271v.7651h4.1884v-.4021c0-.8011-.2011-1.4371-.6032-1.9079-.3989-.4708-.9695-.7062-1.7117-.7062-.7389 0-1.334.2517-1.7852.7553-.4512.5035-.6769 1.1525-.6769 1.947v.157zm5.7577 1.0103v.0245c0 .5068.1897.9139.5689 1.2212.3793.3041.9319.4562 1.6577.4562.7259 0 1.2703-.1504 1.6332-.4512.3662-.3009.5493-.685.5493-1.1526 0-.4708-.1585-.8338-.4757-1.0888-.3139-.255-.77-.4463-1.3683-.5738-.5984-.1275-.9907-.2485-1.1771-.363-.1831-.1177-.2747-.2779-.2747-.4806 0-.1962.0867-.3613.26-.4953.1733-.1341.4528-.2011.8386-.2011.3859 0 .6703.0752.8534.2256.1831.1471.2747.3482.2747.6032v.0295h.9465v-.0246c0-.4806-.188-.8664-.564-1.1574-.376-.2943-.8795-.4414-1.5106-.4414-.6245 0-1.1215.1438-1.4909.4316-.3662.2877-.5493.649-.5493 1.0839 0 .4348.1618.7765.4855 1.025.327.2485.788.4365 1.3831.564.5983.1275.9841.2534 1.1574.3777.1733.1242.26.3024.26.5345 0 .2289-.1096.4169-.3286.5641-.2158.1471-.5166.2207-.9025.2207-.3825 0-.6915-.0769-.9269-.2306-.2321-.1536-.3482-.3792-.3482-.6768v-.0245h-.9515zm5.0073-2.9819h3.0947v-.7406h-3.0947v.7406zm.9711 3.2222c0 .5036.1177.873.3531 1.1084.2354.2355.5493.3532.9417.3532.17 0 .3253-.0147.4659-.0442.1406-.0294.2567-.0637.3482-.103v-.7847c-.0981.0327-.1929.0589-.2845.0785a1.33089 1.33089 0 01-.2795.0294c-.206 0-.3564-.049-.4512-.1471s-.1423-.2616-.1423-.4905v-5.1203h-.9514v5.1203zm3.3446 1.3144h.9515V22.208h-.9515v5.2772zm-.098-6.8123c0 .1569.049.2894.1471.3973s.2403.1618.4267.1618c.1863 0 .3286-.0539.4267-.1618.0981-.1079.1471-.2404.1471-.3973 0-.1569-.049-.2877-.1471-.3924-.0981-.1079-.2404-.1618-.4267-.1618-.1864 0-.3286.0539-.4267.1618-.0981.1047-.1471.2355-.1471.3924zm2.7463 6.8123h.9514v-3.693c.1341-.2583.3188-.4676.5542-.6278.2355-.1635.5085-.2452.8191-.2452.3629 0 .6425.0931.8387.2795.1994.1831.2991.4905.2991.9221v3.3644h.9564v-3.3546c0-.7292-.1635-1.2474-.4904-1.5548-.327-.3106-.7651-.4659-1.3144-.4659-.3499 0-.6671.0687-.9515.206-.2845.1373-.5281.3319-.7308.5836h-.0245l-.0441-.6915h-.8632v5.2772zm5.7429-1.5547c0 .5362.1798.9466.5395 1.231.3629.2812.8011.4218 1.3144.4218.4545 0 .8256-.0834 1.1133-.2501.291-.1668.5019-.3597.6327-.5787.0098.134.0327.2681.0687.4021.0392.1341.0833.2436.1324.3286h.922v-.0784c-.0621-.1439-.1111-.309-.1471-.4954-.0327-.1896-.049-.3907-.049-.6032v-2.4719c0-.5885-.1815-1.0316-.5444-1.3291-.3597-.2976-.8681-.4463-1.5253-.4463-.6572 0-1.1787.1586-1.5646.4757-.3858.3139-.5787.6801-.5787 1.0986v.0245h.9515v-.0245c0-.2158.0899-.4054.2697-.5689.1798-.1635.479-.2452.8975-.2452.4186 0 .7145.0948.8877.2844.1733.1864.26.43.26.7308v.3973h-1.2507c-.6735 0-1.231.1487-1.6724.4463-.4381.2975-.6572.7144-.6572 1.2506zm.9515-.049c0-.2943.1242-.5281.3727-.7014.2518-.1765.6213-.2648 1.1084-.2648h1.1477v.7406c0 .2779-.1553.5427-.4659.7945-.3107.2485-.6589.3727-1.0447.3727-.3825 0-.6654-.0834-.8485-.2501-.1798-.1668-.2697-.3973-.2697-.6915zm4.4972-2.9329h3.0947v-.7406h-3.0947v.7406zm.9711 3.2222c0 .5036.1177.873.3531 1.1084.2354.2355.5493.3532.9417.3532.17 0 .3253-.0147.4659-.0442.1406-.0294.2567-.0637.3482-.103v-.7847c-.0981.0327-.1929.0589-.2844.0785a1.33253 1.33253 0 01-.2796.0294c-.206 0-.3564-.049-.4512-.1471s-.1422-.2616-.1422-.4905v-5.1203h-.9515v5.1203zm3.3446 1.3144h.9515V22.208h-.9515v5.2772zm-.098-6.8123c0 .1569.049.2894.1471.3973s.2403.1618.4267.1618.3286-.0539.4267-.1618c.0981-.1079.1471-.2404.1471-.3973 0-.1569-.049-.2877-.1471-.3924-.0981-.1079-.2403-.1618-.4267-.1618s-.3286.0539-.4267.1618c-.0981.1047-.1471.2355-.1471.3924zm2.4373 4.2473c0 .7978.2321 1.4501.6964 1.9569.4676.5035 1.0905.7553 1.8686.7553.7815 0 1.4043-.2518 1.8686-.7553.4676-.5068.7014-1.1591.7014-1.9569v-.157c0-.7945-.2338-1.4435-.7014-1.947-.4643-.5036-1.0871-.7553-1.8686-.7553-.7781 0-1.401.2517-1.8686.7553-.4643.5035-.6964 1.1525-.6964 1.947v.157zm.976-.157c0-.5329.1324-.9841.3972-1.3536.2682-.3727.6654-.5591 1.1918-.5591.5297 0 .927.1864 1.1918.5591.2681.3695.4022.8207.4022 1.3536v.157c0 .5395-.1341.9956-.4022 1.3683-.2648.3695-.6621.5542-1.1918.5542-.5264 0-.9236-.1847-1.1918-.5542-.2648-.3727-.3972-.8272-.3972-1.3634v-.1619zm5.5075 2.722h.9515v-3.693c.134-.2583.3188-.4676.5542-.6278.2354-.1635.5084-.2452.819-.2452.363 0 .6425.0931.8387.2795.1995.1831.2992.4905.2992.9221v3.3644h.9564v-3.3546c0-.7292-.1635-1.2474-.4905-1.5548-.327-.3106-.7651-.4659-1.3144-.4659-.3498 0-.667.0687-.9515.206-.2844.1373-.528.3319-.7307.5836H78.62l-.0441-.6915h-.8632v5.2772zm5.6939-1.5547v.0245c0 .5068.1897.9139.5689 1.2212.3793.3041.9319.4562 1.6578.4562.7258 0 1.2702-.1504 1.6331-.4512.3662-.3009.5494-.685.5494-1.1526 0-.4708-.1586-.8338-.4758-1.0888-.3139-.255-.77-.4463-1.3683-.5738-.5984-.1275-.9907-.2485-1.1771-.363-.1831-.1177-.2747-.2779-.2747-.4806 0-.1962.0867-.3613.26-.4953.1733-.1341.4528-.2011.8386-.2011.3859 0 .6703.0752.8534.2256.1831.1471.2747.3482.2747.6032v.0295h.9465v-.0246c0-.4806-.188-.8664-.564-1.1574-.376-.2943-.8795-.4414-1.5106-.4414-.6245 0-1.1214.1438-1.4909.4316-.3662.2877-.5493.649-.5493 1.0839 0 .4348.1618.7765.4855 1.025.327.2485.788.4365 1.3831.564.5983.1275.9842.2534 1.1574.3777.1733.1242.26.3024.26.5345 0 .2289-.1096.4169-.3286.5641-.2158.1471-.5166.2207-.9024.2207-.3826 0-.6916-.0769-.927-.2306-.2321-.1536-.3482-.3792-.3482-.6768v-.0245h-.9515z"
      fill="#FFCC19"
    />
    <path
      d="M29.7601 40.4867c0-.7925.6424-1.4349 1.4349-1.4349h2.5476c.205 0 .4001.0876.5363.2408l2.4745 2.7838c.1167.1314.1812.301.1812.4767v2.2383c0 .7925-.6424 1.4349-1.4349 1.4349H31.195c-.7925 0-1.4349-.6424-1.4349-1.4349v-4.3047z"
      fill="#51535C"
    />
    <path
      d="M33.3474 39.0518v2.1523c0 .9906.803 1.7937 1.7936 1.7937h1.7936v-.4447a.7191.7191 0 00-.0538-.2728H35.141c-.5944 0-1.0762-.4818-1.0762-1.0762v-2.0759a.7172.7172 0 00-.3222-.0764h-.3952z"
      fill="#232429"
    />
    <path
      d="M40.5219 48.1794h5.0222v-.8435h-5.0222v.8435zm5.2231 0h5.0222v-.8435H45.745v.8435zm5.9931-2.0402h.9514v-5.2773h-.9514v5.2773zm-.0981-6.8124c0 .157.049.2894.1471.3973s.2403.1618.4267.1618.3286-.0539.4267-.1618c.0981-.1079.1471-.2403.1471-.3973 0-.1569-.049-.2877-.1471-.3923-.0981-.1079-.2403-.1619-.4267-.1619s-.3286.054-.4267.1619c-.0981.1046-.1471.2354-.1471.3923zm2.7463 6.8124h.9515v-3.6931c.134-.2583.3188-.4676.5542-.6278.2354-.1635.5084-.2452.819-.2452.3629 0 .6425.0932.8387.2795.1994.1831.2992.4905.2992.9221v3.3645h.9563v-3.3547c0-.7291-.1635-1.2474-.4904-1.5547-.327-.3106-.7651-.466-1.3144-.466-.3499 0-.667.0687-.9515.206-.2844.1374-.528.3319-.7308.5837h-.0245l-.0441-.6916h-.8632v5.2773zm6.0715 0h.9515v-5.2773h-.9515v5.2773zm-.098-6.8124c0 .157.049.2894.1471.3973s.2403.1618.4267.1618.3286-.0539.4267-.1618c.0981-.1079.1471-.2403.1471-.3973 0-.1569-.049-.2877-.1471-.3923-.0981-.1079-.2403-.1619-.4267-.1619s-.3286.054-.4267.1619c-.0981.1046-.1471.2354-.1471.3923zm2.0204 2.2757h3.0947v-.7406h-3.0947v.7406zm.9711 3.2223c0 .5035.1177.873.3531 1.1084.2354.2354.5493.3531.9417.3531.17 0 .3253-.0147.4659-.0441.1406-.0295.2567-.0638.3482-.103v-.7848c-.0981.0327-.1929.0589-.2844.0785a1.33253 1.33253 0 01-.2796.0294c-.206 0-.3564-.049-.4512-.1471s-.1422-.2616-.1422-.4904v-5.1203h-.9515v5.1203zm2.5746 3.3546h5.0222v-.8435h-5.0222v.8435zm5.2231 0h5.0222v-.8435H71.149v.8435zm6.0078-2.5748c0 .1798.0572.3318.1717.4561.1144.1242.2779.1864.4904.1864.2126 0 .376-.0622.4905-.1864.1144-.1275.1716-.2796.1716-.4561 0-.1799-.0572-.3319-.1716-.4561-.1145-.1243-.2779-.1864-.4905-.1864-.2158 0-.3809.0637-.4953.1913-.1112.1242-.1668.2746-.1668.4512zm3.0357 2.5748h.9515v-2.6631c.1602.2191.376.394.6474.5248.2713.1308.5983.1961.9809.1961.6866 0 1.2359-.2501 1.6479-.7503.4152-.5036.6228-1.1411.6228-1.9128v-.1569c0-.7684-.2076-1.4027-.6228-1.903-.412-.5002-.9613-.7504-1.6479-.7504-.3826 0-.7177.0769-1.0055.2306-.2877.1536-.5019.3384-.6425.5542h-.0245l-.0441-.6867h-.8632v7.3175zm.9515-3.6342V42.451c.1079-.2322.2828-.4398.5247-.6229.2453-.1831.5428-.2746.8927-.2746.5198 0 .9008.1798 1.1427.5395.2452.3596.3678.801.3678 1.3242v.1569c0 .5297-.1226.9744-.3678 1.334-.2419.3597-.6229.5395-1.1427.5395-.3499 0-.6474-.0915-.8927-.2746-.2419-.1831-.4168-.3924-.5247-.6278zm4.7277 3.6342c.0948.0327.1945.0572.2992.0736.1079.0163.2305.0245.3678.0245.4087 0 .7537-.1275 1.0348-.3825.2845-.2551.5134-.6115.6867-1.0692l2.1972-5.9639h-.9024L88.3583 44.3c-.0458.134-.09.2632-.1325.3874-.0425.1243-.0752.2469-.098.3679h-.0295c-.0261-.121-.0588-.2436-.0981-.3679-.0392-.1242-.0833-.2534-.1324-.3874l-1.2752-3.4381h-.9416l2.0108 5.238v.0049c-.2125.618-.4021.9973-.5689 1.1379-.1635.1406-.3662.2109-.6081.2109-.1014 0-.2077-.0082-.3188-.0246-.1079-.0163-.206-.0376-.2943-.0637v.8141z"
      fill="#AEAEAE"
    />
    <path
      d="M29.7601 59.1405c0-.7925.6424-1.4349 1.4349-1.4349h2.5476c.205 0 .4001.0876.5363.2408l2.4745 2.7838c.1167.1314.1812.301.1812.4767v2.2383c0 .7925-.6424 1.4349-1.4349 1.4349H31.195c-.7925 0-1.4349-.6424-1.4349-1.4349v-4.3047z"
      fill="#fff"
    />
    <path
      d="M33.3474 57.7056v2.1523c0 .9906.803 1.7937 1.7936 1.7937h1.7936v-.4447a.7191.7191 0 00-.0538-.2728H35.141c-.5944 0-1.0762-.4818-1.0762-1.0762V57.782a.7172.7172 0 00-.3222-.0764h-.3952z"
      fill="#000"
    />
    <path
      d="M40.9143 63.2382v.0246c0 .5068.1896.9138.5689 1.2212.3793.3041.9318.4561 1.6577.4561s1.2703-.1504 1.6332-.4512c.3662-.3008.5493-.685.5493-1.1526 0-.4708-.1586-.8337-.4757-1.0888-.3139-.255-.77-.4463-1.3684-.5738-.5983-.1275-.9907-.2485-1.1771-.3629-.1831-.1177-.2746-.2779-.2746-.4807 0-.1961.0866-.3612.2599-.4953s.4529-.2011.8387-.2011.6703.0752.8534.2256c.1831.1472.2746.3482.2746.6033v.0294h.9466v-.0245c0-.4807-.188-.8665-.564-1.1575-.376-.2943-.8796-.4414-1.5106-.4414-.6245 0-1.1215.1439-1.491.4316-.3662.2877-.5493.649-.5493 1.0839 0 .4349.1619.7765.4856 1.025.3269.2485.788.4365 1.383.564.5984.1276.9842.2534 1.1575.3777.1733.1242.2599.3024.2599.5346 0 .2289-.1095.4169-.3286.564-.2158.1471-.5166.2207-.9024.2207-.3825 0-.6915-.0768-.9269-.2305-.2322-.1537-.3483-.3793-.3483-.6768v-.0246h-.9514zm5.3555-.3236c0 .5918.2256 1.0773.6768 1.4566.4512.3793 1.043.5689 1.7754.5689.7161 0 1.3079-.188 1.7754-.564.4676-.3793.7014-.8975.7014-1.5547 0-.4545-.1275-.8354-.3826-1.1428-.255-.3106-.5951-.5182-1.0201-.6228v-.0197c.3923-.1667.6801-.3989.8632-.6964.1863-.2975.2795-.6098.2795-.9368 0-.5558-.2076-1.0103-.6228-1.3634-.412-.3564-.9433-.5346-1.594-.5346-.6605 0-1.2016.1864-1.6234.5591-.4185.3728-.6277.8223-.6277 1.3488v.049h.9563v-.0441c0-.3532.1194-.6229.3581-.8093.2419-.1896.5542-.2844.9367-.2844.376 0 .6752.0948.8975.2844.2224.1864.3335.4708.3335.8534 0 .3825-.1291.6801-.3874.8926-.2551.2125-.618.3188-1.0888.3188h-.5542v.7994h.6081c.5101 0 .9155.1128 1.2163.3384.3041.2257.4562.5608.4562 1.0055 0 .4479-.1357.7781-.4071.9907-.2681.2092-.6278.3139-1.079.3139-.4479 0-.8092-.1047-1.0839-.3139-.2714-.2126-.4071-.5101-.4071-.8926v-.0491h-.9563v.0491zm6.4246 1.3438c0 .1798.0573.3319.1717.4561.1144.1242.2779.1864.4904.1864.2126 0 .3761-.0622.4905-.1864.1144-.1275.1717-.2796.1717-.4561 0-.1799-.0573-.3319-.1717-.4561-.1144-.1243-.2779-.1864-.4905-.1864-.2157 0-.3809.0638-.4953.1913-.1112.1242-.1668.2746-.1668.4512zm3.0357 2.5748h.9515v-2.6631c.1602.2191.376.394.6474.5248.2714.1308.5983.1962.9809.1962.6866 0 1.2359-.2502 1.6479-.7504.4152-.5036.6229-1.1411.6229-1.9128v-.1569c0-.7684-.2077-1.4027-.6229-1.903-.412-.5002-.9613-.7503-1.6479-.7503-.3826 0-.7177.0768-1.0054.2305-.2878.1536-.5019.3384-.6425.5542h-.0246l-.0441-.6867h-.8632v7.3175zm.9515-3.6342v-2.0942c.1079-.2321.2828-.4398.5248-.6229.2452-.1831.5427-.2746.8926-.2746.5199 0 .9008.1798 1.1427.5395.2453.3596.3679.801.3679 1.3242v.1569c0 .5297-.1226.9744-.3679 1.334-.2419.3597-.6228.5395-1.1427.5395-.3499 0-.6474-.0915-.8926-.2746-.242-.1831-.4169-.3924-.5248-.6278zm4.7277 3.6342c.0948.0327.1946.0573.2992.0736.1079.0163.2305.0245.3678.0245.4087 0 .7537-.1275 1.0349-.3825.2844-.2551.5133-.6115.6866-1.0692l2.1972-5.9639h-.9024l-1.1967 3.4381c-.0458.134-.0899.2632-.1324.3874-.0425.1243-.0752.2469-.0981.3679h-.0295c-.0261-.121-.0588-.2436-.098-.3679-.0393-.1242-.0834-.2534-.1325-.3874l-1.2751-3.4381h-.9417l2.0108 5.238v.0049c-.2125.618-.4021.9973-.5689 1.1379-.1635.1406-.3662.2109-.6081.2109-.1014 0-.2076-.0082-.3188-.0246-.1079-.0163-.206-.0376-.2943-.0637v.8141z"
      fill="#fff"
    />
    <path
      d="M9.76747 82.099c.27613.4783.96653.4783 1.24263 0l1.864-3.2285c.2762-.4783-.069-1.0762-.6213-1.0762h-3.728c-.5523 0-.89748.5979-.62133 1.0762l1.864 3.2285z"
      fill="#787A85"
    />
    <rect
      x="17.5634"
      y="75.642"
      width="8.60947"
      height="8.60947"
      rx="2.15237"
      fill="#4776FF"
    />
    <path
      d="M29.435 81.8921v.0245c0 .5068.1896.9138.5689 1.2212.3793.3041.9318.4561 1.6577.4561s1.2703-.1504 1.6332-.4512c.3662-.3008.5493-.685.5493-1.1526 0-.4708-.1586-.8337-.4757-1.0887-.3139-.2551-.77-.4464-1.3684-.5739-.5983-.1275-.9907-.2485-1.1771-.3629-.1831-.1177-.2746-.2779-.2746-.4806 0-.1962.0866-.3613.2599-.4954s.4529-.2011.8387-.2011.6703.0752.8534.2256c.1831.1472.2746.3482.2746.6033v.0294h.9466v-.0245c0-.4807-.188-.8665-.564-1.1575-.376-.2942-.8796-.4414-1.5106-.4414-.6245 0-1.1215.1439-1.491.4316-.3662.2877-.5493.649-.5493 1.0839 0 .4349.1619.7765.4856 1.025.3269.2485.7879.4365 1.383.5641.5984.1275.9842.2534 1.1575.3776.1733.1242.2599.3024.2599.5346 0 .2289-.1095.4169-.3286.564-.2158.1471-.5166.2207-.9024.2207-.3826 0-.6915-.0768-.927-.2305-.2321-.1537-.3482-.3793-.3482-.6768v-.0245h-.9514zm5.4241-1.0104c0 .7978.2322 1.4501.6965 1.9569.4675.5035 1.0904.7553 1.8686.7553.7814 0 1.4043-.2518 1.8686-.7553.4675-.5068.7013-1.1591.7013-1.9569v-.1569c0-.7945-.2338-1.4436-.7013-1.9471-.4643-.5035-1.0872-.7553-1.8686-.7553-.7782 0-1.4011.2518-1.8686.7553-.4643.5035-.6965 1.1526-.6965 1.9471v.1569zm.976-.1569c0-.533.1324-.9842.3973-1.3536.2681-.3728.6654-.5592 1.1918-.5592.5296 0 .9269.1864 1.1918.5592.2681.3694.4021.8206.4021 1.3536v.1569c0 .5395-.134.9956-.4021 1.3684-.2649.3695-.6622.5542-1.1918.5542-.5264 0-.9237-.1847-1.1918-.5542-.2649-.3728-.3973-.8272-.3973-1.3635v-.1618zm5.4585.7945c0 .7291.1619 1.249.4855 1.5596.327.3107.7651.466 1.3145.466.3498 0 .667-.0687.9514-.206.2877-.1406.533-.3368.7357-.5886h.0245l.0393.6965h.868v-5.2772h-.9563v3.693c-.1341.2551-.3188.4643-.5542.6278-.2355.1635-.5068.2452-.8142.2452-.3662 0-.649-.0932-.8485-.2795-.1961-.1864-.2942-.4954-.2942-.927v-3.3595h-.9515v3.3497zm6.0765 1.9275h.9514v-3.6735c.1079-.2354.2698-.4316.4856-.5885.219-.157.4855-.2354.7994-.2354.0916 0 .1733.0032.2452.0098.0752.0065.1472.0163.2158.0294v-.8975c-.0327-.0131-.0899-.0278-.1716-.0442-.0818-.0163-.1602-.0245-.2354-.0245-.3139 0-.5837.0834-.8093.2501-.2256.1635-.4087.3564-.5493.5788h-.0245l-.0441-.6817h-.8632v5.2772zm3.3642-2.5651c0 .7978.2224 1.4501.667 1.9569.448.5035 1.0643.7553 1.849.7553.7259 0 1.2768-.188 1.6528-.564.3761-.3793.5641-.8027.5641-1.2703v-.0245h-.9221v.0245c0 .2747-.103.5183-.309.7308-.2059.2093-.5345.3139-.9858.3139-.5296 0-.9187-.1847-1.1672-.5542-.2485-.3728-.3728-.8272-.3728-1.3635v-.1618c0-.5362.1243-.9891.3728-1.3586.2485-.3727.6376-.5591 1.1672-.5591.4545 0 .7831.1063.9858.3188.206.2093.309.4529.309.7308v.0245h.9221v-.0245c0-.4676-.188-.8893-.5641-1.2654-.376-.3792-.9269-.5689-1.6528-.5689-.7814 0-1.3961.2518-1.844.7553-.448.5035-.672 1.1526-.672 1.9471v.1569zm5.7136 0c0 .7978.2239 1.4501.6719 1.9569.4512.5035 1.0986.7553 1.9422.7553.5166 0 .9547-.1046 1.3144-.3139.3629-.2125.6294-.443.7994-.6915l-.6131-.5101c-.1536.1995-.3564.3711-.6081.515-.2485.1439-.5461.2158-.8926.2158-.5624 0-.9777-.1864-1.2458-.5591-.2681-.3728-.4022-.8289-.4022-1.3684v-.1569c0-.5395.1276-.994.3826-1.3635.255-.3694.6294-.5542 1.1231-.5542.4709 0 .8125.1374 1.0251.412.2125.2747.3188.6163.3188 1.0251v.0294h-3.2272v.7651h4.1884v-.4022c0-.8011-.2011-1.437-.6032-1.9078-.3989-.4709-.9695-.7063-1.7117-.7063-.7389 0-1.334.2518-1.7852.7553-.4512.5035-.6768 1.1526-.6768 1.9471v.1569zm5.7576 1.0104v.0245c0 .5068.1897.9138.5689 1.2212.3793.3041.9319.4561 1.6578.4561.7258 0 1.2702-.1504 1.6332-.4512.3662-.3008.5493-.685.5493-1.1526 0-.4708-.1586-.8337-.4758-1.0887-.3139-.2551-.77-.4464-1.3683-.5739-.5984-.1275-.9907-.2485-1.1771-.3629-.1831-.1177-.2747-.2779-.2747-.4806 0-.1962.0867-.3613.26-.4954s.4528-.2011.8387-.2011c.3858 0 .6702.0752.8533.2256.1831.1472.2747.3482.2747.6033v.0294h.9465v-.0245c0-.4807-.188-.8665-.564-1.1575-.376-.2942-.8795-.4414-1.5105-.4414-.6246 0-1.1215.1439-1.491.4316-.3662.2877-.5493.649-.5493 1.0839 0 .4349.1618.7765.4855 1.025.327.2485.788.4365 1.3831.5641.5983.1275.9842.2534 1.1575.3776.1732.1242.2599.3024.2599.5346 0 .2289-.1095.4169-.3286.564-.2158.1471-.5166.2207-.9024.2207-.3826 0-.6916-.0768-.927-.2305-.2321-.1537-.3482-.3793-.3482-.6768v-.0245h-.9515z"
      fill="#4776FF"
    />
  </g>
  <defs>
    <clipPath id="clip0_6847_227931">
      <path fill="#fff" d="M0 0h100v100H0z" />
    </clipPath>
  </defs>
</svg>