<svg
  width="100"
  height="100"
  viewBox="0 0 100 100"
  fill="none"
  xmlns="http://www.w3.org/2000/svg"
>
  <path
    fill-rule="evenodd"
    clip-rule="evenodd"
    d="M78.6086 80.5264L51.0992 18.5453c-.3135-.7064-1.0972-.7064-1.4107-.0001L22.1791 80.5264c-.3135.7063.0784 1.5893.7054 1.5893h55.0187c.627 0 1.0189-.883.7054-1.5893zM52.5099 17.4857c-.9404-2.119-3.2917-2.119-4.2322 0L20.7684 79.4669c-.9405 2.119.2351 4.7678 2.1161 4.7678h55.0187c1.881 0 3.0566-2.6488 2.1161-4.7678L52.5099 17.4857z"
    fill="#3A4550"
  />
  <path
    fill-rule="evenodd"
    clip-rule="evenodd"
    d="M22.1835 19.6076l27.5093 61.9812c.3135.7063 1.0973.7063 1.4108 0l27.5093-61.9812c.3135-.7063-.0783-1.5892-.7053-1.5892H22.8888c-.627 0-1.0188.8829-.7053 1.5892zm26.0986 63.0407c.9405 2.119 3.2917 2.119 4.2322 0l27.5094-61.9812c.9405-2.119-.2351-4.7677-2.1161-4.7677H22.8888c-1.8809 0-3.0566 2.6487-2.1161 4.7677l27.5094 61.9812z"
    fill="#3A4550"
  />
  <path
    fill-rule="evenodd"
    clip-rule="evenodd"
    d="M77.1045 17.4018L22.3403 49.0199c-.624.3603-.624 1.2611 0 1.6215l54.7642 31.6181c.6241.3603 1.4042-.0901 1.4042-.8108V18.2125c0-.7206-.7801-1.171-1.4042-.8107zM21.4042 47.3985c-1.8723 1.0809-1.8723 3.7833 0 4.8643l54.7642 31.6181c1.8723 1.081 4.2126-.2702 4.2126-2.4322V18.2125c0-2.1619-2.3403-3.5131-4.2126-2.4321L21.4042 47.3985z"
    fill="#7D55EC"
  />
  <path
    fill-rule="evenodd"
    clip-rule="evenodd"
    d="M23.2786 82.2616l54.7642-31.6181c.6241-.3603.6241-1.2611 0-1.6214L23.2787 17.404c-.6241-.3603-1.4043.0901-1.4043.8107v63.2362c0 .7207.7802 1.1711 1.4042.8107zM78.979 52.265c1.8722-1.081 1.8722-3.7834 0-4.8643L24.2148 15.7825c-1.8723-1.0809-4.2126.2703-4.2126 2.4322v63.2362c0 2.1619 2.3403 3.5132 4.2126 2.4322L78.979 52.265z"
    fill="#2AB2FE"
  />
</svg>