<svg width="22" height="22" viewBox="0 0 22 22" fill="none" xmlns="http://www.w3.org/2000/svg">
<path d="M7.62226 16.3472L6.55998 19.8305C6.43946 20.2257 6.73511 20.6249 7.14827 20.6249H14.1841C14.5973 20.6249 14.893 20.2257 14.7724 19.8305L13.7102 16.3472" fill="#6E7600"/>
<rect x="2.90162" y="10.5879" width="15.5297" height="4.71848" fill="#CEF300"/>
<path d="M2.40509 4.51301C2.40509 4.03269 2.79447 3.64331 3.27479 3.64331H18.0597C18.54 3.64331 18.9294 4.03269 18.9294 4.51301V14.9494C18.9294 15.4298 18.54 15.8191 18.0597 15.8191H3.27479C2.79447 15.8191 2.40509 15.4298 2.40509 14.9494V4.51301Z" stroke="#F1FFA5" stroke-width="1.30455" stroke-linecap="round" stroke-linejoin="round"/>
<path d="M10.6666 14.1648C11.3359 14.1648 11.8785 13.6222 11.8785 12.9529C11.8785 12.2836 11.3359 11.741 10.6666 11.741C9.99726 11.741 9.45468 12.2836 9.45468 12.9529C9.45468 13.6222 9.99726 14.1648 10.6666 14.1648Z" fill="#6E7600"/>
</svg>
