<?xml version="1.0" encoding="UTF-8"?> <svg xmlns="http://www.w3.org/2000/svg" width="99" height="99" viewBox="0 0 99 99" fill="none"> <path d="M43.7148 56.528L58.9858 48.427L43.7148 40.49V56.528Z" fill="white"></path> <path d="M49.312 0C22.078 0 0 22.078 0 49.312C0 76.546 22.078 98.624 49.312 98.624C76.546 98.624 98.624 76.546 98.624 49.312C98.624 22.078 76.546 0 49.312 0ZM76.845 60.797C76.188 64.957 74.177 67.216 69.948 67.694C65.222 68.228 54.596 68.474 49.873 68.474C44.986 68.474 35.102 68.269 30.168 67.858C25.927 67.505 23.033 65.136 22.45 60.92C22.026 57.85 21.752 54.201 21.752 48.399C21.752 41.94 21.985 39.207 22.532 36.289C23.313 32.125 25.301 30.108 29.839 29.639C34.601 29.146 39.103 28.9 49.175 28.9C54.099 28.9 64.715 29.155 69.619 29.598C73.902 29.985 76.315 32.605 76.844 36.782C77.213 39.697 77.542 43.87 77.542 48.359C77.543 56.24 76.845 60.797 76.845 60.797Z" fill="white"></path> </svg> 