<svg width="40" height="40" fill="none" xmlns="http://www.w3.org/2000/svg"><g clip-path="url(#a)"><rect width="40" height="40" rx="10" fill="#F7F7F8"/><circle cx="19.8" cy="19.56" r="14.56" fill="#0882FF"/><path d="M11.92 7.12c1.2.03 6.35.96 4.38 3.5-.76.97-2.87 2.53-2.87 3.78 0 .5-.24 1.8.16 2.12a6.12 6.12 0 011.36 1.66c.88 1.54 2.94.13 4.1 1.55.53.64.5 1.46.45 2.25-.04.75-1.13.97-1.45 1.52-.84 1.44-.74 2.51-.39 4.1.75 3.35-3.63 2.92-4.53 5.6M4 16.5c.24 1.36 2.87.66 3.5 2.5.24.71 0 1.54 0 2.5 0 .7.33 2.6.63 3.5a2.6 2.6 0 01-1.06 3M28 6.21c-2.03.86-2.42 3.05-2.11 5.16.2 1.42 1.07 1.5 2.1 2.05 2.03 1.08 0 3.08.3 4.15C29 20 28 20.5 26.64 21.2c-1.22.63-2.2.34-2.28 1.68a5.3 5.3 0 001.06 3.93c.52.69 2.95.88 3.8.93 1.78.1 1.83.65 2.42 2.12" stroke="#F7F7F8" stroke-width=".5" stroke-linecap="round"/><g filter="url(#b)"><rect x="2" y="6.21" width="16.98" height="7.89" rx="3" fill="#fff"/></g><g filter="url(#c)"><rect x="21.02" y="26.23" width="16.98" height="7.89" rx="3" fill="#fff"/></g><path d="M31.71 28.71c.24.17 2.18 1.32 2.44 1.46l.18.1c-.05.06-.22.1-.29.13-.33.17-2.05.92-2.33 1.17m-4.85-2.86A85.44 85.44 0 0124 30.27c.06.06.24.1.32.13.36.17 2.23.92 2.54 1.17m3.1-3.57c-.03.47-.21.88-.35 1.32-.21.67-.4 1.37-.64 2.02-.1.26-.2.5-.28.76-.03.07-.05.15-.12.19M12.71 8.71a65.9 65.9 0 002.44 1.46l.18.1c-.05.06-.22.1-.29.13-.33.17-2.05.92-2.33 1.17M7.86 8.71c-.26.17-2.38 1.32-2.66 1.46l-.2.1c.06.06.24.1.32.13.36.17 2.23.92 2.54 1.17M10.96 8c-.03.47-.21.88-.35 1.32-.21.67-.4 1.37-.64 2.02-.1.26-.2.5-.28.76-.03.08-.05.15-.12.19" stroke="#000" stroke-width=".5" stroke-linecap="round"/></g><defs><filter id="b" x="-480" y="-402.79" width="980.98" height="971.88" filterUnits="userSpaceOnUse" color-interpolation-filters="sRGB"><feFlood flood-opacity="0" result="BackgroundImageFix"/><feColorMatrix in="SourceAlpha" values="0 0 0 0 0 0 0 0 0 0 0 0 0 0 0 0 0 0 127 0" result="hardAlpha"/><feOffset dy="35.3"/><feGaussianBlur stdDeviation="7.05"/><feColorMatrix values="0 0 0 0 0 0 0 0 0 0 0 0 0 0 0 0 0 0 0.01 0"/><feBlend in2="BackgroundImageFix" result="effect1_dropShadow_2611_885"/><feColorMatrix in="SourceAlpha" values="0 0 0 0 0 0 0 0 0 0 0 0 0 0 0 0 0 0 127 0" result="hardAlpha"/><feOffset dy="52.32"/><feGaussianBlur stdDeviation="19.55"/><feColorMatrix values="0 0 0 0 0 0 0 0 0 0 0 0 0 0 0 0 0 0 0.01 0"/><feBlend in2="effect1_dropShadow_2611_885" result="effect2_dropShadow_2611_885"/><feColorMatrix in="SourceAlpha" values="0 0 0 0 0 0 0 0 0 0 0 0 0 0 0 0 0 0 127 0" result="hardAlpha"/><feOffset dy="62.65"/><feGaussianBlur stdDeviation="48.27"/><feColorMatrix values="0 0 0 0 0 0 0 0 0 0 0 0 0 0 0 0 0 0 0.01 0"/><feBlend in2="effect2_dropShadow_2611_885" result="effect3_dropShadow_2611_885"/><feColorMatrix in="SourceAlpha" values="0 0 0 0 0 0 0 0 0 0 0 0 0 0 0 0 0 0 127 0" result="hardAlpha"/><feOffset dy="73"/><feGaussianBlur stdDeviation="241"/><feColorMatrix values="0 0 0 0 0 0 0 0 0 0 0 0 0 0 0 0 0 0 0.06 0"/><feBlend in2="effect3_dropShadow_2611_885" result="effect4_dropShadow_2611_885"/><feBlend in="SourceGraphic" in2="effect4_dropShadow_2611_885" result="shape"/></filter><filter id="c" x="-10.98" y="2.23" width="80.98" height="71.89" filterUnits="userSpaceOnUse" color-interpolation-filters="sRGB"><feFlood flood-opacity="0" result="BackgroundImageFix"/><feColorMatrix in="SourceAlpha" values="0 0 0 0 0 0 0 0 0 0 0 0 0 0 0 0 0 0 127 0" result="hardAlpha"/><feOffset dy="8"/><feGaussianBlur stdDeviation="16"/><feColorMatrix values="0 0 0 0 0.14 0 0 0 0 0.14 0 0 0 0 0.14 0 0 0 0.04 0"/><feBlend in2="BackgroundImageFix" result="effect1_dropShadow_2611_885"/><feBlend in="SourceGraphic" in2="effect1_dropShadow_2611_885" result="shape"/></filter><clipPath id="a"><rect width="40" height="40" rx="10" fill="#fff"/></clipPath></defs></svg>