<svg width="40" height="40" fill="none" xmlns="http://www.w3.org/2000/svg"><rect width="40" height="40" rx="10" fill="#F7F7F8"/><path d="M7.93 8a1 1 0 011-1H32a1 1 0 011 1v23a3 3 0 01-3 3H8.93a1 1 0 01-1-1V8z" fill="#0882FF"/><path d="M6 28.24a1 1 0 011-1h21.07a3 3 0 013 3V31a3 3 0 01-3 3H9a3 3 0 01-3-3v-2.76z" fill="#0882FF"/><path d="M24.71 11.71c.24.17 2.18 1.32 2.44 1.46l.18.1c-.05.06-.22.1-.29.13-.33.17-2.05.92-2.33 1.17m-8.86-2.86A84.94 84.94 0 0113 13.27c.05.06.24.1.31.13.37.17 2.24.92 2.54 1.17m5.1-3.57c-.02.47-.2.88-.35 1.32-.2.67-.39 1.37-.63 2.02l-.29.76c-.02.08-.04.15-.11.19" stroke="#fff" stroke-width=".5" stroke-linecap="round"/><path d="M4.5 27c4.8 0 13.11-.02 17.89.35 1.42.11 2.8.3 4.23.3.67 0 1.31-.09 1.98-.09.46 0 .77-.19.77.2v1.4c0 3.47 1.13 3.47 1.63 3.84" stroke="#F7F7F8" stroke-width=".5" stroke-linecap="round"/><path d="M13 19.38c3.3-.5 6.76.02 10.09-.2.8-.04 1.65-.18 2.44-.18H28m-15 3.38c3.3-.5 6.76.02 10.09-.2.8-.04 1.65-.18 2.44-.18H28" stroke="#fff" stroke-width=".5" stroke-linecap="round"/></svg>