<svg width="40" height="40" fill="none" xmlns="http://www.w3.org/2000/svg"><g clip-path="url(#a)"><rect width="40" height="40" rx="10" fill="#F7F7F8"/><circle cx="19.8" cy="19.56" r="14.56" fill="#0882FF"/><path d="M19.75 14.88v4.65c0 .51-.02 1.03 0 1.54 0 .33.86.06 1.1.05 1.05 0 2.07.13 3.1.13M19.5 6.75V8m11.25 12.25h1.75m-25.75 0H8m12.75 10v1.25m-10-20c.3.23.6.48.88.75m16.62-.5c.34-.26.69-.5.88-.88M11.5 28.63c.17-.42.49-.6.63-.88m16-.5c.26.2.6.33.75.63" stroke="#fff" stroke-width=".5" stroke-linecap="round"/><g filter="url(#b)"><rect x="22" y="25" width="16" height="8" rx="3" fill="#fff"/></g><path d="M32.71 27.71c.24.17 2.18 1.32 2.44 1.46l.18.1c-.05.06-.22.1-.29.13-.33.17-2.05.92-2.33 1.17m-4.85-2.86A85.44 85.44 0 0125 29.27c.06.06.24.1.32.13.36.17 2.23.92 2.54 1.17m3.1-3.57c-.03.47-.21.88-.35 1.32-.21.67-.4 1.37-.64 2.02-.1.26-.2.5-.28.76-.03.07-.05.15-.12.19" stroke="#000" stroke-width=".5" stroke-linecap="round"/></g><defs><clipPath id="a"><rect width="40" height="40" rx="10" fill="#fff"/></clipPath><filter id="b" x="-10" y="1" width="80" height="72" filterUnits="userSpaceOnUse" color-interpolation-filters="sRGB"><feFlood flood-opacity="0" result="BackgroundImageFix"/><feColorMatrix in="SourceAlpha" values="0 0 0 0 0 0 0 0 0 0 0 0 0 0 0 0 0 0 127 0" result="hardAlpha"/><feOffset dy="8"/><feGaussianBlur stdDeviation="16"/><feColorMatrix values="0 0 0 0 0.14 0 0 0 0 0.14 0 0 0 0 0.14 0 0 0 0.04 0"/><feBlend in2="BackgroundImageFix" result="effect1_dropShadow_2611_23518"/><feBlend in="SourceGraphic" in2="effect1_dropShadow_2611_23518" result="shape"/></filter></defs></svg>