<svg width="40" height="40" fill="none" xmlns="http://www.w3.org/2000/svg"><rect width="40" height="40" rx="10" fill="#F7F7F8"/><path d="M4 11.44h32v20.1a1 1 0 01-1 1H5a1 1 0 01-1-1v-20.1z" fill="#0882FF"/><path d="M12.43 26.65a50.4 50.4 0 001.88 1.12c-.04.04-.16.06-.21.09-.24.12-1.47.66-1.67.84m-4.24-2.05c-.19.12-1.7.94-1.91 1.04l-.15.08c.05.04.18.06.23.09.26.12 1.6.66 1.83.84m2.61-2.57c-.03.34-.16.64-.26.95-.15.49-.28.98-.46 1.46l-.2.54c-.02.05-.03.1-.08.13" stroke="#fff" stroke-width=".5" stroke-linecap="round"/><path d="M3.75 11.04h0l.28 20.5c0 .7.57 1.24 1.25 1.24H34.8c.25 0 .47-.07.65-.23a.88.88 0 00.27-.63c.14-3.53.52-21 .52-21.1V8.88a2.38 2.38 0 010-.17 4.16 4.16 0 00-.02-.55.44.44 0 00-.08-.15.3.3 0 00-.24-.13c-.12 0-.41.04-.68.06h-.03a7.46 7.46 0 01-1.7 0h.01a7.96 7.96 0 00-1.1-.06c-.76 0-1.53-.02-2.34-.05h-.09c-.84-.03-1.72-.06-2.66-.06v0h-.01a36.52 36.52 0 01-3.16 0c-.77-.02-1.5-.04-2.34 0-.87.04-1.72.06-2.59.08l-1.51.03c-.88.03-1.77.09-2.64.14l-.23.02c-.96.06-1.9.12-2.85.13l-1.79.02a101.34 101.34 0 00-4.56.13 23 23 0 01-1.36.07h-.14a.46.46 0 00-.2.06c-.17.1-.18.3-.18.4v2.2z" stroke="#0882FF" stroke-width=".5" stroke-linecap="round"/><circle r=".53" transform="matrix(1 0 0 -1 5.6 9.6)" fill="#0882FF"/><circle r=".53" transform="matrix(1 0 0 -1 7.73 9.6)" fill="#0882FF"/><circle r=".53" transform="matrix(1 0 0 -1 9.87 9.6)" fill="#0882FF"/><path d="M6.51 19.75s-.38 1.13-.38 1.7c0 .62.37.44.75.13.3-.24.65-.66.83-1 .38-.7-.05.44.19.63.3.26.78-.02 1.02-.27.6-.6.17.27.7.27.16 0 .43-.25.71-.58-.1.81.86.28 1.15.12.23-.13.65-.46.72-.7.13-.5-.33-.37-.55.1-.08.16-.23.37-.21.97.03.81.62.72.86.58.33-.2.53-.33.78-.62.05-.06.32-.66.2-.91-.04-.11-.1-.15-.18-.12-.33.1-.09 1.22.29 1.36.38.14.59-.83 1.28-.66" stroke="#fff" stroke-width=".5" stroke-linecap="round" stroke-linejoin="round"/><path d="M21.86 26.27c-.18-2.83-.47-5.63-.36-8.47l-.07-1.42a.93.93 0 01.93-1c.87-.01 1.75-.01 2.63.02l6.86.27c.74.03 1.07-.02 1.04.84-.03.71.02 1.38.04 2.08.06 1.36.02 2.7.15 4.06.16 1.67.37 3.4.3 5.08-.01.53.16.95-.43.92l-1.04-.04c-.35-.01-.7.11-1.1.1l-3.84-.16c-.58-.02-4.87.34-4.95 0-.17-.68-.1-1.59-.16-2.28z" stroke="#fff" stroke-width=".5" stroke-linecap="round"/><path d="M26.77 19.96c.39.63.2.8.65 1.39.54-1.1 1.15-2.74 2.62-2.68 1.3.05.2 2.11-.03 2.64-.66 1.57-1.89 2.92-2.3 4.6-.18.74-.94-.6-1.08-.89-.35-.7-.93-1.26-1.4-1.88-.3-.42-.88-.96-.95-1.5-.1-.9.27-2.28 1.37-2.28.57 0 .81.08 1.12.6z" fill="#fff"/><path d="M6.66 15.48s-.53 1.13-.53 1.71c0 .62.5.43 1.02.13.42-.25.9-.67 1.15-1 .52-.7-.07.43.26.63.42.25 1.07-.02 1.4-.27.83-.61.24.27.96.27.23 0 .6-.26.99-.59-.14.81 1.17.28 1.57.12.32-.12.9-.46 1-.7.18-.49-.46-.37-.76.1-.11.16-.32.37-.29.97.04.81.86.72 1.18.59.46-.2.72-.34 1.07-.63.07-.06.45-.66.29-.91-.07-.1-.15-.14-.26-.12-.45.1-.12 1.23.4 1.36.52.14.8-.83 1.76-.66" stroke="#fff" stroke-width=".5" stroke-linecap="round" stroke-linejoin="round"/></svg>