<svg width="40" height="40" fill="none" xmlns="http://www.w3.org/2000/svg"><rect width="40" height="40" rx="10" fill="#F7F7F8"/><path d="M13.89 20.9c-1.7 2.28-3.41 3.98-3.41 3.98l5.11 6.25L19 29l.57 1.56 1.7 2.84 6.25-6.25-1.14-2.84.57-3.4 1.14-2.85-.57-2.84-1.7-.56V10.1l-.57-3.97S24.68 5 24.1 5s-1.13 1.14-1.13 1.14L21.84 5l-1.7 1.14h-.57l-1.14 4.54s0-.57-1.13-.57c-1.14 0-1.7 8.52-3.41 10.8z" fill="#0882FF"/><path d="M6.5 28.29s-.88 1.18 2.93-2.36c3.8-3.55 5.4-6.36 6.02-9.28 0 0 .7-6.23 1.85-6.54.84-.23 1.13.57 1.13 1.14" stroke="#0882FF" stroke-width=".5" stroke-linecap="round" stroke-linejoin="round"/><path d="M17.03 16.72c.02-.06 1.23-3.49 1.61-6.57.23-1.87.3-4.78 1.74-4.25" stroke="#F7F7F8" stroke-width=".5" stroke-linecap="round" stroke-linejoin="round"/><path d="M18.7 15.04a18.6 18.6 0 001.45-5.25c.32-2.86-.05-4.77 1.44-4.79.86-.01 1.18.63 1.3 1.17" stroke="#F7F7F8" stroke-width=".5" stroke-linecap="round" stroke-linejoin="round"/><path d="M22.98 6.14c0-.57.57-1.14.9-1.11 1.04.14 1.74 1.34 1.74 3.57 0 2.23.2 6.06.2 6.06m.82.42a.86.86 0 01.48 0c.57.14 1.15 1.01.88 2.95-.2 1.43-1.11 3.13-1.26 4.64-.16 1.51-.5 3.1 1.48 5.39 1.98 2.28 2.72 2.5 2.72 2.5" stroke="#0882FF" stroke-width=".5" stroke-linecap="round" stroke-linejoin="round"/><path d="M21.27 15.07s.67-1.4.6-4.66c-.06-3.25.32-4.4 1.36-4.26 1.04.13 1.35 2.68 1.43 4.86.05 1.4.15 2.81.02 4.21" stroke="#F7F7F8" stroke-width=".5" stroke-linecap="round" stroke-linejoin="round"/><path d="M19 29.42s1.37 2.42 2.22 3.2" stroke="#0882FF" stroke-width=".5" stroke-linecap="round" stroke-linejoin="round"/><path d="M21.27 21.95s1.83-6 4.13-6.79c1.97-.67 1.95 1.67 1.22 2.94-.73 1.26-1.6 4-1.74 4.54-.4 1.47-1.95 3.43-3.04 4.51-1.63 1.65-3.33 1.76-5.03 3.07-1.84 1.4-2.55 1.63-2.92 2.61" stroke="#F7F7F8" stroke-width=".5" stroke-linecap="round" stroke-linejoin="round"/><path d="M9.18 24.22a10.07 10.07 0 00-4.07 3.37.93.93 0 00.28 1.34l9.07 5.86c.37.24.94.17 1.26-.14.36-.36.6-.77.84-1.2l.01-.02c.25-.42.51-.63.29-1.07-.28-.53-.58-1.13-.96-1.6-.62-.79-1.54-1.36-2.27-2.04-1.07-1-1.85-2.3-2.9-3.33-.38-.37-.78-.85-1.25-1.12-.13-.07-.16-.1-.3-.05zm23.22 5.93a10.07 10.07 0 00-2.44-4.7.93.93 0 00-1.37 0l-7.63 7.64c-.32.32-.37.89-.13 1.27.28.42.63.74 1 1.07l.01.01c.37.33.51.64.99.5a8.59 8.59 0 001.77-.6c.9-.44 1.65-1.21 2.47-1.78 1.2-.84 2.63-1.34 3.86-2.14.45-.3 1-.6 1.35-1 .1-.1.15-.13.12-.27z" fill="#0882FF" stroke="#0882FF" stroke-width=".5" stroke-linecap="round"/><path d="M4.8 27.72a21.83 21.83 0 013.43-3.5.9.9 0 01.62-.2c.67.03.89.16 1.49.73.9.86 1.87 1.71 2.7 2.66.73.83 1.31 1.76 2.06 2.58.51.58 1.5 1.28 1.98 2 .17.25.12.56-.04.82l-1.45 2.3m5.83.56c-.57-.6-1.64-1.88-.87-2.68 1.1-1.13 7.3-7.14 8.54-8.11C29.5 24.5 32 27 32.5 29" stroke="#fff" stroke-width=".5" stroke-linecap="round"/></svg>