<svg
  width="100"
  height="100"
  viewBox="0 0 100 100"
  fill="none"
  xmlns="http://www.w3.org/2000/svg"
>
  <g clip-path="url(#clip0_6847_227913)">
    <g clip-path="url(#clip1_6847_227913)">
      <rect
        x="14.5024"
        y="13.8447"
        width="68.4615"
        height="26.6553"
        rx="3.8079"
        fill="#4776FF"
      />
      <path
        fill="#000"
        fill-opacity=".2"
        style="mix-blend-mode:soft-light"
        d="M14.5024 13.8447h28.5593V40.5H14.5024z"
      />
      <path
        d="M19.727 29.1724h1.0486v-5.4813h-.4611l-1.9634.7251v.9036l1.3759-.5466v4.3992zm2.9264-1.8594c0 .5876.1661 1.0636.4983 1.428.3347.3619.8144.5429 1.4391.5429.6198 0 1.0983-.181 1.4354-.5429.3397-.3644.5095-.8404.5095-1.428v-1.6994c0-.5875-.1698-1.0623-.5095-1.4242-.3371-.362-.8156-.543-1.4354-.543-.6247 0-1.1044.181-1.4391.543-.3322.3619-.4983.8367-.4983 1.4242v1.6994zm1.0673.0372v-1.7738c0-.3322.0656-.6074.197-.8255.1314-.2207.3558-.331.6731-.331s.5429.1103.6768.331c.1339.2181.2008.4933.2008.8255v1.7738c0 .3347-.0669.6111-.2008.8293-.1339.2181-.3595.3272-.6768.3272-.3173 0-.5417-.1091-.6731-.3272-.1314-.2182-.197-.4946-.197-.8293zm3.7928 1.8222h1.0115v-2.7779c.0942-.1884.2182-.3421.3719-.4611.1562-.1215.3371-.1822.5429-.1822.238 0 .4214.0707.5504.212.1314.1388.1983.3693.2008.6916v2.5176h1.0114v-2.7779c.0967-.1884.2219-.3421.3756-.4611.1562-.1215.3384-.1822.5467-.1822.2355 0 .4177.0707.5466.212.1289.1388.1946.3693.1971.6916v2.5176h1.0115v-2.5101c0-.5975-.1327-1.0239-.3979-1.2792-.2653-.2579-.621-.3868-1.0673-.3868-.2851 0-.5479.0583-.7883.1748-.2405.114-.4438.2913-.6099.5318h-.0111c-.1066-.2356-.2678-.4116-.4835-.5281-.2157-.119-.4747-.1785-.7772-.1785-.2528 0-.4859.0496-.6991.1488-.2132.0991-.3917.2429-.5355.4313h-.0186l-.0297-.5057h-.9483v4.1017zm7.3219-1.2569v.0409c0 .3991.1612.7201.4834.9631.3248.2429.7934.3644 1.4057.3644.6198 0 1.0846-.1202 1.3945-.3607.3124-.2405.4685-.5516.4685-.9334 0-.347-.1202-.6222-.3607-.8255-.2404-.2058-.616-.352-1.1267-.4388-.5405-.0917-.8677-.181-.9817-.2678-.1141-.0892-.1711-.2045-.1711-.3458 0-.1363.057-.2491.1711-.3384.1165-.0892.3049-.1339.5652-.1339.2653 0 .4611.0558.5875.1674.129.1091.1934.2578.1934.4462v.0372h1.0078v-.0483c0-.3818-.1624-.6917-.4872-.9297-.3247-.238-.7573-.357-1.2978-.357-.538 0-.9644.1165-1.2792.3496-.3124.2305-.4686.5231-.4686.8776 0 .3322.1215.6011.3645.8069.2454.2058.6235.3533 1.1342.4425.5131.0843.8292.1686.9482.2529.119.0843.1785.2082.1785.3719 0 .1735-.0694.3074-.2082.4016-.1389.0917-.3496.1376-.6322.1376-.2653 0-.4785-.0533-.6396-.1599-.1587-.1091-.2392-.2678-.2417-.476v-.0446h-1.0078z"
        fill="#fff"
      />
      <path
        fill-rule="evenodd"
        clip-rule="evenodd"
        d="M53.9778 24.9771c.1609.1139.199.3368.085.4976l-2.5117 3.5459c-.2309.326-.711.3364-.9557.0207l-1.39-1.793c-.1207-.1559-.0923-.3801.0635-.5009.1558-.1208.38-.0924.5008.0634l1.2916 1.6661 2.4189-3.4149c.1139-.1608.3367-.1989.4976-.0849z"
        fill="#fff"
      />
      <path
        d="M58.5699 27.9511c0 .5163.14.9436.4198 1.282.282.3362.6573.5043 1.1258.5043.2625 0 .4924-.0509.6898-.1529.1974-.1041.3438-.2288.4393-.3742h.0163l.0292.4621h.5857v-4.9979h-.6442v1.8742c-.1107-.1475-.2593-.2647-.4458-.3514-.1844-.089-.4078-.1334-.6703-.1334-.4685 0-.8438.1681-1.1258.5043-.2798.3362-.4198.7625-.4198 1.2788v.1041zm.6606 0v-.1041c0-.3493.0824-.6432.2473-.8818.167-.2408.4284-.3612.7841-.3612.2386 0 .4415.0618.6085.1855.167.1215.2874.2603.3612.4165v1.3893c-.0738.1562-.1942.2961-.3612.4198-.167.1215-.3699.1822-.6085.1822-.3557 0-.6171-.1193-.7841-.3579-.1649-.2408-.2473-.5369-.2473-.8883zm3.5563.68c0 .358.1225.6324.3676.8233.2473.1887.5456.283.8949.283.3123 0 .5672-.0564.7646-.1692.1974-.1128.3406-.2418.4295-.3872.0065.089.0228.179.0488.2701.026.0911.0553.1649.0879.2213h.6247v-.0521c-.0412-.0954-.0738-.205-.0976-.3286-.0217-.1258-.0326-.2593-.0326-.4003v-1.6822c0-.3904-.1236-.6844-.3709-.8818-.2473-.1974-.5944-.2961-1.0412-.2961-.449 0-.8059.1063-1.0705.3189-.2625.2126-.3937.461-.3937.7451v.0163h.6442v-.0163c0-.1453.0618-.2722.1855-.3807.1236-.1106.3286-.1659.615-.1659.2885 0 .4913.0618.6084.1855.1193.1214.179.2798.179.475v.2798h-.8558c-.4598 0-.8395.1009-1.1388.3027-.2994.1995-.449.4793-.449.8394zm.6442-.0325c0-.1974.0857-.3536.2571-.4685.1713-.1172.423-.1758.7549-.1758h.7874v.4914c0 .1844-.1063.3601-.3189.5271-.2126.1649-.4501.2473-.7126.2473-.2624 0-.4566-.0542-.5824-.1627-.1237-.1106-.1855-.2636-.1855-.4588zm3.0552-1.9621h2.1053v-.5076h-2.1053v.5076zm.6606 2.1508c0 .3384.0791.5868.2375.7451.1605.1584.3753.2376.6442.2376.1128 0 .217-.0098.3124-.0293.0955-.0195.1736-.0423.2343-.0683v-.5337c-.0651.0217-.1291.0391-.192.0521-.0607.013-.1236.0195-.1887.0195-.1388 0-.2408-.0325-.3059-.0976-.065-.0651-.0976-.1735-.0976-.3254v-3.384h-.6442V28.7873zm2.0367-.1562c0 .358.1226.6324.3677.8233.2473.1887.5456.283.8948.283.3124 0 .5673-.0564.7647-.1692.1974-.1128.3405-.2418.4295-.3872.0065.089.0227.179.0488.2701.026.0911.0553.1649.0878.2213h.6248v-.0521c-.0413-.0954-.0738-.205-.0977-.3286-.0216-.1258-.0325-.2593-.0325-.4003v-1.6822c0-.3904-.1236-.6844-.3709-.8818-.2473-.1974-.5944-.2961-1.0413-.2961-.449 0-.8058.1063-1.0705.3189-.2624.2126-.3937.461-.3937.7451v.0163h.6443v-.0163c0-.1453.0618-.2722.1855-.3807.1236-.1106.3286-.1659.6149-.1659.2885 0 .4914.0618.6085.1855.1193.1214.179.2798.179.475v.2798h-.8558c-.4599 0-.8395.1009-1.1388.3027-.2994.1995-.4491.4793-.4491.8394zm.6443-.0325c0-.1974.0857-.3536.257-.4685.1714-.1172.423-.1758.7549-.1758h.7875v.4914c0 .1844-.1063.3601-.3189.5271-.2126.1649-.4501.2473-.7126.2473s-.4566-.0542-.5824-.1627c-.1237-.1106-.1855-.2636-.1855-.4588z"
        fill="#fff"
      />
    </g>
    <path
      d="M21.8802 40.5v10.7692"
      stroke="url(#paint0_linear_6847_227913)"
      stroke-width=".95198"
    />
    <g clip-path="url(#clip2_6847_227913)" opacity=".5">
      <rect
        x="14.5024"
        y="51.2693"
        width="67.983"
        height="26.6553"
        rx="3.8079"
        fill="#885EFF"
      />
      <path
        fill="#000"
        fill-opacity=".2"
        style="mix-blend-mode:soft-light"
        d="M14.5024 51.2693h28.5593v26.6553H14.5024z"
      />
      <path
        d="M20.5164 66.5969h4.0273V65.79h-2.6365l1.4949-1.4503c.3074-.295.5503-.5814.7288-.859.181-.2777.2715-.5851.2715-.9222 0-.4165-.1698-.7686-.5095-1.0561-.3371-.2876-.7958-.4314-1.3759-.4314-.5751 0-1.0524.1624-1.4317.4871-.3793.3223-.5689.745-.5689 1.2681v.0372h1.0598v-.0372c.0174-.3173.1103-.5603.2789-.7289.1711-.1685.3892-.2528.6545-.2528.2603 0 .4648.0706.6136.2119.1487.1389.2231.3198.2231.543 0 .2107-.057.4127-.1711.6061-.114.1934-.2876.4041-.5206.6322l-2.1382 2.0899v.6693zm4.9047 0h1.0115v-2.7778c.0942-.1884.2182-.3421.3719-.4611.1562-.1215.3371-.1822.5429-.1822.238 0 .4215.0706.5504.2119.1314.1389.1983.3694.2008.6917v2.5175H29.11v-2.7778c.0967-.1884.2219-.3421.3756-.4611.1562-.1215.3384-.1822.5467-.1822.2355 0 .4177.0706.5466.2119.1289.1389.1946.3694.1971.6917v2.5175h1.0115v-2.5101c0-.5974-.1327-1.0238-.3979-1.2792-.2653-.2578-.621-.3867-1.0673-.3867-.2851 0-.5479.0582-.7883.1747-.2405.1141-.4438.2913-.6099.5318h-.0111c-.1066-.2355-.2678-.4115-.4835-.528-.2156-.119-.4747-.1785-.7772-.1785-.2528 0-.4859.0496-.6991.1487-.2132.0992-.3917.243-.5355.4314h-.0186l-.0297-.5058h-.9483v4.1017zM32.743 65.34v.0409c0 .3992.1612.7202.4835.9632.3247.2429.7933.3644 1.4056.3644.6198 0 1.0846-.1203 1.3945-.3607.3124-.2405.4686-.5516.4686-.9334 0-.3471-.1203-.6223-.3608-.8256-.2404-.2057-.616-.352-1.1267-.4388-.5405-.0917-.8677-.1809-.9817-.2677-.1141-.0892-.1711-.2045-.1711-.3458 0-.1364.057-.2492.1711-.3384.1165-.0893.3049-.1339.5652-.1339.2653 0 .4611.0558.5875.1673.129.1091.1934.2579.1934.4463v.0372h1.0078v-.0484c0-.3818-.1624-.6916-.4872-.9296-.3247-.238-.7573-.357-1.2978-.357-.5379 0-.9644.1165-1.2792.3495-.3124.2306-.4686.5231-.4686.8776 0 .3322.1215.6012.3645.807.2454.2057.6235.3532 1.1342.4425.5131.0843.8292.1686.9482.2529.119.0843.1785.2082.1785.3718 0 .1736-.0694.3074-.2082.4016-.1389.0918-.3496.1376-.6322.1376-.2653 0-.4785-.0533-.6396-.1599-.1587-.1091-.2392-.2677-.2417-.476V65.34H32.743zM49.2552 67.0969h.6442v-2.4534c.0738-.1561.1855-.2874.3352-.3937.1496-.1063.3318-.1594.5466-.1594.0607 0 .1161.0022.1659.0065.0499.0043.0977.0108.1432.0195v-.615c-.0217-.0086-.0607-.0184-.1171-.0292-.0543-.0109-.1063-.0163-.1562-.0163-.2148 0-.4002.0564-.5564.1692-.154.1106-.2788.2397-.3742.3872h-.0163l-.0293-.4588h-.5856v3.5434zm2.271-1.7212c0 .5357.1529.9728.4588 1.3112.3058.3384.7462.5076 1.321.5076.3515 0 .6497-.0694.8948-.2082.2473-.141.4285-.2939.5434-.4588l-.4165-.3514c-.1041.1323-.2418.2462-.4132.3416-.1692.0955-.372.1432-.6085.1432-.3839 0-.6681-.1236-.8525-.3709-.1822-.2495-.2733-.5543-.2733-.9143v-.1042c0-.3601.0868-.6638.2603-.911.1757-.2473.4295-.371.7614-.371.3362 0 .5738.0944.7126.2831.141.1866.2115.4219.2115.7061v-.0098h-2.1996v.5174H54.78v-.2733c0-.538-.1366-.9653-.41-1.282-.2711-.3168-.6605-.4751-1.1681-.4751-.5032 0-.9089.1692-1.2169.5076-.3059.3384-.4588.7744-.4588 1.308v.1042zm4.3242 1.7212h.6475v-3.846c0-.2234.0575-.3905.1725-.5011.1149-.1128.2787-.1692.4913-.1692.0586 0 .116.0033.1724.0098.0586.0065.1128.0141.1627.0228l.0358-.5272c-.0694-.0173-.1421-.0303-.218-.039s-.1497-.013-.2212-.013c-.384 0-.6877.1041-.9111.3123-.2213.2061-.3319.5076-.3319.9046v3.846zm-.6052-3.0358h2.0532v-.5076h-2.0532v.5076zm2.4305 1.3146c0 .5357.1583.9728.475 1.3112.3189.3384.7441.5076 1.2755.5076.5293 0 .9523-.1692 1.269-.5076.3189-.3384.4783-.7755.4783-1.3112v-.1042c0-.5336-.1594-.9696-.4783-1.308-.3167-.3384-.7408-.5076-1.2722-.5076-.5293 0-.9534.1692-1.2723.5076-.3167.3384-.475.7744-.475 1.308v.1042zm.6605-.1042c0-.3557.0911-.6572.2733-.9045.1822-.2473.4534-.371.8135-.371.3622 0 .6345.1237.8167.371.1822.2473.2733.5488.2733.9045v.1042c0 .3579-.0911.6605-.2733.9078-.1822.2473-.4545.3709-.8167.3709-.3601 0-.6313-.1236-.8135-.3709-.1822-.2473-.2733-.5499-.2733-.9078v-.1042zm3.732 1.8254h.6443v-2.4534c.0737-.1561.1854-.2874.3351-.3937s.3319-.1594.5466-.1594c.0608 0 .1161.0022.166.0065.0499.0043.0976.0108.1432.0195v-.615c-.0217-.0086-.0608-.0184-.1172-.0292-.0542-.0109-.1063-.0163-.1562-.0163-.2147 0-.4002.0564-.5564.1692-.154.1106-.2787.2397-.3742.3872h-.0162l-.0293-.4588h-.5857v3.5434zm2.5476 0h.6443v-2.4664c.0932-.1735.2158-.3145.3677-.423.154-.1106.334-.1659.5401-.1659.2386 0 .423.0629.5531.1887.1302.1258.1953.3351.1953.628v2.2386h.6475v-2.4664c.0933-.1735.2158-.3145.3677-.423.154-.1106.334-.1659.5401-.1659.2386 0 .4219.0629.5499.1887.1301.1258.1963.3351.1985.628v2.2386h.6442v-2.2321c0-.4946-.1095-.8471-.3286-1.0575-.2169-.2126-.5174-.3189-.9013-.3189-.2473 0-.4686.0478-.6638.1432-.1952.0933-.372.2473-.5304.462h-.0162c-.0933-.2104-.2311-.3633-.4133-.4587-.18-.0977-.3948-.1465-.6442-.1465-.2321 0-.4425.0467-.6313.1399-.1887.0933-.3514.2246-.488.3938h-.0163l-.0293-.4686h-.5857v3.5434zm6.1268-1.0412c0 .3579.1226.6323.3677.8232.2473.1887.5456.2831.8948.2831.3124 0 .5673-.0564.7647-.1692.1974-.1128.3405-.2419.4295-.3872.0065.0889.0227.179.0488.2701.026.0911.0553.1648.0878.2212h.6248v-.052c-.0412-.0955-.0738-.205-.0976-.3287-.0217-.1258-.0326-.2592-.0326-.4002v-1.6822c0-.3905-.1236-.6844-.3709-.8818-.2473-.1974-.5944-.2961-1.0412-.2961-.4491 0-.8059.1063-1.0706.3189-.2624.2126-.3937.4609-.3937.7451v.0163h.6443v-.0163c0-.1453.0618-.2722.1855-.3807.1236-.1106.3286-.1659.6149-.1659.2885 0 .4914.0618.6085.1854.1193.1215.179.2798.179.4751v.2798h-.8558c-.4599 0-.8395.1009-1.1388.3026-.2994.1996-.4491.4794-.4491.8395zm.6443-.0325c0-.1974.0857-.3536.257-.4686.1714-.1171.423-.1757.7549-.1757h.7875v.4913c0 .1844-.1063.3601-.3189.5272-.2126.1648-.4501.2472-.7126.2472s-.4566-.0542-.5824-.1626c-.1237-.1107-.1855-.2636-.1855-.4588zm3.0552-1.9621h2.1052v-.5076h-2.1052v.5076zm.6605 2.1508c0 .3384.0792.5868.2376.7451.1605.1584.3752.2375.6442.2375.1128 0 .2169-.0097.3124-.0292.0954-.0196.1735-.0423.2343-.0684v-.5336c-.0651.0217-.1291.039-.192.0521-.0608.013-.1237.0195-.1887.0195-.1389 0-.2408-.0326-.3059-.0976-.0651-.0651-.0976-.1736-.0976-.3254v-3.384h-.6443v3.384z"
        fill="#fff"
      />
    </g>
    <path
      d="M21.8802 77.9246v10.7692"
      stroke="url(#paint1_linear_6847_227913)"
      stroke-width=".95198"
      opacity=".5"
    />
    <path
      d="M86.0133 53.7512c0 3.1545-2.5573 5.7118-5.7119 5.7118s-5.7119-2.5573-5.7119-5.7118c0-3.1546 2.5573-5.7119 5.7119-5.7119s5.7119 2.5573 5.7119 5.7119z"
      fill="#FF3C3C"
    />
    <path
      d="M80.8085 54.8111l.0521-3.0814h-.9274l.0521 3.0814h.8232zm-.9403 1.2137c0 .1388.0466.256.1399.3514.0933.0933.2223.1399.3872.1399.1605 0 .2885-.0466.3839-.1399.0955-.0954.1432-.2126.1432-.3514 0-.1432-.0477-.2625-.1432-.3579-.0954-.0955-.2234-.1432-.3839-.1432-.1649 0-.2939.0477-.3872.1432-.0933.0954-.1399.2147-.1399.3579z"
      fill="#fff"
    />
    <path
      d="M18.5683 83.5504c-.218-.2325-.2062-.5976.0263-.8155.2324-.2179.5975-.2061.8154.0263l2.4638 2.628 2.4637-2.628c.2179-.2324.583-.2442.8155-.0263.2324.2179.2442.583.0263.8155l-2.5147 2.6823 2.5147 2.6823c.2179.2325.2061.5976-.0263.8155-.2325.2179-.5976.2062-.8155-.0263l-2.4637-2.628-2.4638 2.628c-.2179.2325-.583.2442-.8154.0263-.2325-.2179-.2442-.583-.0263-.8155l2.5147-2.6823-2.5147-2.6823z"
      fill="#FF3C3C"
    />
  </g>
  <defs>
    <clipPath id="clip0_6847_227913">
      <path fill="#fff" d="M0 0h100v100H0z" />
    </clipPath>
    <clipPath id="clip1_6847_227913">
      <rect
        x="14.5024"
        y="13.8447"
        width="68.4615"
        height="26.6553"
        rx="3.8079"
        fill="#fff"
      />
    </clipPath>
    <clipPath id="clip2_6847_227913">
      <rect
        x="14.5024"
        y="51.2693"
        width="67.983"
        height="26.6553"
        rx="3.8079"
        fill="#fff"
      />
    </clipPath>
    <linearGradient
      id="paint0_linear_6847_227913"
      x1="1127430000000"
      y1="40.5"
      x2="1127430000000"
      y2="51.2692"
      gradientUnits="userSpaceOnUse"
    >
      <stop stop-color="#2E60FF" />
      <stop offset="1" stop-color="#7E51FF" />
    </linearGradient>
    <linearGradient
      id="paint1_linear_6847_227913"
      x1="1127430000000"
      y1="77.9246"
      x2="1127430000000"
      y2="88.6938"
      gradientUnits="userSpaceOnUse"
    >
      <stop stop-color="#7445FF" />
      <stop offset="1" stop-color="#2E3036" />
    </linearGradient>
  </defs>
</svg>