<svg
  width="100"
  height="100"
  viewBox="0 0 100 100"
  fill="none"
  xmlns="http://www.w3.org/2000/svg"
>
  <path
    fill-rule="evenodd"
    clip-rule="evenodd"
    d="M33.558 59.7012v.1965c0 .9506.6935 1.759 1.633 1.9036l2.3004.3539c1.0769.1656 1.8718 1.0922 1.8718 2.1817 0 1.1037.8947 1.9983 1.9983 1.9983h16.9813c1.1093 0 2.0086-.8992 2.0086-2.0085 0-1.0814.7817-2.0042 1.8484-2.182l2.05-.3417c.8427-.1404 1.4603-.8695 1.4603-1.7237v-.3781c-.1333-.9151-1.726-11.6525-4.5704-22.2205-.6772-2.5159-1.4224-5.011-2.2318-7.3549-.2467.1472-.552.2921-.9299.4296-1.3714.4987-3.8366.9469-8.3433.9469-4.5067 0-6.9719-.4482-8.3432-.9469-.3786-.1377-.6842-.2829-.9312-.4303-.8101 2.346-1.556 4.8435-2.2336 7.3618-2.8434 10.566-4.4355 21.2994-4.5687 22.2143zm7.4457-31.3688a.89833.89833 0 01.0588.1042l.0096.0092c.0712.0656.293.2357.8298.4309 1.0847.3944 3.3084.8393 7.7328.8393 4.4245 0 6.6481-.4449 7.7328-.8393.5368-.1952.7587-.3653.8298-.4309l.0097-.0092a.8818.8818 0 01.0579-.1028c-.7355-1.9699-1.5191-3.7988-2.3484-5.4-1.0139-1.9578-2.0724-3.5281-3.1585-4.5978-1.0858-1.0694-2.1247-1.5686-3.124-1.5686-.9995 0-2.0386.4994-3.1246 1.5692-1.0864 1.0701-2.145 2.641-3.1591 4.5994-.8286 1.6004-1.6117 3.428-2.3466 5.3964zm4.2522-11.2684c1.2751-1.256 2.7391-2.0828 4.3781-2.0828 1.6387 0 3.1024.8265 4.3774 2.0821 1.2746 1.2553 2.4349 3.0094 3.4913 5.049 2.1146 4.0832 3.9073 9.5001 5.3618 14.9041.2505.9308.4914 1.8626.7225 2.789l.034-.0385c4.7689 4.2079 9.4518 10.8008 11.9907 16.1109.6475 1.3542.4453 2.7663-.3082 3.824-.7449 1.0457-2.0081 1.7229-3.4522 1.7229h-4.6207c-.4539 1.1014-1.4507 1.9342-2.6871 2.1402l-2.0501.3417c-.2053.0342-.3558.2119-.3558.4201 0 2.0958-1.699 3.7948-3.7948 3.7948H41.3615c-2.0901 0-3.7845-1.6944-3.7845-3.7846 0-.2079-.1517-.3847-.3572-.4163l-2.3004-.3539c-1.2756-.1962-2.3159-1.0274-2.8195-2.142h-4.6877c-1.4442 0-2.7073-.6772-3.4523-1.7229-.7535-1.0577-.9557-2.4698-.3082-3.824 2.539-5.3101 7.2218-11.903 11.9908-16.1109l.0375.0425c.2309-.9256.4715-1.8567.7218-2.7867 1.4545-5.4051 3.2474-10.8235 5.3623-14.908 1.0565-2.0403 2.217-3.7949 3.4918-5.0507zm22.2267 42.4139c-.0786-.5426-1.1672-7.9684-3.1515-16.5699 3.8934 3.9737 7.5588 9.3267 9.6691 13.7403.3551.7426.242 1.4648-.1515 2.0171-.402.5644-1.1175.9731-1.9974.9731h-4.3551l-.0003-.0112c-.0015-.0557-.0067-.104-.0133-.1494zm-42.2194-2.8296c2.1115-4.4159 5.7795-9.772 9.6751-13.7464-1.9862 8.6081-3.0753 16.0403-3.153 16.5768-.0065.0451-.0117.0935-.0133.1493l-.0002.0105h-4.3596c-.88 0-1.5954-.4087-1.9974-.9731-.3935-.5523-.5066-1.2745-.1516-2.0171zm14.9866 18.1712c.7399 0 1.3397-.5998 1.3397-1.3397 0-.7399-.5998-1.3397-1.3397-1.3397-.7398 0-1.3396.5998-1.3396 1.3397 0 .7399.5998 1.3397 1.3396 1.3397zm1.3397 4.9145c0 .7399-.5998 1.3397-1.3397 1.3397-.7398 0-1.3396-.5998-1.3396-1.3397 0-.7398.5998-1.3396 1.3396-1.3396.7399 0 1.3397.5998 1.3397 1.3396zm-1.3397 7.5894c.7399 0 1.3397-.5998 1.3397-1.3397 0-.7398-.5998-1.3396-1.3397-1.3396-.7398 0-1.3396.5998-1.3396 1.3396 0 .7399.5998 1.3397 1.3396 1.3397zm10.8095-13.8436c0 .7399-.5998 1.3397-1.3397 1.3397-.7398 0-1.3396-.5998-1.3396-1.3397 0-.7399.5998-1.3397 1.3396-1.3397.7399 0 1.3397.5998 1.3397 1.3397zm-1.3397 7.5939c.7399 0 1.3397-.5998 1.3397-1.3397 0-.7398-.5998-1.3396-1.3397-1.3396-.7398 0-1.3396.5998-1.3396 1.3396 0 .7399.5998 1.3397 1.3396 1.3397zm1.3397 4.91c0 .7399-.5998 1.3397-1.3397 1.3397-.7398 0-1.3396-.5998-1.3396-1.3397 0-.7398.5998-1.3396 1.3396-1.3396.7399 0 1.3397.5998 1.3397 1.3396zm7.9487-11.1642c.7399 0 1.3397-.5998 1.3397-1.3397 0-.7399-.5998-1.3397-1.3397-1.3397-.7398 0-1.3396.5998-1.3396 1.3397 0 .7399.5998 1.3397 1.3396 1.3397zm1.3397 4.9145c0 .7399-.5998 1.3397-1.3397 1.3397-.7398 0-1.3396-.5998-1.3396-1.3397 0-.7398.5998-1.3396 1.3396-1.3396.7399 0 1.3397.5998 1.3397 1.3396zm-1.3397 7.5894c.7399 0 1.3397-.5998 1.3397-1.3397 0-.7398-.5998-1.3396-1.3397-1.3396-.7398 0-1.3396.5998-1.3396 1.3396 0 .7399.5998 1.3397 1.3396 1.3397zM45.169 40.4339c0-2.7129 2.1992-4.9121 4.9121-4.9121s4.9121 2.1992 4.9121 4.9121v4.019c0 2.7129-2.1992 4.9121-4.9121 4.9121s-4.9121-2.1992-4.9121-4.9121v-4.019zm1.7862 0c0-1.7264 1.3995-3.1259 3.1259-3.1259 1.7264 0 3.1259 1.3995 3.1259 3.1259v4.019c0 1.7264-1.3995 3.1259-3.1259 3.1259-1.7264 0-3.1259-1.3995-3.1259-3.1259v-4.019zm-4.9156 22.7758c0-.4933.3998-.8931.8931-.8931h13.8432c.4933 0 .8932.3998.8932.8931 0 .4932-.3999.8931-.8932.8931H42.9327c-.4933 0-.8931-.3999-.8931-.8931z"
    fill="#FFCC19"
  />
</svg>