<svg
  width="100"
  height="100"
  viewBox="0 0 100 100"
  fill="none"
  xmlns="http://www.w3.org/2000/svg"
>
  <path
    fill-rule="evenodd"
    clip-rule="evenodd"
    d="M54.6165 30.9287l1.9253-13.3113 7.0667 11.4437c.9365 1.5165 2.7006 2.3118 4.4571 2.0094l13.2548-2.2824-8.6999 10.2572c-1.1529 1.3593-1.3642 3.2828-.5337 4.8598l6.2666 11.9008-12.4436-5.1045c-1.649-.6764-3.5436-.2829-4.7869.9943l-9.3818 9.6374 1.0093-13.4119c.1338-1.7774-.8259-3.4576-2.4247-4.2454l-12.0649-5.9445 13.0674-3.1846c1.7316-.422 3.0331-1.854 3.2883-3.618zm-.2848-14.9808c.2596-1.7947 2.6197-2.2849 3.5725-.742l7.7687 12.5804c.4162.674 1.2003 1.0275 1.9809.8931l14.5714-2.5091c1.7871-.3077 2.9826 1.7855 1.8096 3.1684l-9.564 11.276c-.5124.6042-.6063 1.459-.2372 2.1599l6.8891 13.0829c.8449 1.6045-.7764 3.3884-2.4541 2.7002L64.989 52.9462c-.7329-.3006-1.575-.1257-2.1275.4419L52.5478 63.9828c-1.2649 1.2994-3.4625.3087-3.3264-1.4996l1.1096-14.7441c.0594-.7899-.3671-1.5367-1.0777-1.8868l-13.2632-6.535c-1.6267-.8015-1.3636-3.1976.3983-3.627l14.3653-3.5009c.7696-.1875 1.3481-.824 1.4614-1.608l2.1166-14.6335zm-21.153 26.4058c.6336-.3853 1.4536-.1533 1.8166.4935.3629.6467.1312 1.4631-.5014 1.8501-6.8771 4.2068-12.1393 10.6278-14.9069 18.2277-2.7675 7.5998-2.8666 15.9011-.3051 23.545.2357.7032-.1118 1.4774-.8057 1.7393-.6938.2619-1.471-.0877-1.7085-.7903-2.7873-8.2456-2.6916-17.2094.2958-25.413 2.9875-8.2036 8.6782-15.1298 16.1152-19.6523zm6.4239 8.7025c-.3928-.6999-1.2809-.952-1.9603-.5247-5.4524 3.4286-9.6244 8.581-11.8377 14.6588-2.2133 6.0778-2.3314 12.7064-.3606 18.8383.2456.7641 1.0878 1.1421 1.8387.8587.7509-.2835 1.1257-1.1211.8843-1.8866-1.7277-5.4799-1.6066-11.3916.3687-16.8159 1.9753-5.4243 5.684-10.0295 10.531-13.1152.6771-.431.9287-1.3135.5359-2.0134zm3.1416 8.6318c.6823-.4581 1.5934-.1983 1.9956.5184.4022.7167.1423 1.6182-.533 2.0867-2.6424 1.8334-4.6655 4.4461-5.7742 7.4909-1.1088 3.0447-1.2395 6.3465-.3949 9.4498.2159.793-.1647 1.6505-.9336 1.9408-.7689.2902-1.6338-.0967-1.8617-.8863-1.089-3.7733-.9589-7.8087.3936-11.5227 1.3525-3.7141 3.8479-6.8882 7.1082-9.0776z"
    fill="#CB5F2F"
  />
</svg>