<svg width="120" height="24" viewBox="0 0 120 24" fill="none" xmlns="http://www.w3.org/2000/svg">
<g clip-path="url(#clip0_1_2321)">
<path d="M17.0755 17.8936L14.2826 16.0229L12.7505 14.996C12.1704 14.6041 11.4864 14.3948 10.7863 14.3948C10.0863 14.3948 9.40223 14.6041 8.82211 14.996L0.301192 20.7146C0.210464 20.7761 0.143771 20.867 0.112407 20.972C0.0810424 21.077 0.0869353 21.1896 0.129091 21.2908C0.330446 21.7773 0.637389 22.213 1.02773 22.5664C1.41807 22.9198 1.88207 23.1821 2.38616 23.3343C2.89025 23.4864 3.42186 23.5247 3.94254 23.4463C4.46323 23.3678 4.95999 23.1747 5.39691 22.8808L10.3336 19.5716C10.4672 19.481 10.6249 19.4325 10.7863 19.4325C10.9477 19.4325 11.1054 19.481 11.239 19.5716L16.1757 22.8771C16.6409 23.19 17.1734 23.3884 17.7298 23.4562C18.2863 23.524 18.8509 23.4592 19.3775 23.2671C19.9042 23.0751 20.3779 22.7611 20.7601 22.351C21.1422 21.9409 21.4219 21.4462 21.5764 20.9073L17.0755 17.8899V17.8936Z" fill="#DCFF1C"/>
<path d="M21.234 6.10642L18.7796 7.81435C18.2534 8.18067 17.8235 8.66886 17.5268 9.23728C17.23 9.80569 17.0752 10.4375 17.0754 11.0787V17.8917L21.5763 20.9091C21.6693 20.5887 21.7165 20.2568 21.7166 19.9232V6.35896C21.7168 6.30275 21.7016 6.24757 21.6725 6.19943C21.6435 6.15129 21.6018 6.11205 21.552 6.08599C21.5022 6.05993 21.4462 6.04805 21.3901 6.05166C21.334 6.05526 21.28 6.0742 21.234 6.10642V6.10642Z" fill="#DCFF1C"/>
<path d="M0.482636 17.8916L2.93696 16.1855C3.46316 15.8187 3.8929 15.3301 4.18963 14.7614C4.48635 14.1928 4.64125 13.5608 4.64115 12.9193V6.10635L0.138433 3.09082C0.046804 3.41079 0.000211623 3.74196 2.14571e-06 4.07479V17.6391C-0.000208057 17.6953 0.0150297 17.7504 0.0440487 17.7986C0.0730678 17.8467 0.114754 17.886 0.164557 17.912C0.21436 17.9381 0.270366 17.95 0.32646 17.9464C0.382553 17.9428 0.436577 17.9238 0.482636 17.8916V17.8916Z" fill="#DCFF1C"/>
<path d="M4.64108 6.10456L7.434 7.97523L8.96608 9.0041C9.54657 9.39496 10.2305 9.60374 10.9303 9.60374C11.6301 9.60374 12.314 9.39496 12.8945 9.0041L21.4154 3.28359C21.506 3.22245 21.5726 3.13184 21.604 3.02716C21.6354 2.92248 21.6295 2.81016 21.5875 2.70929C21.3862 2.22275 21.0792 1.78703 20.6889 1.43362C20.2985 1.08022 19.8345 0.817954 19.3304 0.665795C18.8264 0.513636 18.2947 0.475377 17.7741 0.553793C17.2534 0.632208 16.7566 0.825338 16.3197 1.11921L11.383 4.42844C11.249 4.51811 11.0915 4.56599 10.9303 4.56599C10.7691 4.56599 10.6115 4.51811 10.4776 4.42844L5.54087 1.12109C5.07571 0.807799 4.54301 0.60903 3.98632 0.541034C3.42964 0.473037 2.86476 0.537741 2.33786 0.729854C1.81097 0.921966 1.33701 1.23604 0.954734 1.64639C0.572458 2.05675 0.292714 2.55174 0.138367 3.09091L4.64108 6.10643V6.10456Z" fill="#DCFF1C"/>
<path d="M58.9992 9.30527C58.1106 9.35188 57.251 9.63754 56.5112 10.1321V9.81035C56.5112 9.74635 56.4858 9.68497 56.4406 9.63971C56.3953 9.59446 56.3339 9.56903 56.2699 9.56903H54.4554C54.3914 9.56903 54.33 9.59446 54.2847 9.63971C54.2395 9.68497 54.2141 9.74635 54.2141 9.81035V17.4614C54.2141 17.5254 54.2395 17.5868 54.2847 17.632C54.33 17.6773 54.3914 17.7027 54.4554 17.7027H56.2699C56.3339 17.7027 56.3953 17.6773 56.4406 17.632C56.4858 17.5868 56.5112 17.5254 56.5112 17.4614V13.0466C56.8442 12.4854 57.5738 11.6792 59.0329 11.6025C59.0941 11.5991 59.1517 11.5724 59.1938 11.5279C59.2359 11.4833 59.2594 11.4243 59.2593 11.363V9.54658C59.2591 9.51334 59.2521 9.48049 59.2387 9.45005C59.2253 9.41961 59.2059 9.39224 59.1815 9.36962C59.1571 9.34701 59.1284 9.32962 59.097 9.31856C59.0657 9.30749 59.0324 9.30297 58.9992 9.30527V9.30527Z" fill="#DCFF1C"/>
<path d="M52.5977 9.30539C51.7091 9.352 50.8495 9.63766 50.1097 10.1322V9.81047C50.1097 9.74647 50.0843 9.68509 50.039 9.63983C49.9938 9.59458 49.9324 9.56915 49.8684 9.56915H48.052C47.988 9.56915 47.9266 9.59458 47.8814 9.63983C47.8361 9.68509 47.8107 9.74647 47.8107 9.81047V17.4615C47.8107 17.5255 47.8361 17.5869 47.8814 17.6322C47.9266 17.6774 47.988 17.7028 48.052 17.7028H49.8684C49.9324 17.7028 49.9938 17.6774 50.039 17.6322C50.0843 17.5869 50.1097 17.5255 50.1097 17.4615V13.0467C50.4427 12.4855 51.1704 11.6793 52.6314 11.6026C52.6924 11.5992 52.7498 11.5724 52.7916 11.5279C52.8334 11.4833 52.8565 11.4243 52.8559 11.3631V9.54671C52.8557 9.51363 52.8488 9.48094 52.8355 9.45064C52.8222 9.42033 52.8029 9.39305 52.7788 9.37046C52.7546 9.34787 52.7261 9.33045 52.695 9.31927C52.6638 9.30808 52.6307 9.30336 52.5977 9.30539V9.30539Z" fill="#DCFF1C"/>
<path d="M74.292 9.30539C73.4034 9.352 72.5438 9.63766 71.804 10.1322V9.81047C71.804 9.74647 71.7786 9.68509 71.7333 9.63983C71.6881 9.59458 71.6267 9.56915 71.5627 9.56915H69.7463C69.6823 9.56915 69.6209 9.59458 69.5756 9.63983C69.5304 9.68509 69.5049 9.74647 69.5049 9.81047V17.4615C69.5049 17.5255 69.5304 17.5869 69.5756 17.6322C69.6209 17.6774 69.6823 17.7028 69.7463 17.7028H71.5627C71.6267 17.7028 71.6881 17.6774 71.7333 17.6322C71.7786 17.5869 71.804 17.5255 71.804 17.4615V13.0467C72.137 12.4855 72.8647 11.6793 74.3257 11.6026C74.3867 11.5992 74.4441 11.5724 74.4859 11.5279C74.5277 11.4833 74.5507 11.4243 74.5502 11.3631V9.54671C74.55 9.51363 74.543 9.48094 74.5298 9.45064C74.5165 9.42033 74.4972 9.39305 74.473 9.37046C74.4489 9.34787 74.4204 9.33045 74.3892 9.31927C74.3581 9.30808 74.325 9.30336 74.292 9.30539V9.30539Z" fill="#DCFF1C"/>
<path d="M106.144 9.30539C105.255 9.352 104.396 9.63766 103.656 10.1322V9.81047C103.656 9.74647 103.631 9.68509 103.585 9.63983C103.54 9.59458 103.479 9.56915 103.415 9.56915H101.598C101.534 9.56915 101.473 9.59458 101.428 9.63983C101.382 9.68509 101.357 9.74647 101.357 9.81047V17.4615C101.357 17.5255 101.382 17.5869 101.428 17.6322C101.473 17.6774 101.534 17.7028 101.598 17.7028H103.415C103.479 17.7028 103.54 17.6774 103.585 17.6322C103.631 17.5869 103.656 17.5255 103.656 17.4615V13.0467C103.989 12.4855 104.717 11.6793 106.178 11.6026C106.239 11.5992 106.296 11.5724 106.338 11.5279C106.38 11.4833 106.403 11.4243 106.402 11.3631V9.54671C106.402 9.51363 106.395 9.48094 106.382 9.45064C106.368 9.42033 106.349 9.39305 106.325 9.37046C106.301 9.34787 106.272 9.33045 106.241 9.31927C106.21 9.30808 106.177 9.30336 106.144 9.30539V9.30539Z" fill="#DCFF1C"/>
<path d="M45.9325 9.56909H44.1161C43.9828 9.56909 43.8748 9.67713 43.8748 9.81041V17.4615C43.8748 17.5947 43.9828 17.7028 44.1161 17.7028H45.9325C46.0658 17.7028 46.1738 17.5947 46.1738 17.4615V9.81041C46.1738 9.67713 46.0658 9.56909 45.9325 9.56909Z" fill="#DCFF1C"/>
<path d="M45.0252 8.89941C45.8145 8.89941 46.4544 8.25954 46.4544 7.47021C46.4544 6.68089 45.8145 6.04102 45.0252 6.04102C44.2359 6.04102 43.596 6.68089 43.596 7.47021C43.596 8.25954 44.2359 8.89941 45.0252 8.89941Z" fill="#DCFF1C"/>
<path d="M64.2671 9.29956C63.4104 9.29919 62.5728 9.55291 61.8604 10.0286C61.1479 10.5043 60.5926 11.1807 60.2646 11.9721C59.9366 12.7634 59.8507 13.6343 60.0177 14.4746C60.1847 15.3148 60.5972 16.0866 61.203 16.6924C61.8087 17.2981 62.5806 17.7106 63.4208 17.8777C64.261 18.0447 65.1319 17.9588 65.9233 17.6308C66.7147 17.3028 67.391 16.7474 67.8667 16.035C68.3424 15.3225 68.5962 14.485 68.5958 13.6283C68.5943 12.4807 68.1378 11.3805 67.3263 10.5691C66.5148 9.75758 65.4147 9.30105 64.2671 9.29956ZM64.2671 15.7197C63.8534 15.7197 63.4491 15.5971 63.1051 15.3672C62.7612 15.1374 62.4931 14.8108 62.3348 14.4286C62.1765 14.0465 62.1351 13.626 62.2158 13.2203C62.2965 12.8146 62.4957 12.4419 62.7882 12.1494C63.0807 11.857 63.4533 11.6578 63.859 11.5771C64.2647 11.4964 64.6852 11.5378 65.0674 11.6961C65.4496 11.8544 65.7762 12.1224 66.006 12.4664C66.2358 12.8103 66.3585 13.2147 66.3585 13.6283C66.358 14.1828 66.1375 14.7145 65.7454 15.1066C65.3533 15.4987 64.8216 15.7192 64.2671 15.7197Z" fill="#DCFF1C"/>
<path d="M41.9984 12.0046L41.7515 12.1767L40.7788 12.8557C40.5587 13.0095 40.3721 13.2063 40.2303 13.4343C40.0885 13.6623 39.9945 13.9166 39.9538 14.182C39.9376 14.2816 39.9288 14.3823 39.9276 14.4832V17.437C39.9281 17.5073 39.9562 17.5746 40.006 17.6243C40.0557 17.674 40.1229 17.7021 40.1932 17.7026H41.9779C42.048 17.7021 42.1151 17.6739 42.1645 17.6242C42.2139 17.5744 42.2416 17.5071 42.2416 17.437V12.1299C42.2425 12.1013 42.2353 12.073 42.2208 12.0483C42.2063 12.0236 42.185 12.0036 42.1596 11.9905C42.1342 11.9774 42.1055 11.9717 42.077 11.9742C42.0485 11.9767 42.0212 11.9872 41.9984 12.0046V12.0046Z" fill="#DCFF1C"/>
<path d="M42.0996 10.3622C42.0827 10.3229 42.064 10.2837 42.0453 10.2444C42.0398 10.2328 42.0336 10.2215 42.0266 10.2107C41.9869 10.1343 41.9412 10.0611 41.8901 9.99183L41.8414 9.92823L41.7984 9.87773L41.7479 9.82347L41.6862 9.75987L41.6506 9.72807L41.6282 9.70749C41.602 9.68505 41.5758 9.6626 41.5477 9.64202L41.5271 9.62518L41.4766 9.58777L41.4598 9.57654L41.3532 9.51107L41.3326 9.49798L41.2989 9.4774C41.0154 9.32559 40.696 9.25382 40.3748 9.26976C40.0528 9.28632 39.7412 9.38974 39.4731 9.56906L37.0132 11.219C36.9429 11.2655 36.8599 11.289 36.7756 11.2863C36.6998 11.2851 36.6259 11.2624 36.5624 11.2209L34.1024 9.56906C33.835 9.38997 33.5241 9.28656 33.2026 9.26976C33.1447 9.26976 33.0867 9.26976 33.0305 9.26976H32.9651C32.7243 9.2909 32.4901 9.36024 32.2767 9.47366C32.0672 9.58531 31.8823 9.73788 31.7328 9.92233C31.5834 10.1068 31.4725 10.3193 31.4068 10.5474C31.4068 10.568 31.4068 10.5886 31.3937 10.6092C31.3825 10.6597 31.3713 10.7083 31.3619 10.7588C31.3526 10.8093 31.3619 10.8074 31.3525 10.8318C31.3438 10.9 31.3388 10.9687 31.3376 11.0375V11.0375V17.4315C31.3381 17.5018 31.3662 17.5691 31.4159 17.6188C31.4656 17.6685 31.5329 17.6967 31.6032 17.6971H33.3878C33.458 17.6966 33.5251 17.6684 33.5745 17.6187C33.6239 17.5689 33.6516 17.5016 33.6516 17.4315V12.0552L35.0434 12.9905L35.8066 13.5012C35.8488 13.5287 35.8925 13.5536 35.9376 13.576C36.2192 13.7331 36.5388 13.8092 36.861 13.796C37.1832 13.7828 37.4955 13.6808 37.7634 13.5012L39.9221 12.0514L42.0117 10.6484C42.0572 10.6183 42.0909 10.5733 42.1069 10.5211C42.1229 10.4689 42.1203 10.4127 42.0996 10.3622V10.3622Z" fill="#DCFF1C"/>
<path d="M96.119 17.9591C95.2626 17.9583 94.4257 17.7037 93.714 17.2274C93.0024 16.7511 92.4479 16.0745 92.1207 15.2831C91.7935 14.4917 91.7083 13.6211 91.8758 12.7813C92.0433 11.9415 92.456 11.1702 93.0618 10.5649C93.6676 9.95966 94.4393 9.54759 95.2792 9.38079C96.1192 9.214 96.9897 9.29998 97.7808 9.62786C98.5719 9.95574 99.2481 10.5108 99.7238 11.2229C100.199 11.935 100.453 12.7721 100.453 13.6285C100.452 14.7772 99.9946 15.8784 99.182 16.6904C98.3693 17.5023 97.2677 17.9586 96.119 17.9591ZM96.119 11.5371C95.7053 11.5367 95.3007 11.659 94.9566 11.8886C94.6124 12.1182 94.344 12.4447 94.1854 12.8268C94.0269 13.2089 93.9852 13.6295 94.0657 14.0353C94.1461 14.4412 94.3452 14.814 94.6376 15.1067C94.93 15.3993 95.3027 15.5987 95.7084 15.6796C96.1142 15.7604 96.5348 15.7191 96.917 15.5609C97.2993 15.4026 97.626 15.1346 97.8559 14.7906C98.0858 14.4466 98.2085 14.0422 98.2085 13.6285C98.208 13.0743 97.9878 12.5429 97.5961 12.1508C97.2044 11.7588 96.6732 11.538 96.119 11.5371Z" fill="#DCFF1C"/>
<path d="M110.158 6.55542H108.002C107.868 6.55542 107.76 6.66346 107.76 6.79674V17.4596C107.76 17.5929 107.868 17.7009 108.002 17.7009H110.158C110.292 17.7009 110.4 17.5929 110.4 17.4596V6.79674C110.4 6.66346 110.292 6.55542 110.158 6.55542Z" fill="#DCFF1C"/>
<path d="M117.699 6.7892V10.1807C117.069 9.65507 116.203 9.34828 115.058 9.50168C112.951 9.78415 111.296 11.5239 111.316 13.6471C111.329 16.021 113.266 17.7813 115.645 17.7813C116.395 17.797 117.126 17.5419 117.703 17.0629V17.4539C117.703 17.5179 117.728 17.5793 117.774 17.6246C117.819 17.6698 117.88 17.6952 117.944 17.6952H119.759C119.823 17.6952 119.884 17.6698 119.929 17.6246C119.975 17.5793 120 17.5179 120 17.4539V6.7892C120 6.7252 119.975 6.66382 119.929 6.61856C119.884 6.57331 119.823 6.54788 119.759 6.54788H117.944C117.912 6.54738 117.88 6.55326 117.851 6.56517C117.821 6.57707 117.794 6.59477 117.771 6.61723C117.748 6.63968 117.73 6.66645 117.718 6.69598C117.705 6.7255 117.699 6.75719 117.699 6.7892V6.7892ZM115.641 15.7123C115.242 15.7134 114.851 15.6002 114.514 15.386C114.177 15.1717 113.908 14.8655 113.74 14.5035C113.571 14.1415 113.51 13.7387 113.563 13.3429C113.616 12.9471 113.781 12.5748 114.039 12.27C114.297 11.9651 114.637 11.7405 115.018 11.6226C115.4 11.5048 115.807 11.4986 116.192 11.6049C116.577 11.7112 116.924 11.9254 117.191 12.2224C117.458 12.5193 117.634 12.8864 117.699 13.2804V13.9632C117.619 14.4528 117.368 14.8981 116.991 15.2198C116.613 15.5415 116.134 15.7187 115.638 15.7198L115.641 15.7123Z" fill="#DCFF1C"/>
<path d="M80.2202 14.9958L80.4671 14.8237L81.4436 14.1446C81.6636 13.9908 81.8502 13.794 81.992 13.566C82.1338 13.338 82.2279 13.0837 82.2685 12.8183C82.2841 12.7187 82.2923 12.618 82.2929 12.5171V9.56332C82.2929 9.52868 82.286 9.49438 82.2728 9.46238C82.2595 9.43038 82.2401 9.40131 82.2156 9.37681C82.1911 9.35232 82.162 9.33289 82.13 9.31964C82.098 9.30638 82.0637 9.29956 82.0291 9.29956H80.2501C80.2155 9.29956 80.1811 9.30638 80.1491 9.31964C80.1171 9.33289 80.0881 9.35232 80.0636 9.37681C80.0391 9.40131 80.0197 9.43038 80.0064 9.46238C79.9931 9.49438 79.9863 9.52868 79.9863 9.56332V14.8704C79.9867 14.8975 79.9942 14.924 80.0083 14.9472C80.0224 14.9703 80.0424 14.9893 80.0663 15.0021C80.0901 15.0149 80.117 15.0211 80.1441 15.0199C80.1711 15.0188 80.1974 15.0105 80.2202 14.9958V14.9958Z" fill="#DCFF1C"/>
<path d="M80.1191 16.6382C80.1348 16.6785 80.1529 16.7179 80.1733 16.7561L80.1902 16.7897C80.2312 16.8658 80.2775 16.9389 80.3286 17.0086L80.3772 17.0722L80.4202 17.1227L80.4708 17.177L80.5325 17.2406C80.5434 17.2521 80.5553 17.2628 80.568 17.2724L80.5905 17.2929C80.6167 17.3154 80.6429 17.3378 80.6709 17.3584L80.6915 17.3753L80.742 17.4127L80.7588 17.4239L80.8655 17.4894L80.8861 17.5025C80.8966 17.5104 80.9079 17.5173 80.9197 17.523C81.2031 17.675 81.5226 17.7468 81.8438 17.7307V17.7307C82.1659 17.7141 82.4775 17.6107 82.7455 17.4314L85.2054 15.7814C85.2757 15.7348 85.3587 15.7112 85.443 15.7141C85.5185 15.7158 85.5919 15.7392 85.6544 15.7814L88.1162 17.4314C88.3835 17.6107 88.6945 17.7142 89.016 17.7307C89.074 17.7307 89.1301 17.7307 89.1881 17.7307H89.2536C89.4938 17.7098 89.7274 17.6404 89.9401 17.5268C90.1498 17.4155 90.335 17.263 90.4844 17.0785C90.6339 16.894 90.7446 16.6813 90.81 16.453C90.81 16.4324 90.81 16.4119 90.8249 16.3913C90.8399 16.3707 90.8474 16.2921 90.8567 16.2416C90.8661 16.1911 90.8567 16.193 90.8567 16.1687C90.8649 16.1004 90.8693 16.0317 90.8698 15.9629V15.9629V9.56332C90.8698 9.49337 90.842 9.42628 90.7926 9.37681C90.7431 9.32735 90.676 9.29956 90.6061 9.29956H88.8214C88.7868 9.29956 88.7525 9.30638 88.7205 9.31964C88.6885 9.33289 88.6594 9.35232 88.6349 9.37681C88.6104 9.40131 88.591 9.43038 88.5778 9.46238C88.5645 9.49438 88.5577 9.52868 88.5577 9.56332V14.9453L87.164 14.0099L86.4027 13.4992C86.3607 13.4721 86.3169 13.4477 86.2717 13.4263C85.9902 13.2688 85.6706 13.1924 85.3483 13.2056C85.026 13.2189 84.7136 13.3211 84.4459 13.5011L82.2872 14.949L80.1976 16.352C80.1537 16.3835 80.122 16.4291 80.1077 16.4812C80.0934 16.5333 80.0974 16.5887 80.1191 16.6382V16.6382Z" fill="#DCFF1C"/>
</g>
<defs>
<clipPath id="clip0_1_2321">
<rect width="120" height="24" fill="white"/>
</clipPath>
</defs>
</svg>
