<svg width="180" height="80" viewBox="0 0 180 80" fill="none" xmlns="http://www.w3.org/2000/svg">
<path fill-rule="evenodd" clip-rule="evenodd" d="M106.212 49.5933C106.225 49.5926 106.238 49.5928 106.252 49.5938C106.291 49.5703 106.321 49.5387 106.342 49.498L106.374 49.4637C106.378 49.4469 106.388 49.4365 106.405 49.4322L106.407 49.4305C106.41 49.414 106.421 49.4039 106.437 49.3996L106.439 49.3975C106.448 49.3871 106.458 49.377 106.468 49.367L106.47 49.3639C106.475 49.3588 106.479 49.3538 106.484 49.3488L106.497 49.3344L106.502 49.329L106.526 49.3018L106.533 49.293C106.536 49.283 106.542 49.2759 106.552 49.2712L106.57 49.2538C106.578 49.2472 106.585 49.2407 106.591 49.2339C106.598 49.2279 106.604 49.2218 106.609 49.2154C107.066 48.7074 107.486 48.1701 107.884 47.6154C108.442 46.8379 108.945 46.0251 109.411 45.1895C109.956 44.2124 110.43 43.203 110.808 42.1493C111.114 41.2939 111.361 40.4223 111.535 39.5299C111.607 39.1613 111.669 38.791 111.716 38.4191C111.751 38.1533 111.774 37.8858 111.797 37.6187C111.82 37.3563 111.833 37.0932 111.844 36.8308C111.874 36.1484 111.84 35.467 111.782 34.7869C111.759 34.5147 111.727 34.2422 111.684 33.9724C111.626 33.6018 111.564 33.2312 111.485 32.8646C111.202 31.5525 110.769 30.2912 110.191 29.0796C109.257 27.1204 108.004 25.3869 106.482 23.8447C105.654 23.0057 104.757 22.2457 103.801 21.5545C102.486 20.6033 101.083 19.8066 99.5997 19.1501C98.5043 18.6656 97.3781 18.2674 96.2232 17.9489C95.4205 17.7275 94.6091 17.548 93.7896 17.4042C93.2453 17.3085 92.6969 17.2392 92.1482 17.1754C92.0148 17.1599 91.8811 17.1479 91.7474 17.1374C91.6642 17.1309 91.5811 17.1256 91.4979 17.1203L91.4979 17.1203C91.3883 17.1132 91.2786 17.1062 91.1691 17.0964C90.8214 17.0652 90.4723 17.0481 90.1235 17.043C89.7421 17.0374 89.3608 17.0389 88.9795 17.0405L88.6085 17.0417L88.5749 17.0412C88.527 17.0402 88.479 17.0392 88.4327 17.0561C88.347 17.0891 88.2583 17.0998 88.1663 17.0968C88.0857 17.0939 88.0054 17.0949 87.9249 17.096L87.8612 17.0968L87.8254 17.0967C87.768 17.0963 87.7106 17.0958 87.6552 17.1186C87.6408 17.1247 87.6236 17.1277 87.6082 17.1263C87.4932 17.117 87.3795 17.1295 87.2659 17.1421C87.1833 17.1512 87.1008 17.1602 87.0178 17.161L87.0043 17.161C86.9554 17.1612 86.9066 17.1613 86.8596 17.1798C86.8401 17.1875 86.8176 17.1932 86.7971 17.1912C86.6932 17.1816 86.5912 17.1971 86.4893 17.2127C86.4382 17.2205 86.3872 17.2283 86.3361 17.2329L86.2848 17.2373C86.1814 17.2462 86.0761 17.2552 85.9732 17.2802C85.915 17.2943 85.8546 17.2996 85.7939 17.3049C85.7535 17.3085 85.7129 17.312 85.6728 17.3182L85.5707 17.3336L85.5706 17.3336C85.4787 17.3472 85.3869 17.3608 85.2955 17.3787C85.2531 17.3872 85.2088 17.3864 85.1645 17.3856C85.1442 17.3852 85.124 17.3849 85.104 17.3854L85.0576 17.3962C85.0268 17.4262 84.9908 17.4232 84.9548 17.4202C84.9406 17.419 84.9264 17.4178 84.9124 17.4187L84.8634 17.4301C84.7108 17.4785 84.5576 17.5252 84.3943 17.5141L84.349 17.5252C84.3238 17.5542 84.2927 17.5514 84.2615 17.5487C84.2523 17.5478 84.2431 17.547 84.2341 17.547L84.1877 17.5584C84.1626 17.5864 84.132 17.5839 84.1015 17.5814C84.0923 17.5806 84.0831 17.5799 84.0741 17.5799L84.0264 17.592C83.9454 17.6478 83.853 17.6482 83.7606 17.6482C83.7411 17.6549 83.7213 17.6616 83.7015 17.668L83.6989 17.6738C83.6886 17.6963 83.6778 17.72 83.7065 17.7382C83.7667 17.7765 83.81 17.8279 83.85 17.8871C83.9582 18.046 84.0704 18.2026 84.1847 18.3575C84.3722 18.6111 84.559 18.8652 84.7307 19.1303C84.745 19.1523 84.7582 19.1752 84.7713 19.1981C84.7902 19.231 84.8091 19.2639 84.8315 19.2942C84.8661 19.3413 84.9006 19.3886 84.935 19.4359L84.935 19.436C85.0735 19.6262 85.2121 19.8165 85.3657 19.9951C85.4018 20.0371 85.4326 20.0836 85.4634 20.1302C85.48 20.1552 85.4965 20.1802 85.5139 20.2045C85.5685 20.2813 85.6235 20.3583 85.6783 20.4349C85.7789 20.5756 85.8794 20.7162 85.9786 20.858C86.0103 20.9032 86.0393 20.9503 86.0683 20.9973C86.0984 21.0459 86.1284 21.0946 86.1614 21.1412C86.2539 21.272 86.3501 21.4005 86.4463 21.5289L86.4464 21.529L86.4846 21.58C86.5432 21.6586 86.5985 21.7396 86.6538 21.8206C86.7702 21.9913 86.8867 22.162 87.0343 22.3092C87.0413 22.316 87.0465 22.3244 87.0518 22.3328C87.0551 22.3382 87.0584 22.3435 87.0622 22.3485C87.1169 22.4179 87.1641 22.4923 87.2112 22.5666L87.2112 22.5667C87.2385 22.6096 87.2657 22.6526 87.2944 22.6946C87.4902 22.9815 87.6898 23.2664 87.8941 23.5473C87.9199 23.5827 87.9449 23.6186 87.9698 23.6545C87.9998 23.6976 88.0298 23.7407 88.0611 23.7829C88.2204 23.9976 88.379 24.2126 88.515 24.4438C88.5581 24.5167 88.6101 24.5869 88.6693 24.6477C88.7486 24.729 88.8138 24.8188 88.8779 24.9115C88.9456 25.0093 89.0163 25.105 89.087 25.2007L89.087 25.2008C89.1465 25.2814 89.2059 25.3619 89.2637 25.4437L89.2807 25.4676C89.3118 25.5107 89.3432 25.5543 89.3557 25.6107C89.3742 25.6944 89.39 25.7018 89.4777 25.7051C89.5029 25.7061 89.5284 25.7055 89.554 25.7048C89.6044 25.7035 89.6548 25.7023 89.7021 25.7139C89.7768 25.7321 89.8506 25.7344 89.925 25.7367L89.9572 25.7377L89.9727 25.7382C90.0102 25.7392 90.0488 25.7402 90.0842 25.7508C90.1325 25.7649 90.1808 25.7706 90.2291 25.7685C90.1792 25.7711 90.1297 25.7657 90.0804 25.751C90.0446 25.7405 90.0053 25.7394 89.9669 25.7383L89.9534 25.7379L89.9212 25.7369C89.8468 25.7345 89.773 25.7323 89.6984 25.714C89.6511 25.7024 89.6006 25.7037 89.5502 25.705C89.5246 25.7057 89.4991 25.7063 89.4739 25.7053C89.3862 25.7019 89.3704 25.6949 89.352 25.6109C89.3397 25.5542 89.3078 25.5103 89.2765 25.4671L89.2599 25.4439C89.2008 25.3599 89.1397 25.2772 89.0787 25.1945L89.0786 25.1944C89.0096 25.1008 88.9405 25.0073 88.8742 24.9117C88.81 24.8189 88.7448 24.7292 88.6655 24.6479C88.6064 24.5874 88.5543 24.5172 88.5113 24.444C88.3752 24.2131 88.2166 23.9977 88.0573 23.783C88.026 23.7409 87.996 23.6978 87.9661 23.6547C87.9411 23.6188 87.9161 23.5829 87.8903 23.5475C87.6857 23.2666 87.4865 22.9817 87.2906 22.6947C87.2618 22.6527 87.2345 22.6096 87.2071 22.5665L87.2071 22.5664C87.16 22.4922 87.1128 22.4179 87.0584 22.3487C87.0542 22.3434 87.0506 22.3376 87.047 22.3319C87.042 22.3238 87.037 22.3158 87.0305 22.3093C86.8829 22.1622 86.7664 21.9915 86.65 21.8208L86.65 21.8207C86.5947 21.7397 86.5394 21.6587 86.4808 21.5802L86.4426 21.5292C86.3464 21.4007 86.2502 21.2723 86.1576 21.1414C86.1242 21.0942 86.0938 21.045 86.0634 20.9958C86.0347 20.9493 86.006 20.9029 85.9748 20.8582C85.871 20.7097 85.7656 20.5624 85.6603 20.415L85.5101 20.2046C85.4927 20.1803 85.4762 20.1553 85.4596 20.1303C85.4288 20.0838 85.398 20.0373 85.3619 19.9953C85.2079 19.8159 85.069 19.6252 84.9302 19.4346L84.9296 19.4338C84.8957 19.3873 84.8618 19.3407 84.8277 19.2944C84.8053 19.2641 84.7864 19.2312 84.7675 19.1982C84.7544 19.1754 84.7412 19.1525 84.7269 19.1304C84.5552 18.8657 84.3684 18.6113 84.1809 18.3576C84.0663 18.2031 83.9544 18.0465 83.8462 17.8872C83.8063 17.8284 83.7629 17.7767 83.7028 17.7384C83.6738 17.72 83.6847 17.6964 83.6953 17.6735L83.6977 17.6682C83.622 17.6592 83.5518 17.6806 83.4818 17.7019C83.4546 17.7102 83.4275 17.7185 83.4 17.725C82.0923 18.0331 80.8209 18.4541 79.5861 18.9826C78.0163 19.6546 76.5305 20.4788 75.1354 21.4663C74.0458 22.2378 73.025 23.0905 72.0724 24.0253C71.5587 24.5296 71.0702 25.0578 70.6028 25.6058C70.1599 26.1253 69.7372 26.6606 69.3404 27.2153C68.1379 28.896 67.1561 30.6966 66.4266 32.6323C66.1504 33.3658 65.9125 34.111 65.7183 34.8707C65.6122 35.2854 65.5204 35.7033 65.4364 36.1227C65.4017 36.2962 65.3752 36.4715 65.3488 36.6468L65.3299 36.7715C65.309 36.9092 65.2903 37.0474 65.2716 37.1856L65.2567 37.296C65.2512 37.3357 65.2452 37.3754 65.2391 37.4151C65.224 37.5132 65.2089 37.6114 65.2039 37.7099C65.1959 37.8663 65.1801 38.0224 65.1644 38.1777L65.1599 38.2223C65.1412 38.4078 65.134 38.5933 65.1267 38.7789C65.1233 38.8666 65.1199 38.9544 65.1152 39.0422C65.087 39.5842 65.1132 40.1265 65.1397 40.6684L65.1402 40.6806C65.1409 40.6981 65.1416 40.7157 65.1451 40.7326C65.1669 40.8391 65.1729 40.9471 65.1788 41.0553C65.1826 41.1238 65.1863 41.1925 65.1942 41.2608C65.2194 41.4789 65.2459 41.6969 65.2738 41.9143C65.2941 42.0722 65.3243 42.2292 65.3544 42.386C65.3677 42.4551 65.381 42.5242 65.3934 42.5934C65.4999 43.1841 65.6525 43.763 65.8373 44.3335C66.18 45.3906 66.6511 46.3885 67.2166 47.3434C67.6389 48.0567 68.1234 48.7261 68.6805 49.3406C69.0925 49.7949 69.5353 50.2169 70.0188 50.5959C71.0937 51.4393 72.2919 52.0347 73.609 52.3932C74.0599 52.5158 74.5185 52.5988 74.9812 52.6633C75.3807 52.7191 75.7822 52.7497 76.1848 52.7665L76.1944 52.7671L76.2086 52.7684L76.2134 52.7688C76.2404 52.7715 76.2678 52.7741 76.2934 52.7595C76.3223 52.7706 76.3508 52.7706 76.3797 52.7595C76.5252 52.7501 76.6711 52.7501 76.8165 52.7595C76.8454 52.7703 76.874 52.7703 76.9026 52.7585C76.9241 52.7293 76.9553 52.7253 76.9882 52.7253L77.0565 52.7251C77.1246 52.725 77.1928 52.7248 77.2611 52.7236C77.2855 52.7231 77.31 52.7233 77.3346 52.7235C77.4223 52.7243 77.5101 52.725 77.5954 52.6964C77.6102 52.6913 77.6273 52.6917 77.6431 52.693C77.7734 52.7052 77.9022 52.6872 78.0302 52.6692L78.0307 52.6692C78.0715 52.6634 78.1122 52.6577 78.1528 52.653C78.517 52.6107 78.8803 52.5566 79.2398 52.4803C79.296 52.4684 79.3524 52.4568 79.4087 52.4452C79.566 52.4128 79.7234 52.3803 79.8795 52.3422C79.9107 52.3347 79.9435 52.3343 79.9764 52.3339C79.9921 52.3337 80.0078 52.3335 80.0233 52.3325L80.0294 52.3311C80.0549 52.3019 80.0873 52.3018 80.1198 52.3018H80.1199C80.131 52.3018 80.1421 52.3018 80.153 52.3006L80.1584 52.2992C80.1824 52.2703 80.214 52.2697 80.2455 52.2692C80.2568 52.269 80.2681 52.2688 80.279 52.2673L80.2871 52.2653C80.3916 52.1967 80.5095 52.1759 80.6318 52.1702L80.6416 52.1672C80.736 52.1023 80.8422 52.0768 80.9547 52.0734L80.9641 52.0704C80.9848 52.0448 81.0133 52.0439 81.0418 52.043L81.0549 52.0425L81.0609 52.0405C81.1772 51.9666 81.3058 51.9303 81.4413 51.9138L81.4846 51.8963L81.536 51.8806L81.5444 51.8775C81.5634 51.8521 81.5907 51.8503 81.6178 51.8485L81.6301 51.8476L81.6408 51.8433C81.7104 51.7764 81.7971 51.7566 81.8895 51.7512L81.8989 51.7475C81.9353 51.6907 81.9943 51.6894 82.0524 51.688L82.0914 51.6695C82.0932 51.6668 82.0948 51.6637 82.0964 51.6606C82.0999 51.6537 82.1033 51.6469 82.1089 51.6443C82.1193 51.6394 82.1296 51.6343 82.1399 51.6292C82.1468 51.6258 82.1538 51.6223 82.1607 51.6189L82.1607 51.6189C82.2497 51.5745 82.3386 51.5302 82.4419 51.5274L82.4782 51.5113C82.5208 51.4387 82.5924 51.4333 82.6653 51.4303L82.7123 51.4071C82.7181 51.4024 82.7248 51.3997 82.7322 51.3997L82.7732 51.3813C82.7806 51.3729 82.79 51.3688 82.801 51.3682H82.8027C82.8773 51.2828 82.9724 51.2418 83.0843 51.2364L83.092 51.2334C83.1055 51.2126 83.1256 51.2059 83.1488 51.2042L83.1565 51.2012C83.17 51.1803 83.1905 51.1736 83.2137 51.1719L83.2211 51.1692C83.2345 51.1477 83.2553 51.141 83.2788 51.1397L83.2856 51.1373C83.299 51.1158 83.3195 51.1091 83.343 51.1074L83.3501 51.1047C83.3628 51.0836 83.3833 51.0768 83.4062 51.0748L83.4146 51.0715C83.4274 51.051 83.4472 51.0443 83.4694 51.0422L83.4791 51.0385C83.5191 50.9828 83.5775 50.9609 83.6421 50.9502C83.6548 50.9243 83.6777 50.9166 83.7042 50.9166L83.7059 50.9156C83.7187 50.8914 83.7405 50.884 83.7657 50.883L83.7697 50.881C83.7795 50.8648 83.7936 50.8568 83.8124 50.8561C83.8225 50.8581 83.8302 50.8544 83.8349 50.8453C83.843 50.8302 83.8558 50.8228 83.8726 50.8225C83.8843 50.8235 83.8934 50.8191 83.8998 50.809L83.9324 50.7882C83.9445 50.7627 83.9666 50.7553 83.9925 50.7543L83.9959 50.7526C84.0076 50.7301 84.0281 50.7227 84.0516 50.7203L84.0597 50.716L84.096 50.6925L84.1259 50.6763L84.1538 50.6582L84.1571 50.6562C84.1686 50.6333 84.1887 50.6256 84.2123 50.6232L84.221 50.6185L84.2563 50.5954L84.2882 50.5765C84.2942 50.5681 84.3023 50.5628 84.3127 50.5611L84.3178 50.5581L84.3567 50.5322L84.3836 50.5171L84.4125 50.4972L84.4152 50.4956C84.4259 50.4724 84.4461 50.4646 84.4693 50.462L84.479 50.4559C84.4895 50.4482 84.5002 50.4408 84.511 50.4331L84.5123 50.4321C84.5227 50.4085 84.5429 50.4001 84.5664 50.3974L84.5755 50.3917L84.6071 50.3686L84.6087 50.3675C84.6188 50.344 84.6386 50.336 84.6622 50.3329L84.6719 50.3266L84.7025 50.3037L84.7052 50.302C84.7142 50.2792 84.7331 50.2711 84.7552 50.2677C84.7636 50.2701 84.7683 50.2667 84.7693 50.2583L84.7962 50.2385L84.8016 50.2348C84.8134 50.2258 84.8251 50.217 84.8369 50.2083L84.8711 50.1834C84.8752 50.178 84.8806 50.1747 84.8869 50.1733H84.895L84.8977 50.1656L84.9276 50.1421L84.9306 50.1401L84.9669 50.1118L84.9992 50.0877C85.0035 50.0819 85.0092 50.0783 85.0163 50.0766L85.0264 50.0695L85.0563 50.0453L85.0593 50.043C85.065 50.0268 85.0764 50.0174 85.0936 50.0144C85.1067 50.004 85.1201 49.9939 85.1336 49.9835L85.1369 49.9808C85.147 49.9818 85.1531 49.9771 85.1554 49.9674L85.1799 49.9475L85.1873 49.9422L85.2179 49.9166L85.2203 49.9146L85.2535 49.8854L85.2982 49.8562L85.2928 49.8551L85.319 49.8303C85.3231 49.8256 85.3278 49.8222 85.3331 49.8195C85.3422 49.8205 85.3473 49.8165 85.3486 49.8074C85.3536 49.7977 85.3617 49.7906 85.3721 49.7869L85.3805 49.7795L85.4077 49.755L85.4131 49.7503L85.4424 49.7234L85.4457 49.7204L85.4766 49.6915L85.4783 49.6898L85.5112 49.6593C85.5159 49.6425 85.527 49.632 85.5442 49.6277C85.6507 49.5474 85.7451 49.454 85.8341 49.3552C85.8382 49.3458 85.8452 49.3394 85.8546 49.3357L85.8627 49.3347L85.864 49.3266L85.8876 49.3034L85.8963 49.295L85.9212 49.2712L85.9285 49.2648L85.9551 49.2393L85.9608 49.2335L85.988 49.207L85.9934 49.202L86.0216 49.1747L86.026 49.1707C86.0357 49.1616 86.0451 49.1522 86.0549 49.1428L86.0582 49.1395L86.0871 49.1109C86.1732 49.0457 86.2504 48.9711 86.317 48.8858C86.3213 48.869 86.3321 48.8582 86.3492 48.8539C86.3536 48.8367 86.3643 48.826 86.3815 48.8219L86.4141 48.79C86.4252 48.7793 86.4356 48.7685 86.4467 48.7581C86.4513 48.7411 86.4622 48.7304 86.4791 48.7257C86.4838 48.7091 86.4946 48.6986 86.5114 48.6938C86.5165 48.6771 86.5272 48.6666 86.544 48.6619C86.5492 48.6445 86.5608 48.6337 86.5784 48.6291C86.7074 48.5226 86.825 48.4046 86.9349 48.2786L86.9396 48.2743L86.9621 48.2521L86.9725 48.2417C86.9849 48.2397 86.992 48.2326 86.994 48.2205C86.9974 48.2158 87.0017 48.2118 87.0064 48.2087C87.0175 48.2081 87.0239 48.2017 87.0256 48.1906C87.0293 48.1845 87.034 48.1795 87.0404 48.1761C87.0508 48.1755 87.0565 48.1698 87.0575 48.1593C87.0612 48.1526 87.0666 48.1476 87.0733 48.1439C87.0834 48.1432 87.0888 48.1378 87.0894 48.1278C87.0935 48.1204 87.0988 48.115 87.1062 48.1113C87.116 48.111 87.121 48.1063 87.1213 48.0965C87.1254 48.0885 87.1314 48.0824 87.1398 48.0787C87.1489 48.0787 87.1533 48.0747 87.1533 48.0656C87.1573 48.0565 87.1637 48.0501 87.1728 48.0461C87.1815 48.0465 87.1852 48.0424 87.1852 48.0337C87.1896 48.0246 87.1963 48.0179 87.2053 48.0139C87.2137 48.0142 87.2178 48.0102 87.2174 48.0018C87.2218 47.992 87.2285 47.9853 87.2383 47.9813L87.247 47.9796L87.2494 47.9708C87.2547 47.966 87.2598 47.961 87.2649 47.9559C87.2673 47.9536 87.2696 47.9513 87.2719 47.949L87.2803 47.9477L87.282 47.9393L87.3048 47.9168L87.3129 47.9154L87.3142 47.9073L87.3374 47.8845L87.3465 47.8761L87.371 47.8522L87.3787 47.8445L87.4036 47.82L87.411 47.8126L87.4365 47.7877L87.4432 47.7817L87.4698 47.7558L87.4755 47.7501L87.5027 47.7236L87.5077 47.7189L87.536 47.6916L87.5403 47.6873L87.5689 47.6594L87.5726 47.656L87.6018 47.6275L87.6049 47.6244L87.6348 47.5952L87.6374 47.5929L87.6684 47.5633L87.67 47.5616C87.6744 47.5451 87.6852 47.5351 87.7016 47.531C87.7188 47.5267 87.7298 47.5162 87.7345 47.4991L87.7671 47.4672L87.7997 47.4356C87.8047 47.4187 87.8155 47.408 87.8326 47.4035C87.8381 47.3859 87.8501 47.3751 87.8683 47.3711C87.9301 47.3338 87.9792 47.2831 88.0245 47.2283L88.0477 47.2071L88.0554 47.2004L88.0826 47.1752L88.0877 47.1708L88.1169 47.1436L88.1203 47.1406L88.1515 47.112C88.1687 47.1077 88.1801 47.0969 88.1855 47.0801C88.1908 47.0633 88.2016 47.0529 88.2187 47.0492C88.2248 47.0314 88.2369 47.0206 88.2553 47.0169C88.294 47.0001 88.3229 46.9719 88.3467 46.938L88.3706 46.9175L88.3777 46.9114L88.4062 46.8859L88.4102 46.8825L88.4418 46.8547L88.4432 46.8533C88.4482 46.8362 88.459 46.8261 88.4764 46.8234C88.4825 46.8056 88.4949 46.7948 88.5137 46.7915C88.5403 46.7838 88.5584 46.7663 88.5725 46.7434C88.5772 46.7334 88.585 46.727 88.5957 46.724L88.6034 46.7179L88.6333 46.6927L88.6364 46.6904C88.6417 46.6739 88.6532 46.6645 88.6703 46.6615L88.7133 46.6312L88.7103 46.6302L88.7341 46.609C88.7389 46.6023 88.7449 46.598 88.7526 46.5953L88.7617 46.5943L88.7651 46.5859L88.7923 46.5633L88.7977 46.5593L88.8306 46.5324L88.8759 46.5025L88.8726 46.5015C88.8847 46.5002 88.8924 46.4935 88.8958 46.482C88.9008 46.4743 88.9075 46.4693 88.9163 46.4666L88.9267 46.4588L88.9562 46.435L88.9589 46.433C88.9557 46.3814 88.9603 46.3341 88.9834 46.2951C88.9614 46.3337 88.957 46.3802 88.9602 46.4308C89.0075 46.417 89.044 46.3867 89.0804 46.3565C89.0934 46.3457 89.1063 46.335 89.1198 46.325C89.8237 45.8015 90.5915 45.4 91.4237 45.1238C92.3807 44.8059 93.3615 44.601 94.3681 44.5274C95.0304 44.479 95.6883 44.5035 96.3404 44.6366C96.7961 44.7293 97.2312 44.8789 97.6354 45.111C98.2906 45.4873 98.7522 46.0253 98.9885 46.748C99.137 47.2033 99.18 47.6717 99.1534 48.1478L99.1507 48.1956C99.1462 48.2762 99.1416 48.3569 99.1393 48.4374C99.1222 49.0516 99.1531 49.6618 99.2996 50.2612C99.3997 50.6708 99.5479 51.0609 99.7938 51.408C99.9598 51.6429 100.159 51.8438 100.404 51.9974C100.825 52.2621 101.289 52.3465 101.778 52.3105C102.149 52.2833 102.509 52.2003 102.858 52.0693C103.39 51.87 103.878 51.5915 104.345 51.2716C104.94 50.8634 105.479 50.3876 105.989 49.8782C106.007 49.8598 106.026 49.8416 106.045 49.8234C106.118 49.7523 106.192 49.6809 106.248 49.594C106.236 49.5931 106.224 49.5928 106.212 49.5933ZM73.2269 34.6255C73.1021 34.8263 72.9794 35.0286 72.8642 35.2348C72.9791 35.0293 73.1013 34.8278 73.2257 34.6276C73.4293 34.2997 73.6454 33.9805 73.8631 33.6619C74.0865 33.335 74.3227 33.0175 74.5707 32.7087C74.6026 32.669 74.644 32.6647 74.6836 32.6949C74.6964 32.7047 74.7085 32.7157 74.7196 32.7272C74.8083 32.8212 74.9027 32.9079 75.0173 32.9701C75.0357 32.9802 75.0529 32.995 75.067 33.0108C75.2111 33.1705 75.3717 33.3132 75.532 33.4557L75.5321 33.4558C75.5961 33.5126 75.66 33.5695 75.7229 33.6273C75.9563 33.8421 76.1814 34.0648 76.4065 34.2875L76.4067 34.2877C76.4826 34.3628 76.5585 34.4379 76.6348 34.5127C76.6576 34.5349 76.6838 34.554 76.7097 34.5728C76.8233 34.6535 76.9321 34.7395 77.0279 34.8416C77.131 34.9517 77.2434 35.052 77.3559 35.1523L77.3559 35.1523L77.3559 35.1523C77.4795 35.2626 77.6031 35.3728 77.7143 35.4962C77.8532 35.5925 77.9693 35.7135 78.0854 35.8343C78.1328 35.8837 78.1802 35.933 78.2291 35.9807C78.4058 36.1524 78.5906 36.3143 78.7815 36.4699C78.8104 36.4937 78.8366 36.521 78.8624 36.5482C78.9864 36.6797 79.1203 36.8007 79.2543 36.9217L79.2543 36.9218C79.375 37.0308 79.4957 37.1398 79.609 37.2565C79.6458 37.2943 79.6874 37.3282 79.7291 37.362L79.7291 37.3621L79.7291 37.3621C79.7876 37.4096 79.8463 37.4573 79.892 37.5165C79.9786 37.6287 80.0788 37.7195 80.1994 37.792C80.224 37.8068 80.2444 37.8296 80.2644 37.8518C80.2699 37.8579 80.2753 37.8639 80.2807 37.8697C80.3925 37.9883 80.5137 38.0972 80.6348 38.2061L80.6349 38.2061C80.769 38.3266 80.9032 38.4472 81.0246 38.581C81.1185 38.6454 81.1978 38.7258 81.2771 38.8061C81.3333 38.8632 81.3896 38.9202 81.451 38.9714C81.5506 39.0545 81.6427 39.1456 81.7345 39.2364L81.7346 39.2365C81.8218 39.3228 81.9088 39.4088 82.002 39.4878C82.0713 39.5464 82.136 39.6097 82.2005 39.6728L82.2006 39.6729C82.27 39.7408 82.3393 39.8086 82.414 39.8702C82.5012 39.9421 82.5814 40.0213 82.6616 40.1003L82.6616 40.1004C82.7417 40.1794 82.8217 40.2583 82.9082 40.3295C82.9969 40.4025 83.0785 40.4823 83.1599 40.5621L83.16 40.5621C83.2161 40.6171 83.2722 40.672 83.3306 40.7247C83.4216 40.8066 83.5184 40.8829 83.6152 40.9585C83.6494 40.9854 83.6804 41.0126 83.7049 41.0489C83.7684 41.143 83.8477 41.2216 83.9424 41.2854C83.9721 41.3055 83.9982 41.3307 84.0241 41.3558L84.0241 41.3559L84.0389 41.3701C84.1159 41.4436 84.1923 41.5178 84.2687 41.592L84.269 41.5923C84.4425 41.7609 84.6161 41.9294 84.7966 42.0898C84.9289 42.2074 85.0573 42.3281 85.185 42.45C85.216 42.4795 85.2523 42.5033 85.2886 42.5271L85.2886 42.5271L85.3012 42.5354C85.4145 42.6096 85.5082 42.7017 85.5888 42.8116C85.6453 42.8888 85.7128 42.9634 85.7901 43.0185C85.871 43.0762 85.9402 43.1447 86.0093 43.2133L86.0094 43.2133C86.035 43.2387 86.0606 43.2641 86.0868 43.289C86.1565 43.3554 86.2281 43.4198 86.2997 43.4842L86.2998 43.4843C86.4314 43.6027 86.563 43.721 86.6829 43.8518C86.7607 43.8991 86.824 43.9626 86.8873 44.0262L86.8873 44.0262C86.9185 44.0575 86.9496 44.0889 86.9826 44.1183C87.0363 44.1663 87.093 44.2111 87.1497 44.2559L87.1497 44.2559C87.1894 44.2872 87.2291 44.3186 87.2678 44.3511L87.2792 44.3606L87.2792 44.3606C87.3208 44.3952 87.3634 44.4307 87.3945 44.4741C87.4889 44.6065 87.6001 44.7197 87.7339 44.8124C87.7684 44.8364 87.7978 44.8681 87.8268 44.8994L87.8387 44.9122C87.9563 45.0386 88.0846 45.1537 88.2128 45.2689L88.2128 45.2689L88.2129 45.2689C88.336 45.3794 88.4592 45.49 88.5729 45.6104C88.6244 45.6652 88.6867 45.7103 88.7488 45.7552L88.7488 45.7552C88.7598 45.7632 88.7708 45.7711 88.7817 45.7791C88.787 45.783 88.7924 45.7869 88.7977 45.7909C88.8949 45.8634 88.9774 45.9508 89.0599 46.0382L89.0599 46.0382L89.0602 46.0384C89.0842 46.0639 89.1082 46.0894 89.1326 46.1144C89.1442 46.1265 89.1483 46.1432 89.1407 46.158C89.15 46.1425 89.1463 46.1247 89.1339 46.1123C89.11 46.0876 89.0864 46.0626 89.0628 46.0376C88.9798 45.9495 88.8968 45.8615 88.7989 45.7887C88.7823 45.7764 88.7654 45.7641 88.7486 45.7519C88.6872 45.7074 88.6255 45.6626 88.5741 45.6083C88.4602 45.4876 88.3366 45.3767 88.2132 45.2658L88.2132 45.2658C88.0852 45.1509 87.9573 45.036 87.84 44.9101L87.828 44.8973C87.7991 44.866 87.7697 44.8342 87.7351 44.8103C87.6017 44.7172 87.4905 44.604 87.3958 44.472C87.3657 44.4299 87.3242 44.3952 87.2836 44.3612L87.2691 44.349C87.2304 44.3165 87.1906 44.2851 87.1509 44.2537C87.0942 44.2089 87.0376 44.1642 86.9838 44.1161C86.9509 44.0868 86.9197 44.0554 86.8886 44.0241L86.8885 44.0241C86.8252 43.9605 86.762 43.8969 86.6841 43.8497C86.5642 43.7189 86.4326 43.6005 86.301 43.4821C86.2294 43.4177 86.1578 43.3533 86.088 43.2869C86.0626 43.2626 86.0376 43.2379 86.0127 43.2132C85.9429 43.1439 85.873 43.0746 85.7914 43.0164C85.7141 42.9613 85.6465 42.8867 85.5901 42.8094C85.5098 42.6992 85.4157 42.6075 85.3025 42.5332L85.2918 42.5263C85.2552 42.5023 85.2178 42.4779 85.1862 42.4479C85.0585 42.3259 84.9298 42.205 84.7978 42.0877C84.6172 41.9274 84.4439 41.759 84.2706 41.5906L84.2703 41.5903C84.1938 41.5159 84.1172 41.4416 84.0401 41.368L84.0253 41.3537C83.9994 41.3286 83.9733 41.3034 83.9437 41.2833C83.8493 41.2195 83.7696 41.1408 83.7061 41.0468C83.6816 41.0105 83.6507 40.9833 83.6164 40.9564C83.5197 40.8808 83.4229 40.8045 83.3318 40.7225C83.2736 40.67 83.2177 40.6152 83.1617 40.5604C83.0802 40.4805 82.9985 40.4005 82.9095 40.3274C82.8229 40.2561 82.7429 40.1772 82.6628 40.0982C82.5827 40.0192 82.5024 39.94 82.4152 39.8681C82.3405 39.8064 82.2712 39.7386 82.2017 39.6707C82.1372 39.6075 82.0725 39.5443 82.0033 39.4857C81.91 39.4067 81.823 39.3206 81.7358 39.2343C81.6439 39.1434 81.5519 39.0524 81.4522 38.9693C81.3906 38.918 81.3341 38.8608 81.2776 38.8034C81.1986 38.7233 81.1195 38.6431 81.0259 38.5788C80.9044 38.445 80.7702 38.3245 80.6361 38.204C80.5149 38.0951 80.3937 37.9862 80.2819 37.8675L80.2641 37.8481C80.2445 37.8263 80.2246 37.8044 80.2006 37.7899C80.08 37.7177 79.9799 37.6266 79.8932 37.5144C79.8475 37.4551 79.7888 37.4075 79.7304 37.3599C79.6887 37.326 79.6471 37.2922 79.6103 37.2543C79.4967 37.1374 79.376 37.0284 79.2554 36.9194C79.1214 36.7984 78.9876 36.6775 78.8637 36.546C78.8378 36.5188 78.8116 36.4913 78.7827 36.4677C78.5922 36.3122 78.4071 36.1502 78.2303 35.9785C78.1809 35.9304 78.1329 35.8806 78.0851 35.8307L78.085 35.8307L78.085 35.8307C77.9694 35.7103 77.8538 35.59 77.7156 35.494C77.6044 35.3707 77.4807 35.2604 77.3571 35.1502L77.3571 35.1502C77.2447 35.0499 77.1322 34.9496 77.0291 34.8395C76.9334 34.7373 76.8245 34.6513 76.7109 34.5707C76.6847 34.5522 76.6585 34.5331 76.636 34.5105C76.5599 34.4359 76.4841 34.3609 76.4084 34.286L76.4079 34.2855C76.1827 34.0628 75.9575 33.84 75.7241 33.6252C75.6613 33.5673 75.5973 33.5104 75.5333 33.4536L75.5332 33.4535C75.3729 33.311 75.2123 33.1683 75.0682 33.0086C75.0541 32.9928 75.037 32.978 75.0185 32.968C74.9036 32.9058 74.8092 32.8191 74.7208 32.725C74.7097 32.7133 74.6976 32.7025 74.6848 32.6928C74.6452 32.6625 74.6039 32.6669 74.572 32.7066C74.324 33.0153 74.0878 33.3329 73.8643 33.6598C73.6466 33.9783 73.4306 34.2975 73.2269 34.6255ZM105.981 49.6801C105.958 49.6815 105.939 49.6668 105.916 49.636C105.889 49.5996 105.864 49.5627 105.838 49.5258C105.809 49.4838 105.78 49.4419 105.749 49.4007C105.648 49.2669 105.552 49.1288 105.457 48.9913L105.456 48.9912C105.421 48.9402 105.385 48.8891 105.35 48.8383C105.326 48.8047 105.303 48.7707 105.28 48.7368C105.237 48.6736 105.193 48.6103 105.147 48.5493C105.087 48.4694 105.067 48.3904 105.111 48.2953C105.136 48.2426 105.15 48.1851 105.148 48.1239C105.147 48.0685 105.169 48.0175 105.19 47.9673L105.202 47.9402C105.262 47.7959 105.323 47.651 105.384 47.5068L105.385 47.5033C105.468 47.3086 105.55 47.1137 105.631 46.9184C105.687 46.7821 105.737 46.6426 105.787 46.5037L105.789 46.4974C105.806 46.4494 105.823 46.4015 105.841 46.3536L105.842 46.3505C105.901 46.1887 105.96 46.0268 106.009 45.862C106.091 45.5898 106.164 45.3151 106.236 45.0403L106.237 45.0403L106.273 44.903L106.277 44.8861C106.287 44.8502 106.296 44.8148 106.312 44.7814C106.329 44.7471 106.336 44.7119 106.34 44.6736C106.359 44.4928 106.388 44.3137 106.453 44.143C106.467 44.1064 106.468 44.0698 106.469 44.0321C106.469 44.0187 106.469 44.0048 106.468 43.991C106.467 43.9607 106.465 43.9304 106.475 43.9041C106.527 43.76 106.539 43.6121 106.537 43.4613C106.536 43.4505 106.538 43.4391 106.542 43.4297C106.601 43.298 106.601 43.1585 106.599 43.0188C106.631 42.9206 106.632 42.8192 106.632 42.7176C106.632 42.6263 106.633 42.5348 106.657 42.4452C106.671 42.3924 106.668 42.3352 106.665 42.2781C106.664 42.2613 106.663 42.2444 106.663 42.2277C106.662 42.2199 106.662 42.2121 106.662 42.2043L106.664 41.8659C106.664 41.8014 106.668 41.7389 106.683 41.6747C106.704 41.5807 106.705 41.4819 106.682 41.3875C106.667 41.329 106.664 41.2712 106.664 41.2124L106.663 41.0795V41.0783C106.663 41.0049 106.663 40.9315 106.662 40.8579C106.662 40.8515 106.662 40.845 106.662 40.8386C106.662 40.8264 106.662 40.8142 106.662 40.802C106.662 40.719 106.662 40.6363 106.637 40.5545C106.628 40.5274 106.629 40.4973 106.63 40.4671C106.63 40.4535 106.631 40.4399 106.63 40.4265C106.628 40.3544 106.621 40.2824 106.615 40.2108V40.2107L106.608 40.1396C106.603 40.0834 106.596 40.0276 106.588 39.9717L106.588 39.9715C106.578 39.8897 106.567 39.8079 106.563 39.7253C106.559 39.6188 106.544 39.5126 106.526 39.4074C106.497 39.246 106.466 39.0851 106.435 38.9242L106.404 38.763L106.396 38.7166C106.386 38.6638 106.376 38.611 106.363 38.559C106.336 38.457 106.309 38.3551 106.282 38.2534L106.282 38.2525C106.252 38.1429 106.223 38.0333 106.195 37.9233C106.108 37.5847 105.995 37.2544 105.882 36.9241L105.882 36.9241L105.862 36.8659C105.763 36.5766 105.649 36.2937 105.531 36.0118C105.374 35.6351 105.192 35.2706 105.008 34.9067C104.866 34.6244 104.706 34.3513 104.541 34.0815C104.407 33.8624 104.272 33.6433 104.125 33.4323C103.915 33.1289 103.702 32.8272 103.475 32.5359C103.345 32.3684 103.207 32.2059 103.07 32.0435C103.028 31.9934 102.985 31.9433 102.943 31.8931C102.587 31.4687 102.194 31.0813 101.8 30.6946C101.632 30.5299 101.456 30.3734 101.274 30.2232C101.234 30.1899 101.195 30.1551 101.156 30.1203C101.107 30.0767 101.058 30.0331 101.006 29.9923C100.945 29.9437 100.885 29.8932 100.825 29.8428C100.746 29.7763 100.667 29.7098 100.584 29.6473C100.303 29.4336 100.021 29.2209 99.7327 29.0173C99.5143 28.863 99.2882 28.7186 99.06 28.5781C98.7452 28.3846 98.43 28.1914 98.1048 28.015C97.8309 27.8665 97.5537 27.726 97.2745 27.5886C96.9093 27.4085 96.5356 27.2459 96.1566 27.0967C95.8479 26.9751 95.5384 26.8541 95.2249 26.7452C95.0674 26.6904 94.9073 26.6432 94.7472 26.596C94.6454 26.566 94.5436 26.536 94.4424 26.504C94.0798 26.3891 93.7106 26.3007 93.341 26.2133C93.0291 26.1398 92.7177 26.0668 92.3998 26.0228C92.3122 26.0107 92.2252 25.9934 92.1383 25.976C92.0682 25.962 91.9982 25.9481 91.9277 25.9368C91.8544 25.9253 91.7804 25.918 91.7064 25.9107C91.6634 25.9065 91.6205 25.9022 91.5776 25.8972C91.569 25.8962 91.5604 25.8951 91.5517 25.894C91.5372 25.8923 91.5226 25.8905 91.5081 25.8889C91.5326 25.8915 91.557 25.8941 91.5814 25.897C91.624 25.902 91.6668 25.9062 91.7095 25.9104L91.7096 25.9104C91.7838 25.9176 91.858 25.9249 91.9315 25.9366C92.003 25.9479 92.0741 25.9621 92.1452 25.9763L92.1453 25.9763C92.2311 25.9935 92.317 26.0107 92.4036 26.0226C92.7214 26.0667 93.0333 26.1396 93.3447 26.2132C93.7143 26.3008 94.0836 26.3889 94.4461 26.5038C94.5478 26.536 94.6502 26.5661 94.7525 26.5963L94.7526 26.5963L94.7526 26.5963C94.9121 26.6434 95.0717 26.6904 95.2287 26.745C95.5422 26.8539 95.8516 26.9749 96.1604 27.0965C96.5394 27.2457 96.9131 27.4083 97.2783 27.5884C97.5572 27.7258 97.8347 27.8663 98.1085 28.0148C98.4341 28.1912 98.749 28.3844 99.0638 28.5779C99.2916 28.718 99.5177 28.8625 99.7365 29.0171C100.025 29.2207 100.307 29.4334 100.588 29.6471C100.67 29.7093 100.749 29.7756 100.828 29.8419C100.888 29.8926 100.949 29.9432 101.01 29.9922C101.062 30.0329 101.111 30.0765 101.16 30.1201L101.16 30.1202C101.199 30.155 101.237 30.1897 101.278 30.223C101.459 30.3732 101.636 30.5298 101.804 30.6944C102.198 31.0815 102.591 31.4685 102.947 31.8929C102.989 31.943 103.031 31.9929 103.073 32.0428C103.211 32.2053 103.348 32.3678 103.479 32.5357C103.705 32.827 103.919 33.1287 104.129 33.4321C104.275 33.6431 104.411 33.8622 104.545 34.0813C104.71 34.3508 104.869 34.6243 105.012 34.9065C105.196 35.2704 105.378 35.635 105.535 36.0116C105.653 36.2938 105.767 36.5768 105.866 36.8657L105.879 36.9047L105.879 36.9049C105.995 37.2416 106.11 37.578 106.199 37.9231C106.227 38.0333 106.256 38.1432 106.286 38.253L106.286 38.2537C106.313 38.3553 106.34 38.4569 106.366 38.5588C106.38 38.61 106.389 38.6619 106.399 38.7139L106.408 38.7628L106.439 38.9238C106.47 39.0847 106.501 39.2457 106.529 39.4072C106.548 39.5124 106.562 39.6189 106.567 39.7251C106.571 39.8077 106.581 39.8895 106.592 39.9713C106.599 40.0272 106.607 40.0832 106.612 40.1394L106.618 40.2017C106.625 40.2764 106.632 40.3511 106.634 40.4263C106.635 40.4389 106.634 40.4519 106.634 40.4648V40.465C106.633 40.4958 106.632 40.5267 106.64 40.5543C106.666 40.6361 106.666 40.719 106.666 40.802V40.802C106.666 40.8206 106.666 40.8392 106.666 40.8577C106.667 40.9328 106.667 41.0077 106.667 41.0827V41.0835L106.667 41.2122C106.668 41.271 106.671 41.3285 106.685 41.3873C106.709 41.4817 106.708 41.5805 106.687 41.6746C106.672 41.7387 106.667 41.8016 106.667 41.8658L106.666 42.2041C106.666 42.2285 106.667 42.2532 106.669 42.2779C106.672 42.335 106.675 42.3922 106.66 42.445C106.637 42.5344 106.636 42.6257 106.636 42.7169V42.7169C106.636 42.8187 106.635 42.9202 106.602 43.0186C106.605 43.1583 106.605 43.2978 106.546 43.4295C106.542 43.4392 106.54 43.4507 106.54 43.4611C106.543 43.6119 106.531 43.7601 106.479 43.9039C106.469 43.9302 106.471 43.9605 106.472 43.9908C106.472 44.0046 106.473 44.0185 106.473 44.0319C106.472 44.0696 106.471 44.1065 106.457 44.1428C106.392 44.3139 106.363 44.4926 106.344 44.6734C106.34 44.7113 106.332 44.747 106.316 44.7812C106.3 44.8146 106.291 44.85 106.281 44.8858L106.281 44.8858L106.277 44.9029L106.238 45.0492L106.238 45.0494C106.166 45.3209 106.094 45.5927 106.013 45.8618C105.964 46.0267 105.905 46.1886 105.846 46.3504C105.828 46.3993 105.81 46.4482 105.793 46.4972L105.784 46.5207L105.784 46.5208C105.736 46.654 105.688 46.7875 105.634 46.9182C105.555 47.11 105.474 47.3012 105.394 47.4924C105.331 47.6415 105.268 47.7906 105.206 47.94L105.195 47.9637C105.173 48.0149 105.15 48.067 105.152 48.1238C105.153 48.1849 105.139 48.2424 105.115 48.2951C105.071 48.3902 105.091 48.4692 105.151 48.5491C105.197 48.61 105.24 48.6735 105.283 48.7366C105.307 48.7706 105.33 48.8045 105.353 48.8381L105.451 48.9786C105.55 49.1205 105.649 49.2624 105.753 49.4006C105.783 49.441 105.812 49.4823 105.84 49.5236C105.866 49.5613 105.893 49.5989 105.92 49.6358C105.942 49.6652 105.96 49.6798 105.981 49.6801ZM91.5036 25.8885L91.5036 25.8885C91.5051 25.8886 91.5066 25.8888 91.5081 25.8889C91.5066 25.8888 91.5051 25.8886 91.5036 25.8885ZM91.5036 25.8885L91.4889 25.887C91.4173 25.8797 91.3461 25.8724 91.2766 25.8555C91.2073 25.8387 91.1395 25.8347 91.0699 25.8333L91.0482 25.833C91.0073 25.8327 90.9665 25.8323 90.9268 25.8169C90.907 25.8095 90.8851 25.8031 90.8643 25.8038C90.7653 25.8076 90.6672 25.7962 90.569 25.7848C90.4723 25.7736 90.3755 25.7624 90.2778 25.7657C90.3766 25.7621 90.4744 25.7734 90.5722 25.7847C90.6705 25.796 90.7688 25.8074 90.8681 25.8036C90.8889 25.8026 90.9107 25.8089 90.9306 25.8167C90.9702 25.8321 91.0111 25.8325 91.052 25.8328L91.0737 25.8331C91.1432 25.8345 91.2111 25.8385 91.2803 25.8553C91.3532 25.8728 91.4284 25.8806 91.5036 25.8885ZM103.7 41.6039C103.697 41.622 103.694 41.6404 103.676 41.6536C103.64 41.6607 103.612 41.6425 103.584 41.6243C103.576 41.6192 103.568 41.6141 103.56 41.6096C103.117 41.3572 102.668 41.1146 102.213 40.8831C101.048 40.2908 99.8526 39.7696 98.6074 39.3681C97.8706 39.1302 97.122 38.9397 96.3596 38.804C95.5058 38.6521 94.6456 38.5778 93.7781 38.5829C92.7482 38.5886 91.7318 38.7142 90.7222 38.9091C90.1718 39.0153 89.6255 39.1397 89.0792 39.264C88.8928 39.3065 88.7063 39.3489 88.5197 39.3906C87.8803 39.5338 87.2395 39.6692 86.59 39.7589C85.9557 39.8462 85.3183 39.8892 84.6775 39.864C84.231 39.8466 83.7881 39.7992 83.358 39.6692C82.7932 39.4985 82.2906 39.2226 81.8746 38.7969C81.4825 38.3954 81.2248 37.9189 81.0648 37.3857C80.9277 36.9284 80.8831 36.4597 80.8988 35.9839C80.919 35.3825 81.041 34.8012 81.2453 34.237C81.5695 33.3416 82.0604 32.547 82.7022 31.844C83.5244 30.9432 84.5112 30.283 85.6371 29.8233C86.2114 29.5888 86.8074 29.4292 87.4126 29.3008C87.9754 29.1816 88.5435 29.0942 89.1161 29.0398C89.909 28.9642 90.703 28.9464 91.4987 28.9951C92.8319 29.0767 94.1282 29.3358 95.3842 29.7924C96.7026 30.2719 97.9122 30.9476 99.015 31.8141C99.6924 32.3464 100.324 32.928 100.9 33.5694C101.79 34.5606 102.52 35.6546 103.036 36.8871C103.323 37.5729 103.533 38.2818 103.657 39.015C103.745 39.5294 103.794 40.0478 103.788 40.57C103.784 40.9137 103.763 41.2568 103.701 41.5961L103.7 41.6039ZM63.8936 55.7766L63.8932 55.7215C63.8925 55.6493 63.8921 55.6138 63.9097 55.5966C63.9267 55.5799 63.9605 55.5804 64.0271 55.5812H64.0271H64.0271H64.0271H64.0271H64.0271H64.0271H64.0272H64.0274H64.0276H64.0278H64.028H64.0282C64.0473 55.5815 64.069 55.5818 64.0938 55.5817C64.3266 55.5808 64.5594 55.5811 64.792 55.5814L65.1408 55.5817L65.1594 55.5817C65.1962 55.5817 65.233 55.5816 65.2695 55.5831C65.2994 55.5844 65.3202 55.6002 65.3219 55.6321C65.3239 55.6698 65.3246 55.7071 65.3246 55.7447L65.3246 64.6242C65.3247 64.6996 65.3248 64.7358 65.3067 64.7531C65.29 64.7691 65.2579 64.7689 65.1961 64.7685L65.1563 64.7683C64.9164 64.7685 64.6765 64.7685 64.4367 64.7684H64.4277L64.0609 64.7683L64.0448 64.7683C64.0126 64.7684 63.9803 64.7684 63.948 64.767C63.9178 64.7653 63.8973 64.7492 63.8956 64.7176C63.8933 64.6695 63.8926 64.6212 63.8926 64.5728L63.8936 55.7766ZM88.9823 64.0066C88.9979 63.9826 89.0149 63.9565 89.0605 63.9497C89.0637 64.0083 89.0704 64.0666 89.077 64.1245C89.083 64.1758 89.0889 64.2272 89.0924 64.2789C89.1007 64.4065 89.1121 64.5342 89.1235 64.6617L89.1266 64.6962C89.132 64.757 89.1427 64.7654 89.2093 64.7685C89.2294 64.7695 89.2496 64.7693 89.2698 64.7692L89.2899 64.7691H90.2408L90.2758 64.7692C90.3417 64.7695 90.3752 64.7696 90.3922 64.7529C90.4097 64.7356 90.4097 64.7004 90.4095 64.6287L90.4095 64.6058V55.7425L90.4096 55.7209L90.4098 55.694L90.4095 55.678C90.4068 55.5896 90.4014 55.5839 90.3201 55.5812L90.2964 55.5809L90.2663 55.581L90.2395 55.5812H89.1438L89.1093 55.5811C89.0406 55.5807 89.0061 55.5805 88.9889 55.5977C88.9716 55.6149 88.9718 55.6497 88.9723 55.7194L88.9724 55.7576V58.9966L88.9725 59.0329V59.0331C88.9726 59.0693 88.9727 59.1056 88.9717 59.1418L88.9717 59.1508C88.972 59.1734 88.9723 59.198 88.927 59.206L88.911 59.1861C88.8988 59.1708 88.885 59.1536 88.8699 59.1378C88.6579 58.918 88.4086 58.7527 88.125 58.6412C87.4916 58.3918 86.8438 58.3767 86.1974 58.5669C85.2045 58.8589 84.5446 59.5151 84.1941 60.4818C84.0003 61.016 83.9589 61.5697 84.0261 62.1332C84.0896 62.6651 84.2536 63.162 84.558 63.6029C85.2263 64.5709 86.1584 65.0077 87.326 64.9103C87.9923 64.8545 88.5447 64.5514 88.9684 64.0266C88.9733 64.0205 88.9777 64.0137 88.9823 64.0067L88.9823 64.0067L88.9823 64.0067L88.9823 64.0066ZM89.0964 61.6312C89.1028 61.4925 89.0766 61.2956 89.0255 61.1027C88.8763 60.5372 88.5443 60.1239 87.9926 59.9089C87.6825 59.7879 87.3586 59.7543 87.0266 59.799C86.3422 59.8911 85.8637 60.253 85.6194 60.8981C85.4242 61.4138 85.4279 61.9427 85.6161 62.4605C85.8174 63.0139 86.2091 63.37 86.7837 63.5172C87.0743 63.5915 87.368 63.5995 87.6627 63.5444C88.2345 63.4376 88.6556 63.1298 88.9065 62.5999C89.0423 62.313 89.0944 62.0082 89.0964 61.6312ZM93.4491 63.9644L93.4364 64.0913C93.4292 64.1635 93.4219 64.2365 93.4151 64.3091C93.4098 64.3674 93.4048 64.4257 93.3998 64.484C93.3938 64.5541 93.3878 64.6241 93.3812 64.6942C93.3751 64.7584 93.3667 64.7647 93.3005 64.7681C93.2833 64.7689 93.2661 64.7688 93.2489 64.7688L93.236 64.7688H92.2368C92.2045 64.7688 92.1722 64.7674 92.1407 64.7641C92.1165 64.7614 92.103 64.7446 92.1017 64.7207C92.0993 64.6831 92.0983 64.6458 92.0983 64.6082V55.7438L92.0983 55.7224C92.0982 55.6497 92.0981 55.6141 92.1158 55.5969C92.1328 55.5804 92.166 55.5806 92.231 55.581L92.2673 55.5812H93.3795C93.4171 55.5812 93.4548 55.5822 93.4921 55.5849C93.5152 55.5865 93.5324 55.601 93.5341 55.6252C93.5367 55.6732 93.5381 55.7216 93.5381 55.77V58.9936L93.538 59.0226C93.5379 59.0613 93.5378 59.1 93.5394 59.1387C93.5401 59.1529 93.5458 59.1697 93.5552 59.1794C93.5681 59.1931 93.5796 59.1831 93.5898 59.1741L93.5959 59.169C93.6052 59.1619 93.6133 59.1532 93.6212 59.1445L93.6302 59.135C93.9826 58.7789 94.413 58.5685 94.9019 58.4899C95.7631 58.3515 96.5597 58.5195 97.265 59.0457C97.8329 59.4694 98.1917 60.0382 98.3755 60.7183C98.487 61.1312 98.521 61.5519 98.4854 61.9796C98.4504 62.3959 98.3597 62.7975 98.1806 63.1748C97.77 64.0403 97.1094 64.6112 96.1733 64.8477C95.9805 64.8964 95.7839 64.9227 95.5837 64.9196L95.4991 64.9186C95.2966 64.9165 95.0948 64.9144 94.8945 64.8696C94.3512 64.7479 93.8963 64.4852 93.5472 64.0474C93.5236 64.0181 93.4988 63.9899 93.4739 63.962C93.4737 63.9617 93.4733 63.9615 93.4729 63.9614C93.4721 63.9611 93.4711 63.9611 93.4697 63.9612L93.4628 63.9623C93.4591 63.963 93.4545 63.9638 93.4491 63.9644ZM97.0258 61.6419C97.0298 61.4407 96.9965 61.2072 96.9213 60.9817C96.7271 60.4008 96.3417 60.0127 95.747 59.848C95.4862 59.7758 95.2194 59.761 94.9493 59.7993C94.3092 59.8904 93.8378 60.216 93.5838 60.814C93.3449 61.3768 93.3462 61.9554 93.5717 62.5233C93.78 63.0474 94.1708 63.3757 94.7171 63.5155C95.0017 63.5881 95.2893 63.5988 95.579 63.5474C96.1918 63.4385 96.6246 63.1015 96.8679 62.527C96.9828 62.2562 97.0265 61.9716 97.0258 61.6419ZM114.811 63.0334L114.838 63.0576L114.839 63.0578C114.848 63.0662 114.857 63.074 114.866 63.0816C114.87 63.0858 114.875 63.09 114.879 63.0942C115.137 63.3597 115.396 63.6251 115.654 63.8909L115.667 63.9033C115.674 63.9105 115.682 63.9178 115.688 63.9255C115.72 63.9611 115.721 63.9772 115.691 64.0075C115.672 64.0268 115.652 64.0449 115.631 64.0631L115.62 64.073C115.155 64.487 114.612 64.7467 114.004 64.8619C113.422 64.9721 112.84 64.9661 112.263 64.8146C111.052 64.496 110.202 63.5747 109.983 62.3429C109.88 61.7677 109.897 61.1962 110.067 60.6371C110.385 59.5914 111.074 58.9087 112.12 58.5938C112.6 58.4494 113.091 58.4272 113.588 58.4826C113.906 58.5179 114.212 58.5949 114.502 58.7276C115.262 59.0757 115.743 59.666 115.977 60.461C116.078 60.803 116.125 61.1545 116.1 61.5113C116.088 61.6865 116.063 61.861 116.039 62.0353L116.039 62.0354L116.039 62.0355L116.039 62.0356L116.039 62.0357L116.039 62.0358L116.039 62.0359L116.039 62.036L116.039 62.0361L116.039 62.0362L116.039 62.0363L116.025 62.1343C116.014 62.2153 116.005 62.2173 115.919 62.2196L115.889 62.22L115.871 62.2201L115.833 62.2198L115.79 62.2196H111.631C111.577 62.2196 111.524 62.2196 111.47 62.223C111.431 62.225 111.416 62.2462 111.425 62.2885C111.475 62.5392 111.573 62.77 111.721 62.979C111.987 63.3553 112.358 63.5667 112.805 63.6423C113.347 63.734 113.863 63.6446 114.346 63.3785C114.512 63.2874 114.659 63.1712 114.811 63.0334ZM111.424 61.1155C111.452 61.1315 111.483 61.1305 111.513 61.1295L111.534 61.129C112.533 61.1293 113.532 61.1293 114.531 61.129C114.563 61.129 114.596 61.129 114.628 61.1253C114.651 61.1226 114.667 61.1048 114.668 61.0823C114.67 61.0503 114.668 61.0177 114.664 60.9858C114.605 60.4956 114.329 60.0108 113.701 59.8139C113.393 59.7171 113.077 59.7107 112.761 59.7581C112.546 59.7903 112.345 59.8639 112.161 59.9802C111.751 60.2392 111.524 60.6223 111.417 61.085C111.416 61.0871 111.416 61.0893 111.417 61.0916C111.417 61.0941 111.418 61.0967 111.419 61.0994L111.421 61.106C111.422 61.1092 111.423 61.1124 111.424 61.1155ZM108.585 58.812L108.584 64.5825L108.585 64.6273C108.585 64.7034 108.585 64.7403 108.567 64.7581C108.55 64.7748 108.516 64.7745 108.45 64.7739L108.395 64.7737C108.195 64.7741 107.994 64.774 107.794 64.7738L107.493 64.7737C107.472 64.7737 107.45 64.7735 107.429 64.7733L107.364 64.7723C107.325 64.7717 107.308 64.7498 107.304 64.7122C107.3 64.6614 107.295 64.6107 107.289 64.56L107.289 64.5593C107.285 64.5194 107.281 64.4796 107.277 64.4397C107.272 64.3808 107.266 64.3219 107.261 64.2631C107.254 64.1883 107.247 64.1135 107.24 64.0388C107.239 64.0304 107.232 64.019 107.224 64.0157C107.216 64.0126 107.202 64.0146 107.197 64.0204C107.175 64.0439 107.155 64.0691 107.135 64.0946C106.756 64.5858 106.25 64.856 105.64 64.9161C105.198 64.9598 104.76 64.9188 104.347 64.731C103.618 64.4 103.187 63.8335 103.022 63.0567C102.982 62.8665 102.971 62.6733 102.97 62.4798C102.97 61.7111 102.97 60.9424 102.97 60.1736L102.97 58.7588C102.97 58.6825 102.97 58.6457 102.988 58.628C103.005 58.6115 103.038 58.6117 103.102 58.612L103.125 58.6121H104.253C104.285 58.6121 104.317 58.6121 104.35 58.6138C104.379 58.6158 104.401 58.6302 104.402 58.6625C104.404 58.7109 104.405 58.7589 104.405 58.8073V62.256C104.405 62.3743 104.408 62.4916 104.432 62.6085C104.509 62.9855 104.714 63.2664 105.056 63.4411C105.574 63.7059 106.327 63.6447 106.795 63.1488C107.005 62.9257 107.121 62.6596 107.15 62.3555C107.158 62.2648 107.158 62.173 107.158 62.082C107.159 61.5366 107.159 60.9914 107.159 60.4461C107.159 59.9009 107.159 59.3557 107.159 58.8103L107.159 58.7557C107.158 58.6816 107.158 58.6453 107.176 58.6276C107.193 58.6106 107.227 58.611 107.295 58.6117L107.327 58.612L107.357 58.6121C107.589 58.6114 107.821 58.6116 108.052 58.6119H108.055L108.405 58.6121L108.426 58.612C108.462 58.612 108.498 58.6119 108.534 58.6141C108.565 58.6161 108.581 58.6366 108.582 58.6672C108.584 58.7156 108.585 58.764 108.585 58.812ZM72.5599 62.6621C72.56 63.3013 72.56 63.9407 72.5598 64.58L72.5602 64.637C72.561 64.7069 72.5614 64.7414 72.5443 64.7583C72.5276 64.7749 72.4941 64.7744 72.4277 64.7736C72.4079 64.7733 72.385 64.773 72.3589 64.7732C72.149 64.7741 71.939 64.7739 71.729 64.7737H71.727L71.4564 64.7735C71.4187 64.7735 71.3811 64.7728 71.3435 64.7722C71.3122 64.7715 71.2941 64.7547 71.2894 64.7248C71.2823 64.6771 71.2753 64.629 71.2712 64.581C71.2602 64.4546 71.2498 64.3285 71.2394 64.2022L71.2296 64.0834L71.2289 64.0752C71.2279 64.0617 71.2269 64.0482 71.2235 64.0356C71.2212 64.0269 71.2131 64.0162 71.205 64.0131C71.1973 64.0101 71.1822 64.0125 71.1772 64.0185C71.1607 64.0382 71.145 64.0587 71.1292 64.0792C71.1155 64.0971 71.1017 64.115 71.0874 64.1324C70.7047 64.6035 70.2044 64.8625 69.6057 64.916C69.2025 64.9519 68.8003 64.923 68.4176 64.7668C67.6532 64.4543 67.1905 63.8885 67.0111 63.0868C66.9664 62.8872 66.9489 62.6839 66.9493 62.479C66.9498 61.808 66.9498 61.137 66.9497 60.466V60.4649C66.9497 59.9061 66.9496 59.3474 66.9499 58.7887L66.9496 58.7413C66.949 58.6779 66.9486 58.6453 66.9647 58.6287C66.9817 58.6111 67.017 58.6112 67.0893 58.6115L67.12 58.6116H68.2318C68.2694 58.6116 68.3067 58.6123 68.344 58.616C68.3672 58.618 68.3833 58.6344 68.3847 58.658C68.3873 58.706 68.388 58.7544 68.388 58.8028V62.2192L68.3879 62.2621C68.3875 62.3712 68.3872 62.4806 68.4088 62.5885C68.5036 63.0633 68.7821 63.3808 69.2431 63.5219C69.7421 63.6748 70.2122 63.6005 70.6302 63.281C70.947 63.0391 71.1053 62.7064 71.1372 62.3123C71.1419 62.2534 71.1415 62.1939 71.1411 62.1344L71.1409 62.0707V58.8155L71.1407 58.7803C71.1405 58.7491 71.1403 58.7178 71.1415 58.6865C71.1439 58.6254 71.155 58.6133 71.2198 58.6126C71.3561 58.6114 71.4922 58.6116 71.6284 58.6118H71.6285H71.6285H71.6285H71.6285H71.6286H71.6286H71.6286H71.6298L71.784 58.6119L71.9576 58.6118C72.1306 58.6117 72.3038 58.6116 72.4768 58.6126C72.5494 58.6129 72.5568 58.6223 72.5591 58.6976C72.5601 58.7277 72.5599 58.7578 72.5596 58.7879L72.5595 58.8266L72.5599 62.6621ZM78.5056 60.3725L78.4876 60.3567C78.4759 60.3466 78.4654 60.3375 78.4562 60.3271C78.2105 60.0519 77.8994 59.8934 77.5422 59.8221C77.1814 59.7499 76.8255 59.7714 76.4805 59.9038C76.041 60.0724 75.7359 60.3826 75.5501 60.8116C75.4486 61.0455 75.3962 61.2911 75.3851 61.5458C75.3723 61.8381 75.3949 62.1261 75.4906 62.404C75.6949 62.997 76.0947 63.3824 76.7093 63.5312C77.006 63.6031 77.306 63.6035 77.6037 63.5359C77.9377 63.46 78.2206 63.2927 78.4535 63.041C78.4827 63.0094 78.5119 62.9782 78.5415 62.9473C78.5437 62.9451 78.5473 62.9445 78.5509 62.9438L78.554 62.9433L78.5566 62.9426C78.6759 63.0269 79.4796 63.7735 79.567 63.8817C79.5589 63.9111 79.5383 63.9315 79.5179 63.9517L79.5074 63.9621L79.5005 63.9694C79.0848 64.4149 78.5744 64.6948 77.9851 64.8359C77.7442 64.8937 77.4999 64.9277 77.2513 64.9203C77.1884 64.9184 77.1255 64.9186 77.0626 64.9188H77.0625C76.943 64.9191 76.8236 64.9195 76.7043 64.9058C75.2843 64.7432 74.2222 63.7621 73.9655 62.3895C73.8489 61.7652 73.8711 61.1466 74.0818 60.5459C74.4272 59.5617 75.1056 58.9058 76.1025 58.6038C76.9667 58.3417 77.8215 58.3958 78.6467 58.7772C78.9467 58.9156 79.2128 59.1051 79.447 59.339C79.4658 59.3578 79.4847 59.3773 79.5025 59.3974C79.5189 59.4159 79.5173 59.4367 79.5025 59.4552C79.4924 59.4676 79.4803 59.4787 79.4685 59.4895L79.2352 59.7061L79.2311 59.7098L79.225 59.7155C79.0031 59.9215 78.7811 60.1275 78.559 60.3332C78.5484 60.343 78.5363 60.3512 78.5232 60.36L78.5056 60.3725ZM99.9071 64.5419V55.7753L99.9069 55.726V55.726C99.9063 55.6511 99.906 55.6146 99.9241 55.5969C99.9413 55.5801 99.9752 55.5805 100.041 55.5811L100.093 55.5814C100.33 55.581 100.566 55.5811 100.802 55.5813L101.157 55.5814L101.182 55.5813H101.182C101.211 55.5812 101.24 55.5811 101.27 55.5824C101.324 55.5848 101.338 55.5972 101.341 55.6466C101.343 55.6708 101.343 55.695 101.342 55.7192L101.342 55.7434V64.6064L101.342 64.6287C101.342 64.7001 101.342 64.735 101.325 64.7521C101.308 64.7686 101.275 64.7685 101.21 64.7684H101.21L101.189 64.7683H100.012C99.9132 64.7656 99.9098 64.763 99.9071 64.6709C99.9062 64.6423 99.9065 64.6135 99.9068 64.5849L99.9071 64.5419ZM82.5042 64.596L82.5043 64.6294C82.5046 64.7029 82.5047 64.7387 82.4869 64.756C82.47 64.7724 82.437 64.7721 82.3727 64.7716L82.3325 64.7714H81.2364C81.1988 64.7714 81.1612 64.7708 81.1239 64.7681C81.1 64.7661 81.0856 64.7489 81.0839 64.7257C81.0809 64.6884 81.0799 64.6508 81.0799 64.6132V58.7792C81.0799 58.7416 81.0809 58.7039 81.0822 58.6666C81.0832 58.6357 81.1 58.6166 81.1306 58.6135C81.1527 58.6113 81.1753 58.6114 81.1978 58.6115L81.2112 58.6115H82.3715L82.3849 58.6115C82.4073 58.6114 82.4297 58.6113 82.4521 58.6135C82.4823 58.6166 82.5008 58.634 82.5018 58.6656C82.5032 58.714 82.5042 58.7624 82.5042 58.8104V64.596ZM82.6825 56.8565C82.705 57.2624 82.364 57.759 81.786 57.759C81.2877 57.759 80.8825 57.3494 80.8872 56.8528C80.8923 56.2991 81.3647 55.957 81.7978 55.9597C82.283 55.9624 82.7037 56.3885 82.6825 56.8565Z" fill="#1F87F6"/>
</svg>
