<svg width="180" height="80" viewBox="0 0 180 80" fill="none" xmlns="http://www.w3.org/2000/svg">
<path fill-rule="evenodd" clip-rule="evenodd" d="M28.6794 36.017L34.824 47.3067H37.6308L43.7565 36.017V47.3067H47.1486V32.6875H41.9422L36.2644 43.0256L30.5878 32.6875H25.3105V47.3067H28.6794V36.017ZM54.6795 47.3067H58.1434V32.6875H54.6795V47.3067ZM64.8455 40.4891H75.2817C77.3073 40.4891 78.4624 39.609 78.4624 38.0867C78.4624 36.5409 77.3073 35.6607 75.2817 35.6607H64.8455V32.6875H75.4664C79.3065 32.6875 81.8987 34.5427 81.8987 38.0632C81.8987 40.679 80.3907 42.4192 77.9878 43.0815L82.3025 47.3067H78.3196L74.3368 43.4143H68.3061V47.3067H64.8433L64.8455 40.4891ZM90.0052 47.3068L96.7661 36.1376L103.503 47.3068H107.249L98.721 32.6875H94.8344L86.3068 47.3068H90.0052ZM128.612 47.3067H125.549L114.5 37.1351V47.3067H111.156V32.6875H114.69L125.243 42.293V32.6875H128.612V47.3067ZM137.445 47.3068L144.207 36.1376L150.944 47.3068H154.69L146.161 32.6875H142.274L133.747 47.3068H137.445Z" fill="white"/>
</svg>
