<svg
  width="100"
  height="100"
  viewBox="0 0 100 100"
  fill="none"
  xmlns="http://www.w3.org/2000/svg"
>
  <path
    d="M13.8461 20h72.3077v.7692H13.8461V20zM13.8461 81.5386h72.3077v.7692H13.8461v-.7692zM13.8461 50.7693h72.3077v.7692H13.8461v-.7692z"
    fill="#3A4550"
  />
  <path
    fill-rule="evenodd"
    clip-rule="evenodd"
    d="M85.8909 21.0172c.9252.2796 1.4485 1.2563 1.1688 2.1815l-9.884 32.7006c-1.3246 4.3825-7.4362 4.631-9.1123.3705l-2.4692-6.2766c-.4667-1.1863-2.1749-1.096-2.5139.1329l-4.8471 17.5708c-1.1336 4.1091-6.6477 4.8394-8.8117 1.167l-6.1141-10.3754c-.5357-.9091-1.8668-.8595-2.3334.0869l-3.1902 6.4716c-2.0968 4.2534-8.4285 3.2496-9.1068-1.4438l-.7476-5.1729a1.93335 1.93335 0 01-.0068-.0532l-1.5791-13.9293c-.1717-1.5142-2.3432-1.5921-2.6229-.0941l-6.6157 35.4345c-.1774.9501-1.0914 1.5765-2.0415 1.3991-.9501-.1774-1.5765-1.0914-1.3991-2.0414l6.6158-35.4345c1.0174-5.4492 8.9167-5.1661 9.5411.3421l1.5761 13.9027.7437 5.1464c.1865 1.2902 1.9271 1.5661 2.5035.3969l3.1902-6.4716c1.6972-3.4428 6.5393-3.6233 8.4881-.3163l6.1141 10.3754c.5949 1.0095 2.1107.8088 2.4223-.3208l4.8471-17.5708c1.2333-4.4706 7.4472-4.7991 9.145-.4835l2.4691 6.2766c.4608 1.1712 2.1409 1.1029 2.505-.1018l9.884-32.7007c.2797-.9251 1.2564-1.4484 2.1815-1.1688z"
    fill="#4776FF"
  />
</svg>