<svg
  width="100"
  height="100"
  viewBox="0 0 100 100"
  fill="none"
  xmlns="http://www.w3.org/2000/svg"
>
  <path
    d="M57.1669 52.2171c1.7214-.987 1.7214-3.4546 0-4.4417l-11.6191-6.6625c-1.7214-.987-3.8731.2468-3.8731 2.2208v13.3251c0 1.9741 2.1517 3.2079 3.8731 2.2209l11.6191-6.6626z"
    fill="#fff"
  />
  <path
    d="M71.5355 50.0011c.567 0 1.029-.4599 1.0033-1.0264a22.56489 22.56489 0 00-4.2801-12.2283c-2.7971-3.8535-6.7416-6.7233-11.2689-8.1988-4.5272-1.4755-9.4052-1.4809-13.9357-.0155-4.5306 1.4653-8.4814 4.3264-11.2871 8.1736a22.5636 22.5636 0 00-4.333 13.245 22.56333 22.56333 0 004.2738 13.2643c2.7885 3.8597 6.7265 6.7384 11.2505 8.224 4.1982 1.3786 8.7013 1.4919 12.9513.3381.5472-.1486.8439-.7291.6706-1.269-.1732-.5399-.7509-.8344-1.2988-.6883a20.5106 20.5106 0 01-11.6825-.3316c-4.1123-1.3504-7.692-3.9671-10.2267-7.4756-2.5348-3.5085-3.8946-7.7289-3.885-12.0573a20.51122 20.51122 0 013.9388-12.0398c2.5503-3.4971 6.1417-6.0978 10.2599-7.4298a20.51068 20.51068 0 0122.9111 7.4669 20.51085 20.51085 0 013.8861 11.0222c.0284.5663.4854 1.0263 1.0524 1.0263z"
    fill="#FFCC19"
  />
  <path
    d="M41.0334 78.4367c-.1582.5016.12 1.038.6262 1.1805 5.93 1.67 12.233 1.5232 18.0901-.4335 6.1585-2.0575 11.5084-6.0104 15.2837-11.2932 3.7754-5.2827 5.7829-11.6244 5.735-18.1173-.0478-6.493-2.1485-12.8043-6.0014-18.0309-3.8528-5.2265-9.2603-9.1001-15.4485-11.0666-6.1882-1.9665-12.8399-1.9249-19.003.1188s-11.5217 5.9847-15.3089 11.259C21.4048 37.0696 19.4 43.0471 19.241 49.2057c-.0135.5258.4165.9501.9425.9474.5259-.0027.9484-.4314.9631-.9572.1603-5.7566 2.0397-11.3419 5.4071-16.0315 3.5527-4.9478 8.5796-8.6449 14.3613-10.5621 5.7816-1.9172 12.0215-1.9562 17.8267-.1115 5.8052 1.8448 10.8779 5.4787 14.4923 10.3817 3.6144 4.903 5.585 10.8237 5.6299 16.9147.0449 6.0911-1.8383 12.0402-5.38 16.9959-3.5417 4.9558-8.5604 8.664-14.3377 10.5941-5.4759 1.8294-11.3672 1.9724-16.9136.4227-.5065-.1416-1.0411.1352-1.1992.6368z"
    fill="#885EFF"
  />
  <path
    d="M15.1687 34.3131c-.4025-.1813-.8765-.0022-1.0495.4039-3.1157 7.3147-3.9237 15.414-2.3048 23.2111 1.6731 8.0582 5.8525 15.3806 11.94 20.9191 6.0876 5.5385 13.7712 9.0093 21.9512 9.9155 8.18.9063 16.437-.7985 23.5893-4.8702 7.1522-4.0717 12.8331-10.3017 16.2294-17.7983 3.3963-7.4966 4.3341-15.8754 2.679-23.9373-1.6551-8.0619-5.8182-15.3936-11.8933-20.9457-5.8784-5.3722-13.2554-8.8118-21.1358-9.8666-.4375-.0585-.8335.2577-.883.6963-.0496.4386.2659.8335.7034.8924 7.5452 1.0166 14.6077 4.3132 20.237 9.4578 5.8262 5.3246 9.8186 12.3558 11.4059 20.0872 1.5872 7.7315.6879 15.767-2.5692 22.9563-3.2571 7.1893-8.7051 13.1639-15.5642 17.0688-6.8591 3.9048-14.7777 5.5397-22.6225 4.6706-7.8447-.8691-15.2134-4.1976-21.0515-9.5091-5.838-5.3115-9.8461-12.3338-11.4506-20.0617-1.5503-7.4668-.7799-15.2226 2.1975-22.2297.1726-.4062-.0059-.8792-.4083-1.0604z"
    fill="#4776FF"
  />
</svg>