<svg
  width="100"
  height="100"
  viewBox="0 0 100 100"
  fill="none"
  xmlns="http://www.w3.org/2000/svg"
>
  <circle cx="78.1434" cy="66.5314" r="11.2528" fill="#fff" />
  <circle cx="50.1313" cy="50.0702" r="17.1703" fill="#4A5CFF" />
  <path
    d="M60.2926 52.1459c-.3981-5.2752-4.1092-8.9152-10.2924-8.9152-6.1831 0-9.9023 3.8655-10.2679 9.1427-.2133 3.0753.9303 5.8154 3.2317 7.3775 1.5153 1.0298 3.6319 1.6006 7.0626 1.6006 3.4897 0 5.4905-.7536 7.0058-1.7733 2.5249-1.6961 3.4897-4.4017 3.2602-7.4323z"
    fill="#FFC022"
  />
  <path
    d="M47.9132 46.5417c-1.5072-3.9-4.7978-6.5528-6.0633-6.9489-.4774-.1503-1.0766-.1645-1.3467.2742-.6825 1.1071-1.556 4.6618.3758 9.7054l7.0342-3.0307z"
    fill="#FFC022"
  />
  <path
    d="M44.3376 44.8376c.3129-.262.4652-.518.1219-1.0481-.5322-.8227-1.4889-1.7834-1.8606-2.078-.6094-.4834-1.0806-.6459-1.2614.1321-.3352 1.4381-.3088 3.3901.0508 4.4667.1259.3798.5159.5809.8165.3189l2.1328-1.7916z"
    fill="#FFD1D1"
  />
  <path
    d="M47.9939 47.033c.2295.195.6947.1666.9648-.1463.3271-.3798.6683-1.6595.455-3.6379-.9485.0345-1.8464.1706-2.6832.4001.6764 1.1091.8389 3.0225 1.2634 3.3841zM52.0067 47.033c-.2296.195-.6947.1666-.9649-.1463-.327-.3798-.6683-1.6595-.455-3.6379.9486.0345 1.8464.1706 2.6833.4001-.6764 1.1091-.8389 3.0225-1.2634 3.3841z"
    fill="#FF9B31"
  />
  <path
    d="M53.2285 43.8239c1.6413-2.5208 3.9366-4.2148 4.8892-4.5175.4713-.1503 1.0197-.1259 1.2878.3149.6744 1.107 1.2452 4.5175-.0853 9.2929l-4.8607-2.344-1.231-2.7463z"
    fill="#FFC022"
  />
  <path
    d="M56.8147 45.6539c.4936.4936.8958.8247 1.1862 1.1395.193.2092.5464.1138.6033-.1666.4977-2.3968.3392-4.4403 0-4.9765-.1625-.256-.4651-.323-.7414-.2296-.4956.1646-1.759 1.1071-2.6508 2.4822-.1036.1605-.065.3758.0935.4835.3209.2173.8815.6378 1.5092 1.2675z"
    fill="#FFD1D1"
  />
  <path
    d="M48.3077 53.6814c-.0102-.6256.8877-.9242 1.7347-.9384.8491-.0143 1.7631.262 1.7733.8876.0101.6256-1.0603 1.4483-1.7347 1.4483-.6724 0-1.7611-.7739-1.7733-1.3975z"
    fill="#000"
  />
  <path
    d="M38.3594 52.3164c.069.0833.8958.0711 2.9168 1.0298M37.5879 54.7195s1.3041-.455 3.5466-.0569M38.7881 56.6348s.5565-.2803 2.5736-.4571M61.5513 51.6016s-.6927.067-2.8316 1.2878M61.8666 53.832s-1.0339-.0732-3.2602.4001M61.4661 55.9768s-.9811-.3473-3.0022-.457"
    stroke="#9E9E9E"
    stroke-width=".609375"
    stroke-miterlimit="10"
    stroke-linecap="round"
  />
  <path
    d="M56.5191 51.37c-.0691 1.1192-.7638 1.7347-1.5539 1.7347-.7902 0-1.43-.7881-1.43-1.7591 0-.9709.6662-1.7692 1.5539-1.7204 1.0298.0589 1.4868.8307 1.43 1.7448zM46.3442 51.2561c.1584 1.1395-.3209 1.8342-1.1152 1.9947-.7942.1605-1.4746-.3738-1.6717-1.3488-.199-.977.1828-1.8931 1.0847-2.0251 1.0461-.1524 1.5722.4469 1.7022 1.3792z"
    fill="#000200"
  />
  <path
    d="M46.1387 55.1867c-.5221.3393.0954 1.1254.457 1.3915.3616.266 1.0116.5931 1.9642.4956 1.1253-.1138 1.4483-.9527 1.4483-.9527s.4002.9344 1.7916.973c1.4117.0386 1.8484-.7252 2.0393-.9527.191-.2295.3819-.8206.0569-1.0481-.325-.2295-.5525.0569-.8958.5342-.3433.4774-1.0481.7435-1.7347.4185-.6865-.325-.7251-1.43-.7251-1.43l-.973.0568s-.1523.9527-.5911 1.2574c-.4387.3047-1.4869.3819-1.9256-.2864-.193-.2966-.4733-.7435-.912-.4571zM82.297 50.0012c.3654 0 .6622-.2962.6549-.6615-.0865-4.3243-1.0203-8.5919-2.7509-12.5604-1.8188-4.1707-4.4786-7.9213-7.8129-11.0173-3.3344-3.096-7.2716-5.4708-11.5656-6.9758-4.0857-1.4321-8.4107-2.0474-12.7295-1.8135-.3649.0198-.6383.3378-.6113.7021.0271.3644.3444.6371.7092.6176 4.1373-.2206 8.2801.3706 12.194 1.7424 4.1222 1.4448 7.9019 3.7246 11.1029 6.6968 3.201 2.9721 5.7543 6.5727 7.5004 10.5766 1.6579 3.8017 2.5541 7.8893 2.6404 12.0315.0076.3653.303.6615.6684.6615zM21.8091 33.7935c-.3164-.1826-.7217-.0745-.898.2455-3.4257 6.2173-4.7632 13.378-3.8042 20.4233.9887 7.264 4.3626 13.9937 9.5916 19.1319 5.2291 5.1382 12.0169 8.3936 19.2971 9.2549 7.0611.8353 14.1972-.6274 20.3535-4.1616.3169-.1818.4179-.5889.2297-.9021-.1882-.3131-.5943-.4138-.9113-.2321-5.9048 3.3832-12.7466 4.7828-19.5164 3.9819-6.9891-.8268-13.5054-3.9521-18.5252-8.8847-5.0199-4.9327-8.2588-11.3932-9.208-18.3667-.9194-6.7547.36-13.62 3.6393-19.5832.176-.3201.0683-.7244-.2481-.9071z"
    fill="#000"
  />
  <circle cx="32.6747" cy="22.701" r="11.2528" fill="#895FFF" />
  <path
    d="M32.4647 16.8528c-4.318-.1113-5.7163 3.2315-5.8232 4.4858-.0831.9752-.5017 4.5422 1.5319 6.938 1.0494 1.2364 2.7312 1.8525 4.514 1.8109 1.7976-.0416 3.4215-.3993 4.514-1.8391 1.8391-2.424 1.6432-6.0459 1.3938-7.2171-.2345-1.0895-1.1445-4.0508-6.1305-4.1785z"
    fill="#FFEAC8"
  />
  <path
    d="M37.371 23.4522c.1529 1.1593-.3503 2.2651-1.6759 2.3438-1.2127.0727-1.9608-.7006-2.0202-1.8392-.0609-1.1667.5774-2.2518 1.5912-2.3631 1.0703-.1172 1.9535.6992 2.1049 1.8585zM25.805 17.8546s-1.4592.5715-1.811 1.4206c-.4735 1.1429-.2553 3.4111 0 4.2913.2509.8639.9189 1.756 1.9505 1.7278 1.0316-.0282 1.9371-1.0732 2.2562-2.4373.3207-1.3657.3904-3.705.4869-4.1236.0965-.4186.2642-.7526.2642-.7526s-1.281-1.2409-3.1468-.1262zM38.024 17.6734s1.9786.0698 2.4522.279c.4735.2093.9054 1.1564.8639 2.424-.0416 1.2677-.1247 3.3176-.766 4.0257-.5299.5848-1.6016.6264-2.2013-.098-.5997-.7244-.9752-1.9505-1.1148-2.7446-.1395-.7942-.3755-1.8243-.5299-2.2845-.1529-.4601-.5299-1.379-.7244-1.5883-.1959-.2078.1945-.4037 2.0203-.0133z"
    fill="#D27856"
  />
  <path
    d="M27.449 17.2001c-1.0732-.0682-2.8425.7808-3.2047 1.6581-.3622.8773-.15 3.7243.1543 4.5555.3207.8773.9886 1.9787 2.145 1.0317 1.1563-.947 1.4621-3.3295 1.5749-4.0954.1113-.7659.2642-1.6996.4319-1.8941.1678-.1944.4038-.4735.4038-.4735s-.1811-.6991-1.5052-.7823zM38.2592 17.0191c1.0079.0698 2.1033.4453 2.5071 1.3241.4037.8772.2508 2.9539.098 3.9425-.1529.9886-.5151 2.0202-1.4206 1.9089-.9055-.1114-1.3656-1.3374-1.6432-2.4938-.2791-1.1563-.5715-2.3126-.9337-3.1483-.2182-.5047-.9752-.8773-.9752-.8773s.334-.7956 2.3676-.6561z"
    fill="#865B51"
  />
  <path
    d="M30.4952 23.9364c-.0594.5077-.3206.9174-.8877.858-.4022-.0431-.6724-.5225-.613-1.0317.0594-.5076.236-.8728.711-.8639.7378.0134.8491.5285.7897 1.0376zM36.32 23.7935c.0237.5107-.1782.9471-.7675.9901-.5121.0371-.7748-.4067-.7971-.9173-.0237-.5107.2301-.9203.7185-.9812.6338-.0816.8223.3978.8461.9084zM34.1499 26.3675c.0238.5106-.3206.9886-1.3938.9752-1.045-.0134-1.425-.4364-1.4488-.947-.0237-.5107.57-.9693 1.4206-.9886 1.1711-.0297 1.3983.4483 1.422.9604z"
    fill="#2F2F2F"
  />
  <path
    d="M31.7822 28.4292s.1262 1.2128.2509 1.575c.2642.7659 1.3775.6383 1.5749-.0832.1677-.613.0564-1.6714.0564-1.6714l-.9886-.1395-.8936.3191z"
    fill="#E94B8C"
  />
  <path
    d="M32.7898 28.8331c-.1736.0075-.1677.1678-.1677.5359 0 .3696.0208.5923.1885.5848.1677-.0074.147-.2924.147-.5566s.0133-.5715-.1678-.5641z"
    fill="#EF87B2"
  />
  <path
    d="M30.4446 27.279c-.2004.2954.1885.5567.5091.7734.3206.2152.7095.5433 1.1697.5359.5151-.0075.6546-.3548.6546-.3548s.1677.4112.898.334c.3904-.0416.8714-.4795 1.0168-.5775.2791-.1885.6131-.4245.4661-.6204-.1677-.2242-.5225.0772-.8847.2642-.3621.1885-.4868.2791-.7585.2791-.2716 0-.4601-.1114-.4735-.5641-.0119-.3696-.0074-.4394-.0074-.4394h-.6205s.0208.3904.0208.5017c0 .2925-.1529.4186-.4453.432-.2924.0134-.6056-.2301-.76-.3206-.1514-.0891-.6249-.4795-.7852-.2435z"
    fill="#2F2F30"
  />
  <g clip-path="url(#clip0_7128_159762)">
    <path
      d="M71.6889 64.3125c-.0571.5976-1.3281 1.4397-1.271 3.5713.0571 2.1316 1.7385 5.8517 7.6659 5.946 5.9274.093 8.0963-3.6271 8.1149-6.1891.0172-2.3746-1.1396-2.8461-1.2711-3.4584-.1115-.5233.8979-2.9166-1.3653-3.7772-2.6708-1.016-3.6656 1.5513-3.74 1.6071-.0743.0557-.8035.0929-1.4397.0929-.6361 0-1.3281 0-1.4025-.0744-.0743-.0743-1.7013-2.6549-4.0574-1.5711-2.21 1.0186-1.1966 3.4597-1.2338 3.8529z"
      fill="#B7D019"
    />
    <path
      d="M83.499 63.5144c0 .7026-.3985 1.2963-1.0652 1.271-.5751-.0212-1.0412-.5697-1.0412-1.271 0-.7012.4661-1.2604 1.0412-1.271.6787-.0133 1.0652.5684 1.0652 1.271zM75.3715 63.4148c.0372.8978-.3984 1.3467-1.0651 1.3334-.5605-.0106-1.0041-.4237-1.0161-1.2843-.0106-.7092.2617-1.2591 1.0161-1.2843.5604-.0173 1.0359.5273 1.0651 1.2352zM76.8861 66.3221c-.1076.2377-.4064.3121-.6069.1966-.1993-.1156-.2537-.429-.1236-.6548.1302-.2258.352-.2603.514-.1966.2165.085.3759.3028.2165.6548zM80.478 65.9303c.1023.247-.0212.5366-.2576.607-.2364.0703-.4901-.0811-.5658-.3374-.0757-.2563.0186-.4794.2483-.5711.1501-.0584.4237-.0637.5751.3015z"
      fill="#2F2F2F"
    />
    <path
      d="M73.4531 68.2891l.0505.3612s1.3959 1.4583 4.7613 1.5088c3.4531.0517 4.9486-1.6323 4.9486-1.6323l-1.5459-.7477s-1.4703.6228-3.3655.5857c-1.8952-.0372-3.7639-.5857-3.7639-.5857l-1.0851.51z"
      fill="#FF6011"
    />
    <path
      d="M83.6995 67.4403c-.4356-.6362-.9602-.0571-1.7823.2497-.4556.17-.757.2683-.757.2683s.676.1315.9748.2935c.2988.162.8195.5166.8195.5166s1.1116-.7915.745-1.3281zM73.1038 67.3659c-.5233.3493.4011 1.2856.4011 1.2856s.2855-.2629.672-.425c.3865-.162 1.0333-.2789 1.0333-.2789s-.7477-.1686-1.182-.4196c-.2245-.1275-.6256-.3613-.9244-.1621z"
      fill="#865B51"
    />
  </g>
  <defs>
    <clipPath id="clip0_7128_159762">
      <path
        fill="#fff"
        transform="translate(69.8086 57.8884)"
        d="M0 0h17v17H0z"
      />
    </clipPath>
  </defs>
</svg>