<svg width="180" height="80" viewBox="0 0 180 80" fill="none" xmlns="http://www.w3.org/2000/svg">
<path fill-rule="evenodd" clip-rule="evenodd" d="M39.9572 26.7578H61.8237C63.3317 26.7578 64.5466 27.9726 64.5466 29.4807V51.3471C64.5466 52.8552 63.3317 54.07 61.8237 54.07H39.9572C38.4492 54.07 37.2344 52.8552 37.2344 51.3471V29.4807C37.2344 27.9726 38.4492 26.7578 39.9572 26.7578Z" fill="#1C68F3"/>
<path fill-rule="evenodd" clip-rule="evenodd" d="M60.777 36.6074V42.095H44.3562H43.644C44.3981 45.4043 47.3722 47.8758 50.891 47.8758C53.8233 47.8758 56.3786 46.2002 57.5515 43.7287H60.7351V48.3366C60.7351 49.4257 59.8554 50.3054 58.7663 50.3054H43.0157C41.9266 50.3054 41.0469 49.4257 41.0469 48.3366V36.6074H60.7351H60.777ZM55.7083 43.7287C54.6611 45.2367 52.9017 46.2421 50.9329 46.2421C48.9222 46.2421 47.2047 45.2367 46.1574 43.7287H55.7502H55.7083ZM46.702 37.9479C45.1521 37.9479 43.8954 39.0789 43.6859 40.587H45.3615C45.5291 40.0005 46.0737 39.5816 46.702 39.5816C47.3304 39.5816 47.8749 40.0005 48.0425 40.587H49.7181C49.5086 39.1208 48.21 37.9479 46.702 37.9479ZM55.1219 37.9479C53.5719 37.9479 52.3152 39.0789 52.1058 40.587H53.7814C53.9489 40.0005 54.4935 39.5816 55.1219 39.5816C55.7502 39.5816 56.2948 40.0005 56.4623 40.587H58.1379C57.9285 39.1208 56.6299 37.9479 55.1219 37.9479ZM58.8082 30.6172C59.8973 30.6172 60.777 31.4969 60.777 32.586V34.9737H41.0888V32.586C41.0888 31.4969 41.9685 30.6172 43.0576 30.6172H58.8082Z" fill="white"/>
<path d="M117.035 35.8531C120.009 35.8531 123.402 37.026 123.611 40.7123H119.464C119.381 39.6232 118.375 39.1624 117.077 39.1624C115.862 39.1624 115.317 39.6232 115.317 40.1678C115.317 40.6286 115.652 41.0475 116.783 41.2569L119.422 41.6758C122.061 42.1785 123.779 43.4352 123.779 45.9486C123.779 49.216 120.847 50.724 117.202 50.724C113.516 50.724 110.542 49.1741 110.249 45.4459L114.396 45.4878C114.605 46.7026 115.61 47.2472 117.077 47.2472C118.333 47.2472 119.087 46.8701 119.087 46.2418C119.087 45.781 118.668 45.404 117.747 45.2364L114.898 44.7338C112.469 44.3149 110.793 42.9744 110.793 40.5029C110.793 37.5287 113.306 35.8112 117.035 35.8112V35.8531ZM99.4829 35.895C101.033 35.895 102.289 36.3139 103.337 36.9841V36.2301H108.028V50.3051H103.337V49.5092C102.289 50.1794 101.033 50.5983 99.4829 50.5983C95.7128 50.5983 92.5291 47.4566 92.5291 43.2676C92.5291 39.0786 95.7128 35.9369 99.4829 35.9369V35.895ZM72.0869 30.5331L79.1244 41.0893L86.12 30.5331H89.7644V50.3051H84.8633V40.4191L80.4649 47.2053V47.2472H77.742V47.2053L73.3436 40.3772L73.3855 50.347H68.4844V30.575H72.1288L72.0869 30.5331ZM131.026 29.6953V41.5082L135.927 36.2301H141.54L136.22 41.969L142.001 50.3051H136.388L133.037 45.4459L131.068 47.5823V50.347H126.376V29.7791H131.068L131.026 29.6953ZM100.404 39.707C98.4775 39.707 97.0951 41.2569 97.0951 43.2257C97.0951 45.1527 98.4775 46.7026 100.404 46.7026C101.452 46.7026 102.457 46.4094 103.337 45.404V41.0475C102.457 40.0421 101.452 39.707 100.404 39.707Z" fill="#1C68F3"/>
</svg>
