<svg width="180" height="80" viewBox="0 0 180 80" fill="none" xmlns="http://www.w3.org/2000/svg">
<path fill-rule="evenodd" clip-rule="evenodd" d="M18.4815 30.8304L25.6009 26.7109L32.7202 30.8304L30.0489 32.2786L25.6009 29.7169L21.0372 32.2786L18.4815 30.8304ZM32.6107 35.9479L30.0489 34.4996L25.6009 37.0614L21.0372 34.4996L18.4754 35.9479V38.9538L22.9296 41.5156V46.7486L25.4913 48.3063L28.0531 46.7486V41.6312L32.5073 39.0694V35.9539H32.6107V35.9479ZM32.6107 44.1868V41.1809L30.0489 42.7386V45.629L32.6107 44.1868ZM34.5031 45.1848L30.055 47.7465V50.7525L37.1805 46.633V38.4001L34.5092 40.0673L34.5031 45.1848ZM31.9414 33.3922L34.5031 34.9499V37.9559L37.0649 36.3981V33.3922L34.5031 31.8344L31.9414 33.3922ZM22.9296 48.8601V51.866L25.4913 53.4238L28.0531 51.866V48.8601L25.4913 50.4178L22.9296 48.8601ZM18.4754 44.1868L21.0372 45.6351V42.6291L18.4754 41.0714V44.1868ZM22.9296 33.3922L25.4913 34.9499L28.1626 33.3922L25.6009 31.8344L22.9296 33.3922ZM16.5891 34.9499L19.2604 33.3922L16.5891 31.8344L14.0273 33.3922V36.3981L16.5891 37.9559V34.9499ZM16.5891 40.0673L14.0273 38.5096V46.7425L21.1528 50.862V47.8561L16.6986 45.2943V40.0613L16.5891 40.0673ZM57.6502 43.5241C57.6502 41.5221 56.5366 40.5181 54.8693 39.8488C55.9829 39.295 56.8713 38.291 56.8713 36.6238C56.8713 34.2871 54.9789 32.7294 51.9729 32.7294H45.0726V47.6436H52.192C55.4231 47.5279 57.6502 46.1953 57.6502 43.5241ZM53.5307 37.1775C53.5307 38.291 52.6423 38.7352 51.194 38.7352H48.1881V35.5102H51.4131C52.8674 35.5102 53.5307 36.07 53.5307 37.1775ZM54.4251 43.0799C54.4251 44.1934 53.5367 44.7471 52.0885 44.7471H48.1942V41.5221H51.979C53.6463 41.4065 54.4251 42.0758 54.4251 43.0799ZM73.788 32.7294V47.5279V47.6436H71.0072L63.7722 38.1815V47.6436H60.5472V32.7294H63.547L70.5569 41.8568V32.7294H73.788ZM90.1415 43.5241C90.1415 41.5221 89.028 40.5181 87.3607 39.8488C88.4743 39.295 89.3626 38.291 89.3626 36.6238C89.3626 34.2871 87.4702 32.7294 84.4643 32.7294H77.564V47.6436H84.6833C87.9144 47.5279 90.1415 46.1953 90.1415 43.5241ZM86.1376 37.1775C86.1376 38.291 85.2492 38.7352 83.801 38.7352H80.7951V35.5102H84.0201C85.3588 35.5102 86.1376 36.07 86.1376 37.1775ZM86.9165 43.0799C86.9165 44.1934 86.0281 44.7471 84.5799 44.7471H80.6855V41.5221H84.4704C86.1376 41.4065 86.9165 42.0758 86.9165 43.0799ZM108.173 43.301L109.841 44.9682C108.283 46.526 106.616 47.5239 103.835 47.5361C99.4901 47.5361 96.2651 44.1954 96.2651 39.8569C96.2651 35.6279 99.4901 32.1777 103.944 32.1777C106.616 32.1777 108.283 33.1817 109.731 34.5143L108.064 36.5163C106.95 35.4027 105.612 34.6239 103.944 34.6239C101.163 34.6239 99.0459 36.9544 99.0459 39.8508C99.0459 42.8568 101.048 45.1934 103.944 45.1934C105.727 45.1934 106.95 44.524 108.173 43.301ZM122.528 41.0699V47.3008H125.09V32.3867H122.528V38.6177H115.409V32.3867H112.847V47.3008H115.409V41.0699H122.528ZM134.438 32.3867H136.884L143.45 47.4104H140.669L139.111 43.8507H132.102L130.544 47.4104H127.873L134.438 32.3867ZM133.106 41.3985H138.223L135.667 35.5022L133.106 41.3985ZM146.344 32.3867V47.3008H148.899V32.3867H146.344ZM155.466 32.4962L163.48 42.7371H163.589V32.3867H166.151V47.3008H163.924L155.691 36.7252V47.4104H153.129V32.4962H155.466Z" fill="#F0B90B"/>
</svg>
