<svg width="180" height="80" viewBox="0 0 180 80" fill="none" xmlns="http://www.w3.org/2000/svg">
<path fill-rule="evenodd" clip-rule="evenodd" d="M75.5178 30.0781H54.7448C54.6167 30.0781 54.4938 30.1257 54.4032 30.2105C54.3126 30.2953 54.2617 30.4103 54.2617 30.5302V49.9676C54.2617 50.0875 54.3126 50.2025 54.4032 50.2873C54.4938 50.372 54.6167 50.4196 54.7448 50.4196H75.5178C75.646 50.4196 75.7688 50.372 75.8595 50.2873C75.9501 50.2025 76.001 50.0875 76.001 49.9676V30.5302C76.001 30.4103 75.9501 30.2953 75.8595 30.2105C75.7688 30.1257 75.646 30.0781 75.5178 30.0781ZM68.7545 43.1871C68.7545 43.307 68.7036 43.422 68.613 43.5068C68.5224 43.5915 68.3996 43.6391 68.2714 43.6391H61.9912C61.8631 43.6391 61.7402 43.5915 61.6496 43.5068C61.559 43.422 61.5081 43.307 61.5081 43.1871V37.3107C61.5081 37.1908 61.559 37.0758 61.6496 36.991C61.7402 36.9063 61.8631 36.8586 61.9912 36.8586H68.2714C68.3996 36.8586 68.5224 36.9063 68.613 36.991C68.7036 37.0758 68.7545 37.1908 68.7545 37.3107V43.1871ZM119.006 36.859H112.725C112.459 36.859 112.242 37.0613 112.242 37.311V43.1874C112.242 43.4371 112.459 43.6395 112.725 43.6395H119.006C119.272 43.6395 119.489 43.4371 119.489 43.1874V37.311C119.489 37.0613 119.272 36.859 119.006 36.859ZM105.481 30.0781H111.761C112.028 30.0781 112.244 30.2805 112.244 30.5302V36.4066C112.244 36.6563 112.028 36.8586 111.761 36.8586H105.481C105.214 36.8586 104.998 36.6563 104.998 36.4066V30.5302C104.998 30.2805 105.214 30.0781 105.481 30.0781ZM126.254 30.0781H119.973C119.707 30.0781 119.49 30.2805 119.49 30.5302V36.4066C119.49 36.6563 119.707 36.8586 119.973 36.8586H126.254C126.52 36.8586 126.737 36.6563 126.737 36.4066V30.5302C126.737 30.2805 126.52 30.0781 126.254 30.0781ZM105.481 43.6475H111.761C112.028 43.6475 112.244 43.8498 112.244 44.0995V49.976C112.244 50.2256 112.028 50.428 111.761 50.428H105.481C105.214 50.428 104.998 50.2256 104.998 49.976V44.0995C104.998 43.8498 105.214 43.6475 105.481 43.6475ZM126.254 43.6475H119.973C119.707 43.6475 119.49 43.8498 119.49 44.0995V49.976C119.49 50.2256 119.707 50.428 119.973 50.428H126.254C126.52 50.428 126.737 50.2256 126.737 49.976V44.0995C126.737 43.8498 126.52 43.6475 126.254 43.6475ZM94.6006 30.0781H100.881C101.148 30.0781 101.364 30.2805 101.364 30.5302V36.4066C101.364 36.6563 101.148 36.8586 100.881 36.8586H94.6006C94.3337 36.8586 94.1173 36.6563 94.1173 36.4066V30.5302C94.1173 30.2805 94.3337 30.0781 94.6006 30.0781ZM100.881 43.6475H94.6006C94.3337 43.6475 94.1173 43.8498 94.1173 44.0995V49.976C94.1173 50.2256 94.3337 50.428 94.6006 50.428H100.881C101.148 50.428 101.364 50.2256 101.364 49.976V44.0995C101.364 43.8498 101.148 43.6475 100.881 43.6475ZM93.9746 36.986C94.0651 37.0707 94.1161 37.1857 94.1161 37.3056V43.182C94.1161 43.3019 94.0651 43.4169 93.9746 43.5017C93.884 43.5864 93.7611 43.6341 93.633 43.6341H86.8696V49.9575C86.8696 50.0774 86.8187 50.1923 86.7281 50.2771C86.6376 50.3619 86.5146 50.4095 86.3866 50.4095H80.1064C79.9782 50.4095 79.8554 50.3619 79.7647 50.2771C79.6741 50.1923 79.6232 50.0774 79.6232 49.9575V30.5302C79.6232 30.4103 79.6741 30.2953 79.7647 30.2105C79.8554 30.1257 79.9782 30.0781 80.1064 30.0781H86.3866C86.5146 30.0781 86.6376 30.1257 86.7281 30.2105C86.8187 30.2953 86.8696 30.4103 86.8696 30.5302V36.8536H93.633C93.7611 36.8536 93.884 36.9012 93.9746 36.986Z" fill="white"/>
</svg>
