<svg width="180" height="80" viewBox="0 0 180 80" fill="none" xmlns="http://www.w3.org/2000/svg">
<path fill-rule="evenodd" clip-rule="evenodd" d="M38.667 50.2779L30.1888 41.5017C29.9107 41.2115 29.7546 40.8193 29.7546 40.4108C29.7546 40.002 29.9107 39.6099 30.1888 39.3197L38.667 30.5412C38.768 30.4368 38.8481 30.3128 38.9028 30.1763C38.9576 30.0398 38.9857 29.8934 38.9857 29.7457C38.9857 29.5979 38.9576 29.4516 38.9028 29.3151C38.8481 29.1785 38.768 29.0545 38.667 28.9501L38.0257 28.2752C37.9247 28.1706 37.8049 28.0877 37.6731 28.0311C37.5412 27.9744 37.3998 27.9453 37.2571 27.9453C37.1144 27.9453 36.9731 27.9744 36.8412 28.0311C36.7093 28.0877 36.5895 28.1706 36.4887 28.2752L26.1356 38.9922C25.9555 39.1782 25.8128 39.3992 25.7153 39.6424C25.6178 39.8856 25.5677 40.1463 25.5677 40.4096C25.5677 40.6729 25.6178 40.9336 25.7153 41.1768C25.8128 41.42 25.9555 41.6409 26.1356 41.827L36.4887 52.544C36.6062 52.6665 36.7497 52.7593 36.9076 52.815C37.0655 52.8706 37.2339 52.8877 37.3993 52.8649C37.6498 52.8265 37.8807 52.7027 38.0556 52.513L38.6777 51.8713C38.7781 51.766 38.8575 51.6412 38.9112 51.5041C38.965 51.367 38.9922 51.2203 38.9912 51.0723C38.9902 50.9244 38.9611 50.778 38.9055 50.6418C38.8499 50.5054 38.7687 50.3819 38.667 50.2779ZM10.5537 30.5504L19.0287 39.3291C19.3067 39.6192 19.4626 40.0113 19.4626 40.42C19.4626 40.8287 19.3067 41.2208 19.0287 41.511L10.5537 50.2874C10.4527 50.392 10.3725 50.5163 10.3178 50.6529C10.2631 50.7896 10.235 50.9361 10.235 51.084C10.235 51.232 10.2631 51.3786 10.3178 51.5153C10.3725 51.6519 10.4527 51.7762 10.5537 51.8808L11.1948 52.5446C11.2958 52.6492 11.4157 52.7322 11.5477 52.7889C11.6797 52.8455 11.8212 52.8747 11.9641 52.8747C12.107 52.8747 12.2484 52.8455 12.3804 52.7889C12.5125 52.7322 12.6324 52.6492 12.7334 52.5446L23.0824 41.8275C23.2624 41.6414 23.4051 41.4205 23.5026 41.1773C23.5999 40.934 23.65 40.6734 23.65 40.4101C23.65 40.1468 23.5999 39.8861 23.5026 39.6429C23.4051 39.3996 23.2624 39.1787 23.0824 38.9927L12.7334 28.2755C12.6155 28.1535 12.4721 28.0611 12.3142 28.0055C12.1564 27.9499 11.9884 27.9325 11.8231 27.9547C11.5725 27.9945 11.3414 28.118 11.1649 28.3065L10.5452 28.9505C10.4435 29.0556 10.3629 29.1806 10.3082 29.3183C10.2535 29.4559 10.2258 29.6035 10.2266 29.7523C10.2274 29.9011 10.2567 30.0483 10.3129 30.1853C10.369 30.3223 10.4509 30.4464 10.5537 30.5504ZM80.2893 38.1286C81.0479 38.1189 81.7921 38.3352 82.4275 38.75C83.0723 39.1512 83.5964 39.7195 83.9442 40.3947C84.3291 41.1068 84.5242 41.9062 84.5107 42.7155C84.5213 43.5246 84.3263 44.3232 83.9442 45.0365C83.5923 45.7038 83.0686 46.2654 82.4275 46.6628C81.7882 47.0667 81.0454 47.2762 80.2893 47.266C79.6667 47.2772 79.051 47.1328 78.4983 46.8456C78.1608 46.6595 77.8578 46.4163 77.6029 46.1271V47.0832H75.5927V33.9254H77.6029V39.2907C77.8608 38.9958 78.1704 38.7505 78.5167 38.5672C79.0595 38.2699 79.6704 38.1187 80.2893 38.1286ZM81.2396 45.0365C81.6145 44.8072 81.9182 44.4782 82.1167 44.0861C82.3435 43.6589 82.4578 43.181 82.449 42.6973C82.4578 42.2137 82.3435 41.7357 82.1167 41.3084C81.921 40.9191 81.6163 40.5953 81.2396 40.3764C80.8555 40.1397 80.4113 40.0191 79.9603 40.0292C79.5037 40.0206 79.054 40.141 78.6629 40.3764C78.2857 40.5948 77.9808 40.9187 77.7856 41.3084C77.5716 41.7395 77.465 42.2161 77.475 42.6973C77.465 43.1786 77.5716 43.655 77.7856 44.0861C77.9837 44.4785 78.2876 44.8077 78.6629 45.0365C79.0578 45.2616 79.5059 45.3764 79.9603 45.3688C80.4092 45.3777 80.8518 45.2628 81.2396 45.0365ZM62.5928 44.9089C62.0567 45.1404 61.3988 45.2561 60.6191 45.2561C60.024 45.2624 59.4337 45.1495 58.883 44.9239C58.3672 44.7103 57.9007 44.393 57.5124 43.9919C57.1275 43.5664 56.8296 43.0697 56.6353 42.5299C56.4239 41.939 56.3192 41.3151 56.3263 40.6874C56.3193 40.0586 56.4245 39.4336 56.6369 38.8417C56.8281 38.3062 57.1259 37.815 57.5124 37.398C57.8968 36.9886 58.3641 36.6658 58.883 36.4511C59.4337 36.2254 60.024 36.1124 60.6191 36.1188C61.3391 36.1188 61.9664 36.2345 62.5014 36.466C63.0295 36.6835 63.5037 37.0141 63.8903 37.4346L65.3157 36.0091C64.7348 35.4289 64.0531 34.9593 63.3039 34.6236C62.5501 34.2797 61.6552 34.108 60.6191 34.1086C59.7583 34.0973 58.9041 34.2616 58.1088 34.5915C57.3136 34.9214 56.594 35.41 55.994 36.0274C55.4065 36.6296 54.947 37.3445 54.6433 38.129C54.3218 38.9434 54.1599 39.812 54.1665 40.6874C54.1608 41.5682 54.3221 42.4419 54.6417 43.2625C54.9471 44.0436 55.405 44.7561 55.9885 45.3585C56.5721 45.961 57.2697 46.4411 58.0407 46.7713C58.8578 47.1051 59.7332 47.2729 60.6157 47.2646C61.6392 47.2646 62.5468 47.0941 63.3387 46.753C64.1127 46.424 64.8144 45.9459 65.4038 45.3458L63.9783 43.9204C63.5906 44.343 63.1185 44.6798 62.5928 44.9089ZM69.8926 44.0262L67.6457 38.3112H65.4345L68.7695 46.2009L66.5675 50.7379H68.7969L70.4235 47.1744L74.4987 38.3112H72.2692L69.8926 44.0262ZM92.3148 38.6935C91.6935 38.3153 90.9735 38.1264 90.1551 38.127C89.5555 38.1225 88.9612 38.2379 88.4069 38.4663C87.8526 38.6948 87.3495 39.0317 86.9273 39.4573C86.505 39.883 86.1722 40.3887 85.9482 40.9448C85.7243 41.501 85.6136 42.0962 85.6229 42.6956C85.605 43.503 85.8063 44.3002 86.2053 45.0022C86.6043 45.7043 87.1861 46.2852 87.889 46.6828C88.6181 47.0769 89.4361 47.2771 90.2646 47.2643C90.9296 47.2679 91.5884 47.1374 92.2018 46.8805C92.8021 46.6313 93.3346 46.243 93.7551 45.7476L92.4759 44.45C92.2064 44.7561 91.8682 44.9941 91.4891 45.1444C91.0939 45.3067 90.6701 45.3875 90.2431 45.382C89.7595 45.3907 89.2816 45.2764 88.8543 45.0498C88.4569 44.8232 88.1333 44.4869 87.9222 44.0812C87.8162 43.8789 87.7361 43.664 87.6838 43.4416H94.2269C94.2609 43.2787 94.2853 43.1139 94.3001 42.9481C94.3241 42.797 94.3364 42.6444 94.3366 42.4913C94.3506 41.7073 94.1617 40.933 93.7884 40.2435C93.4492 39.601 92.9393 39.0646 92.3148 38.6935ZM87.9122 41.2337C88.1079 40.8445 88.4128 40.5205 88.7895 40.3017C89.1964 40.0737 89.6571 39.959 90.1234 39.9694C90.6114 39.9694 91.0195 40.0669 91.3478 40.2618C91.6886 40.4563 91.9626 40.7493 92.1337 41.1025C92.2407 41.3229 92.3186 41.5563 92.3654 41.7969H87.6979C87.7459 41.6018 87.8173 41.4132 87.9106 41.2353L87.9122 41.2337ZM100.249 38.1291C100.658 38.1228 101.063 38.2038 101.437 38.3666C101.82 38.546 102.159 38.8082 102.428 39.1342L101.108 40.4882C100.963 40.3263 100.781 40.2011 100.578 40.1227C100.361 40.0458 100.132 40.0087 99.9022 40.013C99.3418 40.0141 98.8789 40.1908 98.5134 40.5429C98.1479 40.8952 97.9651 41.449 97.9651 42.2044V47.0837H95.9549V38.311H97.9651V39.2247L97.9788 39.2043C97.9864 39.1929 97.9939 39.1816 98.0017 39.1707C98.5034 38.4763 99.2527 38.1291 100.249 38.1291ZM111.777 44.9089C111.242 45.1404 110.584 45.2561 109.804 45.2561C109.209 45.2624 108.618 45.1495 108.068 44.9239C107.552 44.7103 107.085 44.393 106.697 43.9918C106.312 43.5664 106.014 43.0697 105.82 42.5298C105.608 41.939 105.503 41.3151 105.509 40.6874C105.502 40.0586 105.607 39.4336 105.82 38.8417C106.012 38.306 106.31 37.8149 106.697 37.398C107.082 36.9886 107.549 36.6658 108.068 36.451C108.618 36.2254 109.209 36.1124 109.804 36.1188C110.524 36.1188 111.151 36.2345 111.686 36.466C112.214 36.6835 112.688 37.0141 113.075 37.4346L114.5 36.0091C113.92 35.429 113.239 34.9595 112.49 34.6236C111.735 34.2797 110.839 34.108 109.804 34.1086C108.943 34.0975 108.089 34.2619 107.294 34.5918C106.499 34.9217 105.78 35.4102 105.18 36.0274C104.592 36.6294 104.132 37.3443 103.828 38.129C103.507 38.9435 103.346 39.8121 103.353 40.6874C103.347 41.5682 103.508 42.4418 103.828 43.2625C104.133 44.0436 104.591 44.7561 105.175 45.3585C105.758 45.9608 106.456 46.4411 107.227 46.7713C108.044 47.1051 108.919 47.2729 109.802 47.2646C110.825 47.2646 111.733 47.0941 112.525 46.753C113.299 46.4239 114.001 45.9458 114.59 45.3458L113.165 43.9204C112.776 44.3432 112.304 44.68 111.777 44.9089ZM119.964 38.1292C120.783 38.1174 121.591 38.3257 122.303 38.7323C122.988 39.125 123.555 39.6933 123.947 40.3786C124.365 41.0733 124.58 41.8708 124.569 42.6813C124.578 43.4973 124.362 44.3003 123.946 45.0022C123.643 45.5277 123.24 45.988 122.758 46.3565C122.276 46.7249 121.727 46.9942 121.14 47.1487C120.554 47.3032 119.943 47.3398 119.342 47.2565C118.741 47.1733 118.163 46.9717 117.641 46.6635C116.956 46.2584 116.385 45.687 115.98 45.0022C115.575 44.2964 115.366 43.4949 115.377 42.6813C115.365 41.8724 115.574 41.0758 115.981 40.377C116.388 39.7022 116.96 39.1423 117.643 38.7505C118.345 38.3341 119.148 38.1191 119.964 38.1292ZM121.279 44.9988C121.662 44.7741 121.973 44.4443 122.175 44.0485V44.0501C122.4 43.6284 122.515 43.1562 122.507 42.6779C122.516 42.2058 122.401 41.7398 122.175 41.3256C121.965 40.9454 121.655 40.6297 121.279 40.4118C120.882 40.175 120.426 40.0547 119.964 40.0647C119.501 40.0577 119.046 40.1778 118.648 40.4118C118.272 40.6294 117.962 40.9453 117.752 41.3256C117.538 41.7437 117.432 42.2083 117.442 42.6779C117.433 43.1532 117.54 43.6235 117.752 44.0485C117.961 44.4393 118.27 44.7672 118.648 44.9988C119.05 45.2226 119.504 45.3371 119.964 45.3311C120.424 45.34 120.878 45.2252 121.279 44.9988ZM132.618 38.6408C132.098 38.2972 131.487 38.1188 130.864 38.1291C130.249 38.1211 129.642 38.2789 129.109 38.586C128.782 38.7718 128.491 39.0153 128.25 39.3045V38.3119H126.24V47.0838H128.25V42.0216C128.244 41.6581 128.332 41.2992 128.506 40.9799C128.672 40.6803 128.919 40.4334 129.219 40.2673C129.538 40.0933 129.897 40.0051 130.261 40.0114C130.845 40.0114 131.321 40.2003 131.686 40.578C132.062 40.9561 132.249 41.4374 132.249 42.0216V47.0838H134.26V41.5831C134.26 41.0072 134.111 40.4411 133.828 39.94C133.542 39.4109 133.125 38.9637 132.618 38.6408ZM140.928 38.1291C141.551 38.1188 142.163 38.2972 142.683 38.6408C143.188 38.964 143.602 39.4106 143.887 39.9383C144.173 40.4394 144.324 41.0061 144.325 41.5831V47.0838H142.316V42.0216C142.316 41.4369 142.127 40.9556 141.748 40.578C141.383 40.2003 140.908 40.0114 140.324 40.0114C139.96 40.0051 139.601 40.0933 139.282 40.2673C138.983 40.4334 138.734 40.6803 138.569 40.9799C138.395 41.2992 138.307 41.6581 138.313 42.0216V47.0838H136.303V38.3119H138.313V39.3045C138.555 39.015 138.847 38.7716 139.174 38.586C139.708 38.2789 140.314 38.1211 140.928 38.1291ZM152.493 38.6935C151.872 38.3153 151.152 38.1264 150.334 38.127C149.735 38.1225 149.14 38.2379 148.585 38.4663C148.031 38.6948 147.528 39.0317 147.106 39.4573C146.683 39.883 146.35 40.3887 146.127 40.9448C145.903 41.501 145.792 42.0962 145.802 42.6956C145.783 43.503 145.985 44.3002 146.384 45.0022C146.783 45.7043 147.365 46.2852 148.068 46.6828C148.797 47.0771 149.615 47.2772 150.444 47.2643C151.108 47.2676 151.768 47.1371 152.381 46.8805C152.98 46.6309 153.513 46.2427 153.934 45.7476L152.655 44.45C152.385 44.7558 152.047 44.9936 151.668 45.1444C151.273 45.3066 150.849 45.3873 150.421 45.382C149.938 45.3908 149.46 45.2764 149.033 45.0498C148.635 44.8232 148.312 44.4869 148.1 44.0812C147.994 43.8789 147.915 43.664 147.862 43.4416H154.405C154.439 43.2786 154.464 43.1139 154.479 42.9481C154.502 42.797 154.515 42.6442 154.515 42.4913C154.53 41.7073 154.34 40.933 153.968 40.2435C153.627 39.6014 153.117 39.0651 152.493 38.6935ZM148.09 41.2337C148.286 40.8441 148.592 40.52 148.968 40.3017C149.376 40.0736 149.836 39.9588 150.302 39.9694C150.789 39.9694 151.197 40.0669 151.527 40.2618C151.867 40.4566 152.141 40.7495 152.312 41.1025C152.419 41.3227 152.497 41.5563 152.543 41.7969H147.877C147.925 41.6017 147.996 41.4131 148.089 41.2353L148.09 41.2337ZM160.172 40.0658C159.704 40.0572 159.243 40.1773 158.838 40.4131C158.462 40.6283 158.152 40.9419 157.94 41.3201C157.724 41.7442 157.617 42.2152 157.63 42.6907C157.621 43.1659 157.727 43.6362 157.94 44.0613C158.153 44.4443 158.461 44.7654 158.835 44.9933C159.244 45.2186 159.704 45.3331 160.17 45.3255C160.57 45.3304 160.968 45.2558 161.339 45.1063C161.699 44.9513 162.02 44.7134 162.272 44.4118L163.587 45.7458C163.173 46.2327 162.654 46.62 162.07 46.8789C161.389 47.1654 160.654 47.2946 159.916 47.2565C159.179 47.2186 158.46 47.0145 157.812 46.6596C157.127 46.2673 156.56 45.6996 156.168 45.0149C155.762 44.3091 155.554 43.5077 155.564 42.694C155.551 41.88 155.76 41.0777 156.168 40.3731C156.56 39.6884 157.127 39.1207 157.812 38.7284C158.531 38.323 159.345 38.115 160.17 38.1253C160.824 38.1195 161.474 38.2567 162.07 38.5274C162.657 38.776 163.178 39.1589 163.589 39.6455L162.274 40.9796C162.025 40.6795 161.704 40.4471 161.342 40.3033C160.973 40.1418 160.574 40.0608 160.172 40.0658ZM170.341 38.3117H168.24V34.6567H166.229V38.3117H164.128V40.1391H166.229V47.0835H168.24V40.1391H170.341V38.3117Z" fill="white"/>
</svg>
