<svg width="180" height="80" viewBox="0 0 180 80" fill="none" xmlns="http://www.w3.org/2000/svg">
<path fill-rule="evenodd" clip-rule="evenodd" d="M42.1661 51.5404H19.8145V29.4453H42.1661V51.5404ZM38.6594 46.4484H30.9239V48.0213H38.6594V46.4484ZM111.409 46.983C111.368 47.466 111.337 47.8358 111.299 48.2657H109.157V32.2712H111.324V38.324C113.069 36.7935 114.873 36.2804 116.894 36.7157C118.299 37.0182 119.435 37.7808 120.295 38.9291C122.064 41.2911 121.86 44.6652 119.836 46.776C117.669 49.0354 114.688 49.1362 111.411 46.983H111.409ZM115.356 46.3336C117.492 46.323 119.242 44.6316 119.244 42.5756C119.244 40.4949 117.419 38.7522 115.28 38.7929C113.154 38.8318 111.446 40.5392 111.46 42.611C111.475 44.69 113.205 46.346 115.356 46.3354V46.3336ZM75.3832 46.3494C77.425 48.9273 80.3214 49.1626 84.2156 47.0076L84.2174 47.0093C84.2318 47.2295 84.2455 47.4305 84.2587 47.6252C84.273 47.8358 84.2868 48.039 84.3006 48.2514H87.3951V46.6148L87.2003 46.5649C86.9652 46.5048 86.7403 46.4473 86.4662 46.3777V36.8871H84.3041C84.2634 37.3454 84.2298 37.7311 84.1926 38.1628C80.8575 35.9724 77.839 36.0945 75.6663 38.4441C73.6422 40.631 73.5219 43.9997 75.3832 46.3494ZM80.24 38.7838C82.4039 38.7874 84.1572 40.5054 84.1413 42.602V42.6002C84.1236 44.6933 82.3437 46.3565 80.1568 46.3228C78.0461 46.291 76.2891 44.5465 76.328 42.5188C76.367 40.4735 78.1398 38.7803 80.24 38.7838ZM133.247 37.1989L133.247 37.1959L133.26 36.8885H135.456V46.4073C135.68 46.4554 135.868 46.4951 136.05 46.5334L136.052 46.5338L136.057 46.5348C136.174 46.5595 136.288 46.5836 136.408 46.609V48.258H133.267C133.252 47.9597 133.237 47.6705 133.219 47.3322L133.218 47.3223L133.196 46.8992C131.79 48.0864 130.257 48.734 128.472 48.5429C126.717 48.3554 125.273 47.5786 124.226 46.1455C122.48 43.7569 122.731 40.4112 124.797 38.3181C127.002 36.0852 129.969 36.0109 133.202 38.1818L133.203 38.1836C133.22 37.8262 133.233 37.5223 133.247 37.1989ZM129.245 46.3295C131.42 46.3206 133.186 44.5956 133.147 42.5184C133.11 40.4819 131.33 38.7852 129.233 38.7887C127.099 38.7922 125.287 40.5686 125.326 42.6175C125.365 44.6752 127.122 46.3383 129.245 46.3295ZM160.682 45.7656L160.683 45.7642V45.766L160.682 45.7656ZM160.465 45.6418C160.532 45.68 160.604 45.7206 160.682 45.7656C159.374 48.2063 155.835 49.2372 153.034 48.059C150.108 46.8294 148.659 43.6782 149.623 40.6527C150.55 37.744 153.471 36.049 156.504 36.6611C159.542 37.2733 161.456 40.0812 161.069 43.5048H151.792C152.061 44.6956 152.718 45.3998 153.629 45.8598C155.122 46.6117 156.683 46.5728 157.953 45.5378C158.781 44.8601 159.358 44.9698 160.101 45.4298C160.215 45.5003 160.331 45.5662 160.465 45.6418ZM155.258 38.7702C157.245 38.7684 158.67 40.1608 158.634 41.463H151.886C152.021 39.9698 153.535 38.7702 155.258 38.7702ZM61.1893 32.2636H63.3655V38.1129C63.4486 38.072 63.5199 38.0415 63.5814 38.0152C63.69 37.9687 63.7679 37.9354 63.8255 37.8811C65.2764 36.4975 66.9944 36.2463 68.8203 36.8602C70.6904 37.4901 71.8617 38.9286 72.0192 40.8182C72.1622 42.5167 72.13 44.2299 72.0973 45.969V45.9691C72.0831 46.7263 72.0687 47.4884 72.0687 48.2563H69.9544C69.9544 47.606 69.9571 46.9609 69.9598 46.3194C69.9658 44.8876 69.9718 43.4739 69.9473 42.0602C69.9084 39.769 68.1373 38.3677 65.9912 38.9179C64.6642 39.2576 63.8945 40.2025 63.5902 41.4799C63.4224 42.1809 63.4098 42.9261 63.3974 43.6537L63.3973 43.6579C63.3785 44.7373 63.382 45.8168 63.3856 46.9185V46.9186V46.9187V46.9188V46.9188V46.9189C63.387 47.3647 63.3885 47.8141 63.3885 48.2687H61.1875V32.2636H61.1893ZM141.611 46.4167C140.666 46.2646 139.864 45.8665 139.581 44.7111L139.58 44.7093C138.927 44.9269 138.319 45.129 137.702 45.3342L137.671 45.3445C138.001 46.7564 138.828 47.5792 140.01 48.0516C141.683 48.7204 143.417 48.7964 145.103 48.1772C145.848 47.9047 146.6 47.4305 147.135 46.852C148.509 45.3622 148.019 43.2426 146.17 42.4128C145.632 42.1698 145.037 42.0365 144.452 41.9055L144.316 41.8749C143.88 41.7767 143.441 41.6909 143.002 41.605C142.23 41.4542 141.459 41.3034 140.707 41.0858C140.335 40.9796 139.854 40.4878 139.834 40.1481C139.815 39.8048 140.261 39.3837 140.586 39.0882C140.808 38.8865 141.163 38.7945 141.475 38.7291C143.187 38.3681 144.758 38.5026 145.827 40.1357C146.26 39.982 146.666 39.8386 147.09 39.6889L147.664 39.4863C147.601 39.3604 147.547 39.2431 147.496 39.1332L147.495 39.1329C147.393 38.911 147.304 38.7189 147.188 38.5451C145.45 35.9548 140.151 35.8593 138.297 38.377C137.315 39.711 137.584 41.6042 138.994 42.4694C139.728 42.9206 140.593 43.2054 141.436 43.4231C142.006 43.5707 142.588 43.6719 143.171 43.773C143.748 43.8731 144.324 43.9732 144.889 44.1184C145.245 44.2104 145.732 44.6156 145.76 44.9146C145.79 45.2401 145.434 45.7232 145.112 45.9372C144.044 46.645 142.819 46.6131 141.611 46.4167ZM97.7706 48.1646C97.7022 48.1959 97.653 48.2213 97.6151 48.2408C97.5589 48.2698 97.5274 48.286 97.4946 48.2902C96.1912 48.4294 95.5389 47.8579 95.5377 46.5757V37.8743V36.8711H97.7016C97.7216 37.0725 97.7422 37.2734 97.761 37.4574L97.7626 37.473L97.7634 37.4812L97.7639 37.4864L97.7641 37.4883C97.7806 37.6495 97.7957 37.7967 97.8078 37.9185C98.1051 37.7818 98.3972 37.626 98.6883 37.4707L98.6885 37.4706C99.3277 37.1296 99.9622 36.7912 100.637 36.6623C103.597 36.0926 106.279 38.1414 106.509 41.1599C106.642 42.9083 106.621 44.6702 106.6 46.4295V46.4297C106.595 46.869 106.59 47.3082 106.587 47.747C106.587 47.9381 106.256 48.2584 106.042 48.292C105.684 48.3492 105.315 48.3391 104.913 48.328C104.744 48.3233 104.57 48.3185 104.388 48.3185C104.388 47.7917 104.388 47.2732 104.389 46.7608C104.39 45.5007 104.392 44.2769 104.384 43.0531C104.381 42.5276 104.372 41.9968 104.287 41.4801C104.048 40.0063 103.171 39.0845 101.838 38.8474C100.439 38.5979 99.0374 39.1694 98.4235 40.461C98.0466 41.2537 97.8608 42.1843 97.8007 43.069C97.7296 44.0769 97.7447 45.0902 97.7598 46.1031V46.1033V46.1034V46.1036C97.7661 46.5272 97.7724 46.9507 97.7724 47.3737V48.1699L97.7706 48.1646ZM58.6938 39.8257C58.8468 39.7459 58.9998 39.666 59.1544 39.5904V39.5887C57.8309 37.1842 54.9346 36.0412 52.2735 36.8144C49.6673 37.5717 47.7883 40.1548 47.9387 42.7752C48.1086 45.7476 50.1627 48.0283 53.1033 48.5042C55.5078 48.8952 58.3157 47.5222 59.0889 45.5495C59.0325 45.5188 58.9755 45.4885 58.9181 45.4581L58.9178 45.4579L58.9178 45.4579C58.7736 45.3815 58.6278 45.3041 58.4873 45.2168C57.7372 44.748 57.1887 44.6666 56.3925 45.4079C54.4675 47.2002 51.2491 46.3439 50.3167 43.9323C49.662 42.2426 50.2813 40.3583 51.81 39.387C53.3776 38.3891 55.4034 38.6439 56.7534 39.9761C56.9498 40.1708 57.3072 40.4238 57.4983 40.3636C57.9118 40.2338 58.3024 40.03 58.6938 39.8257ZM90.1305 36.8642H92.1546V48.3169C91.9887 48.3169 91.8249 48.3191 91.6626 48.3213C91.2293 48.3272 90.8072 48.333 90.3888 48.2957C90.2402 48.2833 89.9978 48.0143 89.9978 47.8622C89.9878 44.4711 90.0029 41.0815 90.0179 37.6906V37.6881L90.0208 37.0517C90.0208 37.02 90.0439 36.9884 90.0744 36.9466L90.0745 36.9465C90.0918 36.9229 90.1113 36.896 90.1305 36.8642ZM91.0621 34.7751C91.7628 34.7981 92.3696 34.2177 92.382 33.5118V33.5135C92.3944 32.8111 91.8052 32.222 91.094 32.2255C90.4163 32.229 89.8431 32.7722 89.813 33.4357C89.7811 34.1257 90.365 34.7521 91.0621 34.7751Z" fill="white"/>
</svg>
