<svg width="180" height="80" viewBox="0 0 180 80" fill="none" xmlns="http://www.w3.org/2000/svg">
<path fill-rule="evenodd" clip-rule="evenodd" d="M54.2987 41.4935L46.2498 46.1661C45.7975 46.4144 45.301 46.4144 44.8541 46.1661L41.8199 44.4284V40.0537L45.5492 42.1886L51.2148 38.9117V32.402L45.5492 29.1196L39.9774 32.3524L39.8781 32.402V49.0514C39.8781 49.5479 39.6298 49.9947 39.183 50.243L31.1341 54.9156C30.6873 55.1639 30.1908 55.1639 29.7439 54.9156L21.6951 50.243C21.2483 49.9947 21 49.5479 21 49.0514V39.7061C21 39.2096 21.2483 38.7628 21.6951 38.5145L29.7495 33.8364C29.9481 33.6874 30.1963 33.6378 30.4446 33.6378C30.6928 33.6378 30.9411 33.7371 31.1397 33.8364L34.1738 35.5741V39.9489L30.4446 37.8139L24.7789 41.0963V47.606L30.4446 50.8884L36.1102 47.606V30.9567C36.1102 30.4602 36.3584 30.0133 36.8053 29.7651L44.8596 25.0924C45.3065 24.8442 45.803 24.8442 46.2498 25.0924L54.2987 29.7651C54.7455 30.0133 54.9938 30.4602 54.9938 30.9567V40.3019C54.9938 40.7984 54.7455 41.2453 54.2987 41.4935ZM95.398 47.7504V28.9164H98.6804V47.7504H95.398ZM63.9428 53.0676V53.1173H63.9372V53.0676H63.9428ZM67.2197 53.0676H63.9428V34.1344H66.7783L67.0266 35.6735H67.1755C67.9699 34.6309 69.3601 33.8861 71.2524 33.8861C74.7334 33.8861 77.5634 36.7217 77.5634 40.942C77.5634 45.1622 74.7775 47.9978 71.2468 47.9978C69.3601 47.9978 68.0637 47.2034 67.3686 46.3097H67.2197V53.0676ZM70.7503 36.9148C72.6922 36.9148 74.281 38.4595 74.281 40.942C74.281 43.43 72.6922 44.9691 70.7503 44.9691C68.8085 44.9691 67.2197 43.43 67.2197 40.942C67.2197 38.4539 68.8085 36.9148 70.7503 36.9148ZM86.1091 33.8861C82.1867 33.8861 79.2022 36.8155 79.2022 40.942C79.2022 45.0188 82.1316 47.9978 86.1091 47.9978C90.0315 47.9978 93.016 45.0684 93.016 40.942C93.016 36.8707 90.0866 33.8861 86.1091 33.8861ZM86.1036 36.9148C88.1448 36.9148 89.7336 38.5091 89.7336 40.942C89.7336 43.3803 88.0951 44.9691 86.1036 44.9691C84.1121 44.9691 82.4736 43.3803 82.4736 40.942C82.4736 38.5036 84.1176 36.9148 86.1036 36.9148ZM114.387 34.1359H110.906V34.1304H110.812L107.629 43.575H107.082L103.552 34.1304H100.071L105.637 48.5455L105.339 49.4392C105.19 49.8364 104.942 50.0846 104.445 50.0846H101.764V53.1188H104.942C107.082 53.1188 107.877 52.3244 108.473 50.686L114.387 34.1359ZM115.033 48.4502H118.365C118.514 49.3439 119.407 50.5355 121.498 50.5355C123.484 50.5355 124.78 49.2942 124.78 47.402V45.5153H124.632C123.887 46.3097 122.546 47.0048 120.853 47.0048C117.372 47.0048 114.641 44.3237 114.641 40.4455C114.641 36.5672 117.322 33.8861 120.853 33.8861C122.64 33.8861 123.986 34.6309 124.83 35.6239H124.979L125.227 34.1344H128.063V47.402C128.063 51.032 125.63 53.4152 121.504 53.4152C116.87 53.4152 115.132 50.3865 115.033 48.4502ZM124.725 40.4455C124.725 38.3105 123.236 36.8155 121.294 36.8155C119.407 36.8155 117.912 38.305 117.912 40.4455C117.912 42.5859 119.402 44.0754 121.294 44.0754C123.186 44.0754 124.725 42.5804 124.725 40.4455ZM137.198 33.8861C133.276 33.8861 130.291 36.8155 130.291 40.942C130.291 45.0188 133.221 47.9978 137.198 47.9978C141.12 47.9978 144.105 45.0684 144.105 40.942C144.105 36.8707 141.176 33.8861 137.198 33.8861ZM137.198 36.9148C139.19 36.9148 140.828 38.5091 140.828 40.942C140.828 43.3803 139.184 44.9691 137.198 44.9691C135.207 44.9691 133.568 43.3803 133.568 40.942C133.568 38.5036 135.212 36.9148 137.198 36.9148ZM146.394 34.1344H149.23L149.478 35.4253H149.627C150.173 34.8295 151.514 33.8861 153.555 33.8861C156.688 33.8861 158.923 36.1204 158.923 39.6014V47.7992H155.64V40.0483C155.64 38.3105 154.399 37.0141 152.705 37.0141C151.012 37.0141 149.671 38.3546 149.671 40.0483V47.7992H146.394V47.7496V34.1344Z" fill="url(#paint0_linear_22158_69795)"/>
<defs>
<linearGradient id="paint0_linear_22158_69795" x1="20.9443" y1="49.9691" x2="53.3485" y2="31.0335" gradientUnits="userSpaceOnUse">
<stop stop-color="#A726C1"/>
<stop offset="0.8784" stop-color="#803BDF"/>
<stop offset="1" stop-color="#7B3FE4"/>
</linearGradient>
</defs>
</svg>
