<svg width="180" height="80" viewBox="0 0 180 80" fill="none" xmlns="http://www.w3.org/2000/svg">
<path fill-rule="evenodd" clip-rule="evenodd" d="M42.0484 30.509C42.0484 32.4874 40.4798 34.1118 38.524 34.1118C36.5683 34.1118 34.9997 32.4874 34.9997 30.509C34.9997 28.5306 36.5683 26.9062 38.524 26.9062C40.4594 26.9062 42.0484 28.5099 42.0484 30.509ZM19.0684 41.5672C19.0684 46.4402 22.9188 50.3762 27.6859 50.3762C32.4531 50.3762 36.3034 46.4402 36.3034 41.5672C36.3034 36.6941 32.4531 32.758 27.6859 32.758C22.9188 32.758 19.0684 36.6941 19.0684 41.5672ZM145.824 36.0649L151.142 48.5392L148.901 53.2457H152.445L160.717 36.0649H157.212L153.016 44.999L149.39 36.0649H145.824ZM139.123 45.6029C138.837 45.7695 138.532 45.8737 138.226 45.9569C137.879 46.0403 137.553 46.0818 137.227 46.0611C136.881 46.0818 136.555 46.0403 136.229 45.9569C135.903 45.8737 135.618 45.7487 135.333 45.6029C135.068 45.4572 134.803 45.2696 134.579 45.0615C134.355 44.8532 134.151 44.6033 133.988 44.3325C133.825 44.041 133.683 43.7287 133.601 43.4163C133.499 43.0622 133.459 42.6874 133.459 42.3334C133.459 41.9794 133.499 41.6044 133.601 41.2504C133.683 40.9381 133.825 40.6257 133.988 40.3342C134.151 40.0634 134.355 39.8136 134.579 39.6052C134.803 39.3969 135.047 39.2095 135.333 39.0638C135.618 38.918 135.924 38.7931 136.229 38.7306C136.555 38.6681 136.901 38.6264 137.227 38.6264C137.553 38.6057 137.9 38.6474 138.226 38.7306C138.532 38.8138 138.837 38.918 139.123 39.0638C139.386 39.2095 139.651 39.3969 139.876 39.6052C140.1 39.8136 140.304 40.0634 140.467 40.3342C140.63 40.6257 140.773 40.9381 140.853 41.2504C140.956 41.6044 140.996 41.9584 140.996 42.3334C140.996 42.7081 140.956 43.0622 140.853 43.4163C140.773 43.7287 140.63 44.041 140.467 44.3325C140.304 44.6033 140.1 44.8532 139.876 45.0615C139.651 45.2696 139.386 45.4572 139.123 45.6029ZM133.051 48.1019C133.54 48.3935 134.07 48.6018 134.62 48.7475C135.21 48.9141 135.801 48.9766 136.392 48.9766C136.861 48.9974 137.35 48.9349 137.818 48.8517C138.246 48.7892 138.654 48.6643 139.04 48.4767C139.713 48.1644 140.304 47.7062 140.753 47.1231V48.6226H144.134V36.0859H140.753V37.5852C140.63 37.3978 140.467 37.2311 140.304 37.0645C140.14 36.898 139.937 36.7314 139.734 36.6065C139.509 36.4606 139.285 36.3357 139.04 36.2316C138.798 36.107 138.533 36.0239 138.269 35.9408L138.266 35.94C137.981 35.8568 137.696 35.7943 137.39 35.7526C137.064 35.7109 136.738 35.6901 136.412 35.6901C135.801 35.6901 135.21 35.7734 134.62 35.9192C134.07 36.0649 133.54 36.294 133.051 36.5648C132.094 37.1271 131.299 37.9184 130.769 38.8972C130.484 39.3969 130.28 39.9385 130.138 40.5007C129.853 41.7086 129.853 42.9582 130.138 44.1659C130.28 44.7282 130.484 45.2696 130.769 45.7695C131.299 46.7483 132.094 47.5605 133.051 48.1019ZM123.802 39.0846C123.333 39.2095 122.844 39.2512 122.356 39.2512H119.035V33.8784H122.356C122.844 33.8574 123.333 33.9199 123.802 34.045C124.169 34.1282 124.515 34.3156 124.8 34.5447C125.065 34.7738 125.269 35.0446 125.391 35.3777C125.513 35.7526 125.574 36.1483 125.574 36.544C125.595 36.9396 125.513 37.3353 125.391 37.7102C125.269 38.0433 125.065 38.3349 124.8 38.564C124.515 38.8138 124.169 38.9804 123.802 39.0846ZM122.702 30.9212H115.531L115.551 48.6226H119.055V42.1875H122.702C123.68 42.2084 124.678 42.0626 125.615 41.771C126.369 41.5419 127.062 41.1464 127.652 40.6048C128.182 40.1051 128.589 39.5011 128.854 38.8138C129.119 38.1058 129.241 37.3353 129.241 36.5648C129.262 35.7943 129.119 35.0237 128.854 34.2949C128.589 33.6076 128.182 33.0037 127.652 32.5038C127.062 31.9832 126.369 31.5667 125.615 31.3376C124.678 31.0461 123.7 30.9004 122.702 30.9212ZM103.878 36.0649H100.516L100.537 48.6226H103.878V41.9377C103.878 41.4587 103.939 40.9588 104.081 40.5007C104.204 40.1259 104.387 39.7719 104.652 39.4595C104.896 39.1888 105.222 38.9597 105.569 38.8347C106.383 38.564 107.26 38.564 108.054 38.8347C108.4 38.9597 108.726 39.1888 108.971 39.4595C109.236 39.7719 109.419 40.1259 109.541 40.5007C109.684 40.9588 109.745 41.4587 109.745 41.9377V48.6226H113.106V41.0422C113.106 40.2717 113.005 39.522 112.76 38.7931C112.556 38.1683 112.23 37.5852 111.782 37.1062C111.334 36.648 110.784 36.294 110.193 36.0649C109.541 35.8151 108.828 35.6901 108.115 35.7109C107.647 35.7109 107.198 35.7526 106.75 35.8358C106.343 35.9192 105.935 36.0442 105.569 36.2108C105.222 36.3565 104.896 36.5648 104.611 36.7939C104.326 37.002 104.081 37.2728 103.878 37.5644V36.0649ZM93.1618 45.5612C92.8765 45.7278 92.571 45.832 92.245 45.9152C91.8987 46.0194 91.5524 46.0611 91.1857 46.0611C90.8189 46.0611 90.4726 46.0194 90.1263 45.9361C89.8003 45.8528 89.4948 45.7278 89.2095 45.5821C88.9243 45.4363 88.6799 45.2489 88.4558 45.0198C88.2317 44.7907 88.0279 44.5408 87.8854 44.2701C87.7427 43.9994 87.6205 43.687 87.5391 43.3746C87.2742 42.3541 87.3964 41.2921 87.8854 40.3757C88.0484 40.1051 88.2317 39.8551 88.4558 39.626C88.6799 39.3969 88.9243 39.2095 89.2095 39.0638C89.4948 38.8972 89.8003 38.7931 90.1263 38.7098C90.4726 38.6264 90.8394 38.5849 91.1857 38.5849C91.532 38.5849 91.8987 38.6264 92.245 38.7098C92.5507 38.7931 92.8765 38.8972 93.1618 39.0638C93.4266 39.2095 93.6915 39.3969 93.9156 39.626C94.3637 40.0634 94.6897 40.6465 94.8324 41.2713C94.9952 41.9584 94.9952 42.6666 94.8324 43.3537C94.7713 43.6662 94.6489 43.9577 94.4861 44.2493C94.3231 44.5199 94.1396 44.7699 93.9156 44.999C93.6915 45.2281 93.447 45.4155 93.1618 45.5612ZM87.4575 48.1019C88.0076 48.3935 88.5983 48.6018 89.2095 48.7475C90.5134 49.0598 91.8784 49.0598 93.1822 48.7683C93.773 48.6226 94.3637 48.4142 94.9138 48.1227C95.4435 47.8521 95.9325 47.5188 96.3602 47.1231C97.2158 46.3526 97.8475 45.3321 98.1531 44.1868C98.4791 42.9997 98.4791 41.7295 98.1531 40.5216C98.0104 39.9593 97.7659 39.4179 97.4604 38.918C97.1547 38.4183 96.7881 37.9809 96.3602 37.5852C95.9121 37.1687 95.4435 36.8356 94.9138 36.5648C94.3637 36.2732 93.7933 36.0649 93.1822 35.9192C91.8784 35.6068 90.5134 35.6068 89.2095 35.9192C88.5983 36.0649 88.0076 36.2732 87.4575 36.5648C86.4185 37.0854 85.5426 37.8976 84.9314 38.8972C84.6258 39.3969 84.4017 39.9385 84.2387 40.5007C83.9127 41.6878 83.9127 42.9582 84.2387 44.1659C84.4017 44.7282 84.6258 45.2696 84.9314 45.7695C85.2166 46.2692 85.5832 46.7066 86.0111 47.1023C86.4593 47.4981 86.9278 47.8311 87.4575 48.1019ZM77.0471 45.5612C76.7619 45.7278 76.4564 45.832 76.1304 45.9152C75.7841 45.9986 75.4174 46.0403 75.0711 46.0403C74.7043 46.0403 74.358 45.9986 74.0117 45.9152C73.6858 45.832 73.3801 45.7071 73.0949 45.5612C72.8097 45.4155 72.5653 45.2281 72.3412 44.999C72.1171 44.7699 71.9133 44.5199 71.7707 44.2493C71.6281 43.9785 71.5059 43.6662 71.4244 43.3537C71.3428 43.0206 71.3022 42.6666 71.3022 42.3126C71.2817 41.9584 71.3428 41.6044 71.4244 41.2713C71.5059 40.9588 71.6281 40.6673 71.7707 40.3757C71.9338 40.1051 72.1171 39.8343 72.3412 39.626C72.5653 39.3969 72.83 39.2095 73.0949 39.0638C73.3801 38.8972 73.6858 38.7931 74.0117 38.7098C74.358 38.6264 74.7248 38.5849 75.0711 38.5849C75.4174 38.5849 75.7841 38.6264 76.1304 38.7098C76.4361 38.7931 76.7619 38.8972 77.0471 39.0638C77.312 39.2095 77.5769 39.3969 77.801 39.626C78.2492 40.0634 78.5751 40.6465 78.7178 41.2713C78.8808 41.9584 78.8808 42.6666 78.7178 43.3537C78.6567 43.6662 78.5344 43.9577 78.3714 44.2493C78.2084 44.5199 78.0251 44.7699 77.801 44.999C77.5769 45.2281 77.3325 45.4155 77.0471 45.5612ZM71.3225 48.1019C71.8726 48.3935 72.4634 48.6018 73.0746 48.7475C74.3988 49.0598 75.7637 49.0598 77.0471 48.7475C77.638 48.6018 78.2288 48.3935 78.7789 48.1019C79.3085 47.8311 79.7975 47.4981 80.2253 47.1023C81.0809 46.3319 81.7124 45.3113 82.0181 44.1659C82.344 42.9789 82.344 41.7086 82.0181 40.5007C81.8754 39.9385 81.631 39.3969 81.3255 38.8972C81.0198 38.3973 80.6532 37.9601 80.2253 37.5644C79.777 37.1479 79.3085 36.8147 78.7789 36.544C78.2288 36.2525 77.6583 36.0442 77.0471 35.8983C75.7434 35.6068 74.3785 35.6068 73.0746 35.8983C72.4634 36.0442 71.8726 36.2525 71.3225 36.544C70.7929 36.8147 70.3039 37.1687 69.8762 37.5644C69.4686 37.9601 69.1019 38.3973 68.7964 38.8972C68.4907 39.3969 68.2666 39.9385 68.1038 40.5007C67.7778 41.6878 67.7778 42.9582 68.1038 44.1659C68.2666 44.7282 68.4907 45.2696 68.7964 45.7695C69.0816 46.2692 69.4483 46.7066 69.8762 47.1023C70.3242 47.4981 70.7929 47.8311 71.3225 48.1019ZM50.1352 30.9212H46.5904V48.6226H50.0944V36.4814L55.106 44.3118H57.2452L62.2568 36.4814V48.6226H65.7608V30.9212H62.2365L56.1654 40.355L50.1352 30.9212Z" fill="#7D00FE"/>
</svg>
