<svg width="180" height="80" viewBox="0 0 180 80" fill="none" xmlns="http://www.w3.org/2000/svg">
<path fill-rule="evenodd" clip-rule="evenodd" d="M70.7222 43.045C71.3164 42.8822 71.8394 42.6659 72.1211 42.3973C72.4028 42.1286 72.505 41.5653 72.505 40.7155V18.706C72.505 17.8919 72.4111 17.3606 72.1484 17.1098C71.8857 16.859 71.4353 16.6522 70.7222 16.4894V15.6016H77.8534V33.4713L82.7443 27.9719C82.9952 27.7351 83.2063 27.4594 83.3694 27.1554C83.4751 26.9678 83.5399 26.76 83.5596 26.5457C83.5596 26.1582 83.3932 25.9015 83.0497 25.7755C82.7062 25.6495 82.1322 25.5509 81.3002 25.476V24.6345H89.5011V25.476C88.868 25.5506 88.2441 25.6887 87.6387 25.8884C86.8126 26.2141 86.0199 26.7644 85.2438 27.5405L82.2629 31.1631L89.6984 42.4638C89.8093 42.6375 89.9601 42.7822 90.1382 42.8857C90.3127 42.967 90.4987 43.0207 90.6897 43.045V44.0077H81.6568V43.045C82.251 43.02 82.6349 42.9511 82.8905 42.8394C83.146 42.7277 83.2874 42.5506 83.2874 42.3129C83.2737 42.132 83.2214 41.9561 83.1341 41.797C82.9016 41.3771 82.6423 40.9726 82.358 40.5859L78.7068 34.3544L77.8534 35.2933V40.7178C77.8534 41.5807 77.9937 42.1572 78.21 42.4448C78.4263 42.7324 78.9231 42.9321 79.8739 43.045V44.0077H70.7222V43.045ZM51.1289 35.6285H52.1927C52.8036 38.481 53.7889 40.4754 55.1509 41.7483C56.513 43.0213 58.0712 43.6607 59.829 43.6607C61.5382 43.6607 62.7528 43.2249 63.4731 42.3533C64.1934 41.4817 64.5535 40.5622 64.5535 39.5947C64.5535 38.4703 64.1775 37.554 63.4256 36.8456C62.9272 36.3813 61.9193 35.7763 60.4019 35.0307L57.963 33.8196C55.5384 32.6231 53.8277 31.4377 52.8309 30.2634C51.8341 29.0892 51.3361 27.6411 51.3369 25.9193C51.3369 24.0866 51.9965 22.3759 53.3158 20.7872C54.6351 19.1985 56.658 18.4061 59.3845 18.4101C60.7502 18.407 62.1081 18.6171 63.4089 19.0329C64.7044 19.4481 65.4441 19.6557 65.6279 19.6557C66.0451 19.6557 66.3339 19.5594 66.4944 19.3217C66.6693 19.0362 66.7996 18.7255 66.8807 18.4006H68.011V26.4827H66.9555C66.4946 24.6628 65.585 22.9875 64.3098 21.6097C63.0476 20.2417 61.5132 19.5677 59.7066 19.5677C58.4373 19.5677 57.4329 19.9243 56.6948 20.6089C56.3408 20.9256 56.0587 21.3144 55.8674 21.7493C55.6761 22.1841 55.5802 22.6548 55.5859 23.1298C55.5859 24.3184 55.9318 25.205 56.6235 25.7898C57.3034 26.3888 58.8259 27.2687 61.1911 28.4295L64.0246 29.8237C65.2868 30.4465 66.2931 31.1366 67.0435 31.8941C68.438 33.3117 69.1377 35.0323 69.1425 37.056C69.1425 38.9481 68.3897 40.7309 66.8842 42.4044C65.3787 44.0779 62.9684 44.917 59.6531 44.9217C58.8784 44.9224 58.1052 44.854 57.3426 44.7173C56.553 44.5735 55.7786 44.3558 55.0297 44.0672L54.2928 43.7914C54.1217 43.7427 53.9553 43.7035 53.796 43.6726C53.6625 43.6455 53.5269 43.6304 53.3907 43.6274C52.9973 43.6274 52.7275 43.7261 52.5801 43.9519C52.4123 44.2516 52.2821 44.571 52.1927 44.9027H51.1289V35.6285ZM93.0208 45.3217C92.3316 45.3049 91.6568 45.5215 91.1061 45.9362V45.9326C90.5704 46.3415 90.3026 46.9817 90.3026 47.8533C90.3026 48.5847 90.6263 49.2582 91.2737 49.8738C91.921 50.4895 92.8659 50.7973 94.1083 50.7973C95.8119 50.7965 97.0638 50.293 97.8641 49.2867C98.6644 48.2804 99.6192 46.3724 100.729 43.5627L106.434 28.3291C106.769 27.4508 107.101 26.8946 107.419 26.6652C107.787 26.4231 108.213 26.2843 108.653 26.2634V25.3982H102.829V26.2634C103.542 26.2777 104.059 26.3585 104.413 26.5012C104.767 26.6438 104.953 26.9849 104.953 27.5197C104.947 27.7712 104.907 28.0208 104.834 28.2614C104.753 28.5371 104.645 28.8771 104.526 29.2503L102.013 35.9774H101.823L98.7793 28.4492C98.6307 28.0629 98.5333 27.7788 98.4905 27.6291C98.4523 27.5138 98.4299 27.3938 98.4239 27.2725C98.4239 26.8625 98.6117 26.5951 98.992 26.4703C99.4666 26.3323 99.9585 26.2631 100.453 26.2646V25.3994H90.9444V26.2646C91.4198 26.3146 91.8144 26.4263 92.0141 26.601C92.2138 26.7757 92.4717 27.1988 92.8199 27.8715C93.1559 28.5316 93.476 29.2102 93.7803 29.9075C94.0846 30.6048 94.3983 31.3516 94.7216 32.1479L99.2488 43.3285C98.5713 45.1946 98.0531 46.4473 97.6942 47.0867C97.1237 48.1223 96.506 48.6401 95.8412 48.6401C95.7491 48.6428 95.6574 48.6259 95.5722 48.5907C95.487 48.5555 95.4102 48.5027 95.3468 48.4357C95.2246 48.3182 95.1541 48.1571 95.1507 47.9876L95.2434 47.1485C95.2425 46.901 95.1858 46.6568 95.0776 46.4341C94.9694 46.2115 94.8124 46.0161 94.6182 45.8625C94.2022 45.502 93.6698 45.3217 93.0208 45.3217ZM121.835 31.2392L121.558 31.4651C120.131 33.5664 118.245 33.923 116.625 33.923C115.08 33.923 113.592 33.2883 112.412 32.3054C110.873 31.0324 109.89 29.1474 109.89 26.8214C109.877 25.2812 110.252 23.7625 110.98 22.4048C111.668 21.0974 112.785 20.124 114.018 19.4334C115.25 18.7429 116.682 18.4006 118.313 18.4006C120.836 18.4006 123.186 19.273 124.782 21.0713C126.615 23.131 127.818 26.1392 127.818 29.7726C127.818 35.14 126.547 37.5421 124.449 40.1913C122.585 42.5292 119.543 43.6726 116.843 43.6726C115.127 43.6726 113.708 43.2213 112.585 42.3188C111.461 41.4155 111.04 40.6881 111.04 39.578C111.04 38.7211 111.271 38.0329 111.793 37.4779C112.062 37.2024 112.383 36.9832 112.738 36.8331C113.092 36.6829 113.473 36.6047 113.858 36.6031C114.543 36.6031 115.59 36.8408 116.049 37.3162C116.276 37.5507 116.453 37.8282 116.572 38.1323C116.69 38.4364 116.746 38.761 116.737 39.0872C116.737 39.4687 116.543 39.9536 116.114 40.4766C116.052 40.5526 115.965 40.6324 115.873 40.7182C115.621 40.9503 115.323 41.2255 115.334 41.5831C115.342 41.8375 115.619 42.0419 115.828 42.1916C116.169 42.4117 116.57 42.5208 116.976 42.5042C117.742 42.5042 118.965 42.3854 119.696 41.7388C120.427 41.0922 121.202 39.3225 121.451 37.6253C121.68 36.0528 121.807 33.9016 121.836 31.2404L121.835 31.2392ZM118.586 19.4334C117.689 19.4334 116.922 19.7318 116.369 20.7016C115.815 21.6715 115.589 23.5422 115.589 25.9383C115.589 28.0135 115.872 29.7809 116.369 30.6461C116.865 31.5114 117.496 31.6493 118.33 31.6493C119.238 31.6493 120.21 31.4044 120.846 30.355C121.482 29.3055 121.6 27.43 121.599 25.293C121.599 22.6782 121.324 21.5384 120.608 20.5388C120.073 19.79 119.345 19.4287 118.588 19.4287L118.586 19.4334ZM57.8965 58.7335C57.8125 58.0572 57.4946 57.4315 56.9979 56.9649L56.9991 56.9661C56.4603 56.4471 55.7024 56.1876 54.7254 56.1876C53.5773 56.1876 52.6823 56.5917 52.0322 57.3928C51.43 58.1297 51.1289 59.0742 51.1289 60.2263C51.1289 61.7436 51.5298 62.8656 52.3317 63.5922C52.9395 64.1421 53.6922 64.4171 54.5899 64.4171C55.6295 64.4179 56.4556 64.0835 57.0681 63.4139C57.5888 62.8443 57.9064 62.1184 57.9713 61.3494H56.9409C56.8574 61.788 56.6964 62.2082 56.4655 62.5903C56.0649 63.1893 55.4813 63.4852 54.7171 63.4852C53.8851 63.4852 53.2596 63.2008 52.8404 62.6319C52.4212 62.063 52.2117 61.3209 52.2117 60.4057C52.2109 59.2893 52.443 58.4605 52.9082 57.9193C53.1317 57.6546 53.4123 57.444 53.7289 57.3034C54.0455 57.1628 54.3899 57.0959 54.7361 57.1075C55.3554 57.1075 55.8367 57.2513 56.179 57.5449C56.5269 57.8593 56.7672 58.2751 56.866 58.7335H57.8965ZM66.6505 56.1876H67.8391L70.6714 64.032H69.5137L68.6984 61.6549H65.6462L64.8 64.032H63.716L66.6505 56.1876ZM68.4036 60.8229L67.202 57.3761L65.9529 60.8229H68.4036ZM81.2516 56.1889H77.7134V64.0356H78.783V60.7077H81.254C82.0349 60.7077 82.6137 60.4938 82.9929 60.0421C83.3689 59.6027 83.571 59.0408 83.561 58.4625C83.561 57.7494 83.3494 57.1908 82.9251 56.7986C82.4667 56.3872 81.8672 56.1688 81.2516 56.1889ZM80.9093 57.1397C81.2345 57.1265 81.5588 57.1832 81.8602 57.3061V57.312C82.2821 57.5177 82.4937 57.9146 82.4937 58.4887C82.4937 58.9926 82.3463 59.3563 82.0527 59.5584C81.7116 59.7781 81.3113 59.888 80.9058 59.8733H78.783V57.1397H80.9093ZM91.3723 56.1876H90.3026V64.032H91.3723V56.1876ZM104.99 57.1384V56.1876H98.6912V57.1384H101.306V64.032H102.376V57.1384H104.99ZM112.835 56.1876H114.023L116.857 64.032H115.698L114.883 61.6549H111.82L110.973 64.032H109.889L112.835 56.1876ZM114.588 60.8229L113.386 57.3761L112.137 60.8229H114.588ZM124.946 56.1876H123.876V64.032H128.868V63.0811H124.946V56.1876Z" fill="#3F607A"/>
</svg>
