<svg width="180" height="80" viewBox="0 0 180 80" fill="none" xmlns="http://www.w3.org/2000/svg">
<path fill-rule="evenodd" clip-rule="evenodd" d="M74.4819 41.9289H69.6292V41.9301C69.6288 41.9301 69.6287 41.9301 69.6286 41.93L69.6286 41.9295L69.6284 41.9291L69.628 41.9289C69.5962 41.9301 69.565 41.9301 69.5333 41.9301C67.5892 41.9301 66.0137 40.3451 66.0137 38.3906C66.0137 36.436 67.5898 34.8516 69.5333 34.8516C69.565 34.8516 69.5968 34.8522 69.628 34.8527C69.6286 34.8527 69.6286 34.8527 69.6286 34.8522C69.6286 34.8516 69.6292 34.8516 69.6292 34.8516H77.0174C77.3664 34.8516 77.5341 35.2836 77.2769 35.5219L75.636 37.0451C75.5654 37.1104 75.4724 37.1469 75.3765 37.1469H69.5309C68.8494 37.1469 68.2967 37.7037 68.2967 38.3906C68.2967 39.0774 68.8494 39.6342 69.5309 39.6342H74.7591C74.7626 39.6342 74.765 39.6365 74.765 39.6401C74.765 39.643 74.7673 39.6459 74.7703 39.6459C76.5783 39.7943 77.9991 41.218 77.9991 43.1732C77.9991 45.1283 76.4235 46.7127 74.4795 46.7127C74.3853 46.7127 74.2923 46.7086 74.1999 46.7016C74.197 46.701 74.1941 46.7033 74.1941 46.7068C74.1941 46.7098 74.1888 46.7121 74.1888 46.7121H66.8612C66.5051 46.7121 66.3415 46.2654 66.6122 46.0324L68.3797 44.5092C68.4491 44.4491 68.5374 44.4162 68.6286 44.4162H74.4819C75.1634 44.4162 75.7161 43.8594 75.7161 43.1726C75.7161 42.4857 75.1634 41.9289 74.4819 41.9289ZM97.5117 35.2377C97.5117 35.0246 97.6836 34.8516 97.8961 34.8516H99.3675C99.5793 34.8516 99.7518 35.0246 99.7518 35.2377V44.3615C99.7518 44.5745 99.9236 44.7475 100.136 44.7475H107.895C108.231 44.7475 108.405 45.1513 108.175 45.3979L107.062 46.5909C106.99 46.6686 106.888 46.7127 106.782 46.7127H97.8961C97.6836 46.7127 97.5117 46.5397 97.5117 46.3266V35.2377ZM83.6624 34.8522C83.6624 34.8522 83.6612 34.8522 83.6612 34.8533C83.6612 34.8533 83.6606 34.8545 83.6601 34.8545C82.5241 34.9039 81.6125 35.818 81.563 36.9557L81.5624 36.9568H81.5613V44.4168L81.5618 44.418C81.5624 44.418 81.563 44.418 81.563 44.4191C81.5618 44.4503 81.5613 44.4821 81.5613 44.5139C81.5613 45.6969 82.4923 46.6615 83.6601 46.7121C83.6606 46.7121 83.6612 46.7121 83.6612 46.7133C83.6612 46.7133 83.6618 46.7145 83.6624 46.7145H91.7251C91.7251 46.7145 91.7254 46.7145 91.7258 46.7143C91.726 46.7141 91.7263 46.7139 91.7263 46.7133H91.7268V46.7121H91.7274C92.8951 46.6615 93.8262 45.6969 93.8262 44.5139C93.8262 44.4821 93.8256 44.4509 93.8245 44.4191C93.8245 44.4191 93.8245 44.418 93.8256 44.418L93.826 44.4178C93.8261 44.4177 93.8262 44.4174 93.8262 44.4168V36.9574C93.8262 36.9574 93.8256 36.9562 93.8251 36.9562C93.8245 36.9562 93.8251 36.9562 93.8251 36.9551C93.7756 35.8168 92.8639 34.9028 91.728 34.8539C91.7274 34.8539 91.7268 34.8539 91.7268 34.8527C91.7268 34.8527 91.7263 34.8516 91.7257 34.8516H83.663L83.6624 34.8522ZM85.165 36.9568H85.1644C85.1644 36.9568 85.1644 36.958 85.1638 36.958C84.454 36.9892 83.8837 37.5636 83.8531 38.2799L83.853 38.2803C83.8529 38.2804 83.8528 38.2805 83.8525 38.2805C83.8525 38.2805 83.8519 38.2805 83.8519 38.2811V42.973L83.8525 42.9736L83.853 42.9737C83.8531 42.9737 83.8531 42.9739 83.8531 42.9742C83.8525 42.9936 83.8519 43.0137 83.8519 43.0337C83.8519 43.7776 84.434 44.3844 85.1638 44.4162L85.1643 44.4163L85.1644 44.4168H85.165H90.2225H90.2231C90.2231 44.4168 90.2231 44.4156 90.2237 44.4156C90.9535 44.3838 91.5356 43.777 91.5356 43.0331C91.5356 43.0131 91.535 42.9931 91.5344 42.9736L91.535 42.973C91.535 42.973 91.5356 42.973 91.5356 42.9725V38.2805L91.535 38.2799C91.5346 38.2799 91.5344 38.2799 91.5344 38.2797L91.5344 38.2793C91.5038 37.563 90.9335 36.9886 90.2237 36.9574L90.2232 36.9573L90.2231 36.9568H90.2225H85.165ZM121.476 46.7133C121.266 46.7133 121.095 46.5403 121.095 46.3272V42.5087C121.095 42.2956 120.925 42.1226 120.714 42.1226H113.922C113.712 42.1226 113.541 42.2956 113.541 42.5087V46.3278C113.541 46.5409 113.37 46.7139 113.16 46.7139H111.653C111.443 46.7139 111.272 46.5409 111.272 46.3278V37.1493C111.272 37.1487 111.272 37.1484 111.273 37.1482L111.273 37.1481C111.274 37.1481 111.274 37.1478 111.274 37.1475L111.274 37.1469C111.273 37.1157 111.272 37.084 111.272 37.0522C111.272 35.8374 112.246 34.8522 113.447 34.8522C113.478 34.8522 113.509 34.8527 113.54 34.8539C113.54 34.8539 113.541 34.8533 113.541 34.8527C113.541 34.8516 113.542 34.8516 113.542 34.8516H121.283C121.284 34.8516 121.284 34.8527 121.284 34.8527C121.284 34.8539 121.285 34.8539 121.285 34.8539C122.442 34.9045 123.364 35.8698 123.364 37.0522C123.364 37.084 123.364 37.1151 123.362 37.1475H123.363C123.363 37.1475 123.363 37.1477 123.364 37.1479L123.364 37.1487V46.3272C123.364 46.5403 123.193 46.7133 122.983 46.7133H121.476ZM113.541 38.1045V40.0138C113.541 40.2268 113.712 40.3999 113.922 40.3999H120.714C120.925 40.3999 121.095 40.2268 121.095 40.0138V38.1045C121.095 37.3653 120.503 36.7655 119.772 36.7655H114.865C114.134 36.7655 113.541 37.3647 113.541 38.1045ZM152.907 46.7133C152.694 46.7133 152.522 46.5403 152.522 46.3272V42.5081C152.522 42.295 152.35 42.122 152.138 42.122H145.27C145.058 42.122 144.886 42.295 144.886 42.5081V46.3272C144.886 46.5403 144.714 46.7133 144.501 46.7133H142.98C142.767 46.7133 142.595 46.5403 142.595 46.3272V37.1481H142.595H142.596C142.596 37.1481 142.596 37.1481 142.596 37.1481C142.597 37.148 142.597 37.1477 142.597 37.1469C142.596 37.1157 142.595 37.084 142.595 37.0522C142.595 35.8374 143.578 34.8522 144.791 34.8522C144.822 34.8522 144.854 34.8527 144.885 34.8539C144.885 34.8539 144.886 34.8539 144.886 34.8527L144.887 34.8516H152.712C152.712 34.8516 152.713 34.8516 152.713 34.8527C152.713 34.8527 152.713 34.8539 152.714 34.8539C153.882 34.9045 154.813 35.8692 154.813 37.0522C154.813 37.084 154.812 37.1157 154.811 37.1469C154.811 37.1469 154.811 37.1473 154.811 37.1476C154.812 37.1479 154.812 37.1481 154.812 37.1481H154.813C154.813 37.1481 154.813 37.1481 154.813 37.1487V46.3272C154.813 46.5403 154.641 46.7133 154.428 46.7133H152.907ZM144.886 38.1045V40.0138C144.886 40.2268 145.058 40.3999 145.27 40.3999H152.138C152.35 40.3999 152.522 40.2268 152.522 40.0138V38.1045C152.522 37.3647 151.924 36.7655 151.186 36.7655H146.222C145.484 36.7655 144.886 37.3653 144.886 38.1045ZM129.327 34.9869C129.254 34.901 129.148 34.8516 129.036 34.8516H127.314C127.104 34.8516 126.933 35.0246 126.933 35.2377V46.3272C126.933 46.5403 127.104 46.7133 127.314 46.7133H128.832C129.042 46.7133 129.212 46.5403 129.212 46.3272V38.9426C129.212 38.5854 129.648 38.4194 129.88 38.6884L136.753 46.6892C136.755 46.6915 136.757 46.6951 136.757 46.6986C136.757 46.7063 136.762 46.7127 136.771 46.7127H138.645C138.855 46.7127 139.025 46.5397 139.025 46.3266V35.2377C139.025 35.0246 138.855 34.8516 138.645 34.8516H137.137C136.927 34.8516 136.757 35.0246 136.757 35.2377V42.7935C136.757 43.1526 136.315 43.3174 136.086 43.0443L129.327 34.9869Z" fill="white"/>
<path d="M30.9793 47.1212C31.167 46.9335 31.4219 46.8281 31.6879 46.8281H56.1991C56.6458 46.8281 56.8688 47.3678 56.5534 47.6839L51.7101 52.5236C51.5224 52.7113 51.2675 52.8167 51.0015 52.8167H26.4903C26.0436 52.8167 25.8206 52.277 26.136 51.9609L30.9793 47.1212Z" fill="url(#paint0_linear_22459_70338)"/>
<path d="M30.9793 29.0431C31.167 28.8554 31.4219 28.75 31.6879 28.75H56.1991C56.6458 28.75 56.8688 29.2897 56.5534 29.6058L51.7101 34.4455C51.5224 34.6332 51.2675 34.7386 51.0015 34.7386H26.4903C26.0436 34.7386 25.8206 34.1989 26.136 33.8828L30.9793 29.0431Z" fill="url(#paint1_linear_22459_70338)"/>
<path d="M51.7101 38.0275C51.5224 37.8397 51.2675 37.7344 51.0015 37.7344H26.4903C26.0436 37.7344 25.8206 38.2741 26.136 38.5901L30.9793 43.4298C31.167 43.6176 31.4219 43.7229 31.6879 43.7229H56.1991C56.6458 43.7229 56.8688 43.1832 56.5534 42.8672L51.7101 38.0275Z" fill="url(#paint2_linear_22459_70338)"/>
<defs>
<linearGradient id="paint0_linear_22459_70338" x1="53.8572" y1="25.8555" x2="36.8939" y2="58.348" gradientUnits="userSpaceOnUse">
<stop stop-color="#00FFA3"/>
<stop offset="1" stop-color="#DC1FFF"/>
</linearGradient>
<linearGradient id="paint1_linear_22459_70338" x1="46.4396" y1="21.9845" x2="29.4762" y2="54.477" gradientUnits="userSpaceOnUse">
<stop stop-color="#00FFA3"/>
<stop offset="1" stop-color="#DC1FFF"/>
</linearGradient>
<linearGradient id="paint2_linear_22459_70338" x1="50.1251" y1="23.9104" x2="33.1612" y2="56.4029" gradientUnits="userSpaceOnUse">
<stop stop-color="#00FFA3"/>
<stop offset="1" stop-color="#DC1FFF"/>
</linearGradient>
</defs>
</svg>
