<svg width="24" height="24" viewBox="0 0 24 24" fill="none" xmlns="http://www.w3.org/2000/svg">
<path d="M14.5343 19.0002C16.9753 19.0002 18.9582 17.011 18.9722 14.5834L18.9995 11.0097L18.9582 10.8147L18.841 10.5706L18.6425 10.4163C18.3851 10.215 17.0798 10.4304 16.7284 10.1112C16.4794 9.88395 16.4408 9.47292 16.365 8.91459C16.2247 7.83442 16.1364 7.7783 15.9666 7.41216C15.3529 6.11174 13.6849 5.13537 12.5402 5H9.43645C6.99552 5 5 6.99132 5 9.42382V14.5834C5 17.011 6.99552 18.9995 9.43645 18.9995L14.5343 19.0002ZM9.49326 8.61299H11.9531C12.4231 8.61299 12.8032 8.99456 12.8032 9.45819C12.8032 9.91902 12.4231 10.3041 11.9531 10.3041H9.49326C9.02331 10.3041 8.64455 9.91902 8.64455 9.45819C8.64455 8.99456 9.02331 8.61299 9.49326 8.61299ZM8.64455 14.5175C8.64455 14.0546 9.02331 13.6758 9.49326 13.6758H14.4922C14.9587 13.6758 15.3374 14.0546 15.3374 14.5175C15.3374 14.9748 14.9587 15.3592 14.4922 15.3592H9.49326C9.02331 15.3592 8.64455 14.9748 8.64455 14.5175Z" fill="white" fill-opacity="0.8"/>
</svg>
