<?xml version="1.0" encoding="utf-8"?>
<!-- Generator: Adobe Illustrator 21.0.0, SVG Export Plug-In . SVG Version: 6.00 Build 0)  -->
<svg version="1.1" id="Layer_1" xmlns="http://www.w3.org/2000/svg" xmlns:xlink="http://www.w3.org/1999/xlink" x="0px" y="0px"
	 viewBox="0 0 46 50" style="enable-background:new 0 0 46 50;" xml:space="preserve">
<style type="text/css">
	.st0{fill:none;stroke:#231F20;stroke-width:1.4223;stroke-miterlimit:10;}
	.st1{fill:none;stroke:#231F20;stroke-width:1.289;stroke-miterlimit:10;}
</style>
<rect x="8.4" y="21.7" class="st0" width="5.4" height="5.4"/>
<rect x="20.9" y="21.7" class="st0" width="5.4" height="5.4"/>
<rect x="33.1" y="21.7" class="st0" width="5.4" height="5.4"/>
<rect x="8.4" y="33.9" class="st0" width="5.4" height="5.4"/>
<rect x="20.9" y="33.9" class="st0" width="5.4" height="5.4"/>
<rect x="33.1" y="33.9" class="st0" width="5.4" height="5.4"/>
<polyline class="st1" points="38.8,5.7 45,5.7 45,48.5 2.2,48.5 2.2,5.7 8.4,5.7 "/>
<line class="st1" x1="26.1" y1="5.7" x2="33.9" y2="5.7"/>
<line class="st1" x1="13.5" y1="5.7" x2="21.2" y2="5.7"/>
<path class="st1" d="M13.4,8.3V3.8c0-1.3-1.1-2.4-2.4-2.4l0,0c-1.3,0-2.4,1.1-2.4,2.4v4.6c0,1.3,1.1,2.4,2.4,2.4l0,0
	C12.3,10.8,13.4,9.7,13.4,8.3z"/>
<path class="st1" d="M26,8.3V3.8c0-1.3-1.1-2.4-2.4-2.4l0,0c-1.3,0-2.4,1.1-2.4,2.4v4.6c0,1.3,1.1,2.4,2.4,2.4l0,0
	C24.9,10.8,26,9.7,26,8.3z"/>
<path class="st1" d="M38.7,8.3V3.8c0-1.3-1.1-2.4-2.4-2.4l0,0c-1.3,0-2.4,1.1-2.4,2.4v4.6c0,1.3,1.1,2.4,2.4,2.4l0,0
	C37.6,10.8,38.7,9.7,38.7,8.3z"/>
</svg>
