<?xml version="1.0" encoding="utf-8"?>
<!-- Generator: Adobe Illustrator 21.0.0, SVG Export Plug-In . SVG Version: 6.00 Build 0)  -->
<svg version="1.1" id="Layer_1" xmlns="http://www.w3.org/2000/svg" xmlns:xlink="http://www.w3.org/1999/xlink" x="0px" y="0px"
	 viewBox="0 0 31 50" style="enable-background:new 0 0 31 50;" xml:space="preserve">
<style type="text/css">
	.st0{fill:none;stroke:#231F20;stroke-width:1.1583;stroke-miterlimit:10;}
</style>
<g>
	<g>
		<path class="st0" d="M18.4,37c6.4,0.6,11.2,3,11.2,5.9c0,3.3-6.3,6-14.1,6c-7.8,0-14.1-2.7-14.1-6c0-2.9,4.6-5.3,10.9-5.9"/>
		<path class="st0" d="M29.7,15.1C29.7,7.3,23.4,1,15.6,1C7.9,1,1.6,7.3,1.6,15.1c0,2.7,0.8,5.3,2.2,7.5h0l11.7,19.5l12.2-19.5h0
			C28.9,20.4,29.7,17.8,29.7,15.1z"/>
	</g>
	<circle class="st0" cx="15.9" cy="15.1" r="4.6"/>
</g>
</svg>
